<?xml version="1.0" encoding="UTF-8"?>
<svg xmlns="http://www.w3.org/2000/svg" xmlns:xlink="http://www.w3.org/1999/xlink" width="6000pt" height="1275pt" viewBox="0 0 6000 1275" version="1.1">
<g id="surface1">
<path style=" stroke:none;fill-rule:nonzero;fill:rgb(72.499084%,89.7995%,97.299194%);fill-opacity:1;" d="M 6000 1275 L 6000 264.558594 C 5223.019531 264.558594 4719.121094 0 4192.390625 0 C 3569.429688 0 3401.25 319.667969 2587.511719 319.667969 C 2226.550781 319.667969 1865.609375 62.039063 1415.558594 62.039063 C 1006.019531 62.039063 362.460938 314.066406 0 251.058594 L 0 1275 L 6000 1275 "/>
<path style=" stroke:none;fill-rule:nonzero;fill:rgb(49.398804%,81.199646%,95.298767%);fill-opacity:1;" d="M 6000 1275 L 6000 452.25 C 5437.488281 452.25 5218.488281 231.75 4732.488281 231.75 C 4041 231.75 3917 713.5 2936.128906 561.828125 C 2356.511719 472.203125 2203.488281 236.25 1750.488281 236.25 C 979.492188 236.25 931.492188 489.75 0 489.75 L 0 1275 L 6000 1275 "/>
<path style=" stroke:none;fill-rule:nonzero;fill:rgb(29.798889%,72.499084%,90.59906%);fill-opacity:1;" d="M 6000 1275 L 6000 622.953125 L 5999.238281 615.75 C 5069.929688 615.75 4724.171875 452.25 4100.171875 452.25 C 3476.171875 452.25 3279.109375 673.902344 2815.640625 681.074219 C 2359.46875 688.132813 2380.488281 552.75 1645.488281 552.75 C 910.492188 552.75 535.492188 819.75 0 645 L 0 1275 L 6000 1275 "/>
<path style=" stroke:none;fill-rule:nonzero;fill:rgb(21.199036%,67.098999%,88.198853%);fill-opacity:1;" d="M 6000 789.246094 C 5811.601563 739.421875 5649.21875 682.5 5278.199219 682.5 C 4618.421875 682.5 4618.421875 862.5 3958.648438 862.5 C 3298.871094 862.5 3298.871094 645 2639.101563 645 C 1979.320313 645 1979.320313 900 1319.550781 900 C 659.773438 900 659.773438 720 0 720 L 0 1275 L 6000 1275 L 6000 789.246094 "/>
<path style=" stroke:none;fill-rule:nonzero;fill:rgb(8.999634%,57.598877%,81.999207%);fill-opacity:1;" d="M 3599.238281 1041.75 C 2999.238281 1041.75 2999.238281 861.75 2399.238281 861.75 C 1799.238281 861.75 1799.238281 1041.75 1199.238281 1041.75 C 599.496094 1041.75 599.238281 861.902344 0 861.753906 L 0 1275 L 5999.238281 1275 L 5999.238281 1041.75 C 5399.238281 1041.75 5399.238281 861.75 4799.238281 861.75 C 4199.238281 861.75 4199.238281 1041.75 3599.238281 1041.75 "/>
<path style=" stroke:none;fill-rule:nonzero;fill:rgb(0%,48.199463%,75.698853%);fill-opacity:1;" d="M 3360.890625 1185.75 C 2701.121094 1185.75 2701.121094 1005.75 2041.339844 1005.75 C 1381.570313 1005.75 1381.570313 1185.75 721.792969 1185.75 C 350.773438 1185.75 188.394531 1128.828125 0 1079 L 0 1275 L 5999.988281 1275 L 5999.988281 1133.25 C 5340.21875 1133.25 5340.21875 1005.75 4680.441406 1005.75 C 4020.671875 1005.75 4020.671875 1185.75 3360.890625 1185.75 "/>
</g>
</svg>
