<svg version="1.1" xmlns="http://www.w3.org/2000/svg" xmlns:xlink="http://www.w3.org/1999/xlink" width="1560" height="804"><defs/><g><path fill="none" stroke="#02063B" paint-order="fill stroke markers" d=" M 20 427.0840138388767 L 21 428.3012983928592 L 22 429.51321542621014 L 23 430.7195176131289 L 24 431.91995877368254 L 25 433.11429392404546 L 26 434.3022793264955 L 27 435.48367253915546 L 28 436.6582324654699 L 29 437.8257194034081 L 30 438.98589509438165 L 31 440.13852277186805 L 32 441.28336720972965 L 33 442.4201947702178 L 34 443.5487734516535 L 35 444.66887293577406 L 36 445.7802646347355 L 37 446.8827217377627 L 38 447.97601925743663 L 39 449.05993407560896 L 40 450.134244988936 L 41 451.1987327540212 L 42 452.25318013215815 L 43 453.29737193366407 L 44 454.3310950617954 L 45 455.3541385562363 L 46 456.36629363615083 L 47 457.3673537427907 L 48 458.35711458164957 L 49 459.3353741641545 L 50 460.30193284888816 L 51 461.2565933823307 L 52 462.1991609391154 L 53 463.1294431617876 L 54 464.0472502000614 L 55 464.9523947495633 L 56 465.84469209005755 L 57 466.7239601231429 L 58 467.5900194094154 L 59 468.4426932050878 L 60 469.28180749805915 L 61 470.107191043427 L 62 470.9186753984345 L 63 471.716094956846 L 64 472.49928698274385 L 65 473.268091643739 L 66 474.0223520435893 L 67 474.76191425421877 L 68 475.4866273471309 L 69 476.1963434242097 L 70 476.89091764790277 L 71 477.57020827077923 L 72 478.23407666445735 L 73 478.88238734789553 L 74 479.5150080150413 L 75 480.1318095618316 L 76 480.7326661125405 L 77 481.31745504546774 L 78 481.8860570179626 L 79 482.43835599077977 L 80 482.97423925176 L 81 483.49359743883247 L 82 483.996324562333 L 83 484.4823180266342 L 84 484.9514786510831 L 85 485.40371069024206 L 86 485.8389218534277 L 87 486.2570233235457 L 88 486.65792977521664 L 89 487.0415593921888 L 90 487.40783388403497 L 91 487.75667850213017 L 92 488.088022054906 L 93 488.40179692237916 L 94 488.69793906995153 L 95 488.9763880614779 L 96 489.23708707159994 L 97 489.47998289734284 L 98 489.70502596897296 L 99 489.9121703601139 L 100 490.10137379711904 L 101 490.27259766769873 L 102 490.42580702880025 L 103 490.56097061373873 L 104 490.6780608385782 L 105 490.77705380776086 L 106 490.85792931898345 L 107 490.9206708673203 L 108 490.96526564859164 L 109 490.9917045619764 L 110 490.9999822118698 L 111 490.9900969089841 L 112 490.96205067069394 L 113 490.915849220624 L 114 490.85150198748124 L 115 490.7690221031308 L 116 490.6684263999158 L 117 490.54973540722256 L 118 490.4129733472906 L 119 490.2581681302697 L 120 490.0853513485241 L 121 489.8945582701849 L 122 489.6858278319529 L 123 489.4592026311522 L 124 489.21472891703723 L 125 488.9524565813542 L 126 488.67243914815936 L 127 488.3747337628957 L 128 488.059401180731 L 129 487.7265057541592 L 130 487.3761154198668 L 131 487.00830168486937 L 132 486.62313961191774 L 133 486.2207078041799 L 134 485.8010883891994 L 135 485.36436700213517 L 136 484.9106327682851 L 137 484.43997828489773 L 138 483.95249960227477 L 139 483.4482962041699 L 140 482.92747098748566 L 141 482.3901302412751 L 142 481.8363836250499 L 143 481.26634414640176 L 144 480.6801281379396 L 145 480.077855233549 L 146 479.4596483439771 L 147 478.8256336317498 L 148 478.175940485424 L 149 477.5107014931829 L 150 476.8300524157773 L 151 476.13413215881974 L 152 475.42308274443707 L 153 474.69704928228686 L 154 473.9561799399435 L 155 473.20062591266066 L 156 472.43054139251535 L 157 471.64608353694103 L 158 470.8474124366549 L 159 470.0346910829871 L 160 469.2080853346176 L 161 468.3677638837281 L 162 467.5138982215758 L 163 466.6466626034955 L 164 465.766234013338 L 165 464.87279212735183 L 166 463.96651927751475 L 167 463.04760041432405 L 168 462.11622306905247 L 169 461.1725773154765 L 170 460.21685573108704 L 171 459.2492533577883 L 172 458.2699676620942 L 173 457.27919849482936 L 174 456.2771480503444 L 175 455.26402082525215 L 176 454.2400235766944 L 177 453.2053652801475 L 178 452.1602570867747 L 179 451.10491228033527 L 180 450.0395462336573 L 181 448.96437636468545 L 182 447.8796220921103 L 183 446.7855047905899 L 184 445.68224774557206 L 185 444.5700761077266 L 186 443.4492168469971 L 187 442.31989870628126 L 188 441.1823521547494 L 189 440.03680934081086 L 190 438.8835040447375 L 191 437.7226716309542 L 192 436.5545490000063 L 193 435.37937454021323 L 194 434.19738807901854 L 195 433.0088308340467 L 196 431.8139453638756 L 197 430.6129755185355 L 198 429.4061663897452 L 199 428.19376426089326 L 200 426.9760165567778 L 201 425.75317179311173 L 202 424.5254795258069 L 203 423.29319030004444 L 204 422.0565555991446 L 205 420.815827793244 L 206 419.57126008779267 L 207 418.3231064718804 L 208 417.07162166640285 L 209 415.81706107207873 L 210 414.5596807173282 L 211 413.29973720602277 L 212 412.0374876651184 L 213 410.77318969218123 L 214 409.50710130281766 L 215 408.239480878019 L 216 406.97058711143154 L 217 405.70067895656285 L 218 404.4300155739349 L 219 403.15885627819523 L 220 401.8874604851964 L 221 400.6160876590549 L 222 399.34499725920017 L 223 398.07444868742465 L 224 396.80470123494536 L 225 395.5360140294886 L 226 394.2686459824073 L 227 393.0028557358429 L 228 391.7389016099423 L 229 390.4770415501402 L 230 389.2175330745182 L 231 387.96063322125093 L 232 386.70659849615004 L 233 385.45568482031734 L 234 384.2081474779164 L 235 382.96424106407494 L 236 381.72421943292755 L 237 380.48833564580934 L 238 379.25684191961204 L 239 378.02998957531156 L 240 376.80802898667923 L 241 375.59120952918596 L 242 374.37977952911007 L 243 373.1739862128591 L 244 371.9740756565168 L 245 370.78029273562385 L 246 369.59288107520445 L 247 368.4120830000478 L 248 367.2381394852545 L 249 366.0712901070593 L 250 364.9117729939385 L 251 363.7598247780133 L 252 362.61568054675814 L 253 361.4795737950247 L 254 360.3517363773906 L 255 359.23239846084294 L 256 358.1217884778063 L 257 357.0201330795246 L 258 355.9276570898066 L 259 354.8445834591441 L 260 353.7711332192129 L 261 352.70752543776496 L 262 351.6539771739212 L 263 350.61070343387473 L 264 349.5779171270129 L 265 348.55582902246675 L 266 347.54464770609803 L 267 346.54457953793104 L 268 345.5558286100394 L 269 344.57859670489506 L 270 343.61308325418895 L 271 342.6594852981313 L 272 341.7179974452403 L 273 340.7888118326263 L 274 339.8721180867813 L 275 338.96810328487993 L 276 338.0769519166013 L 277 337.19884584647855 L 278 336.33396427678457 L 279 335.48248371096025 L 280 334.6445779175944 L 281 333.8204178949611 L 282 333.01017183612305 L 283 332.2140050946065 L 284 331.4320801506566 L 285 330.66455657807876 L 286 329.9115910116728 L 287 329.1733371152675 L 288 328.44994555036106 L 289 327.74156394537437 L 290 327.04833686552337 L 291 326.3704057833163 L 292 325.70790904968214 L 293 325.0609818657368 L 294 324.4297562551907 L 295 323.8143610374062 L 296 323.2149218011082 L 297 322.6315608787542 L 298 322.064397321569 L 299 321.5135468752489 L 300 320.97912195634035 L 301 320.4612316292985 L 302 319.9599815842294 L 303 319.47547411532094 L 304 319.00780809996667 L 305 318.55707897858747 L 306 318.12337873515395 L 307 317.7067958784146 L 308 317.30741542383305 L 309 316.92531887623846 L 310 316.5605842131919 L 311 316.21328586907293 L 312 315.88349471988937 L 313 315.5712780688126 L 314 315.276699632443 L 315 314.9998195278064 L 316 314.7406942600855 L 317 314.49937671108876 L 318 314.275916128458 L 319 314.07035811561815 L 320 313.8827446224706 L 321 313.7131139368323 L 322 313.5615006766217 L 323 313.4279357827942 L 324 313.3124465130279 L 325 313.2150564361607 L 326 313.1357854273805 L 327 313.07464966416893 L 328 313.03166162300033 L 329 313.00683007679504 L 330 313.00016009312935 L 331 313.01165303320136 L 332 313.0413065515529 L 333 313.0891145965485 L 334 313.15506741161016 L 335 313.23915153720867 L 336 313.3413498136102 L 337 313.4616413843783 L 338 313.60000170063046 L 339 313.7564025260475 L 340 313.9308119426366 L 341 314.1231943572445 L 342 314.33351050882163 L 343 314.5617174764344 L 344 314.80776868802434 L 345 315.0716139299125 L 346 315.3531993570467 L 347 315.6524675039908 L 348 315.9693572966513 L 349 316.3038040647418 L 350 316.6557395549807 L 351 317.02509194501994 L 352 317.4117858581027 L 353 317.81574237844603 L 354 318.23687906734574 L 355 318.6751099800004 L 356 319.1303456830509 L 357 319.6024932728318 L 358 320.09145639433075 L 359 320.5971352608527 L 360 321.1194266743841 L 361 321.65822404665323 L 362 322.2134174208827 L 363 322.7848934942293 L 364 323.3725356409064 L 365 323.9762239359847 L 366 324.59583517986675 L 367 325.23124292342874 L 368 325.8823174938263 L 369 326.5489260209579 L 370 327.2309324645805 L 371 327.9281976420728 L 372 328.6405792568389 L 373 329.3679319273484 L 374 330.11010721680526 L 375 330.8669536634405 L 376 331.6383168114225 L 377 332.4240392423779 L 378 333.22396060751714 L 379 334.0379176603584 L 380 334.86574429004247 L 381 335.7072715552324 L 382 336.5623277185907 L 383 337.4307382818273 L 384 338.3123260213105 L 385 339.2069110242351 L 386 340.11431072533793 L 387 341.0343399441559 L 388 341.96681092281705 L 389 342.91153336435815 L 390 343.86831447155976 L 391 344.8369589862922 L 392 345.8172692293634 L 393 346.8090451408608 L 394 347.81208432097947 L 395 348.826182071327 L 396 349.8511314366987 L 397 350.88672324731203 L 398 351.93274616149375 L 399 352.9889867088103 L 400 354.0552293336321 L 401 355.1312564391243 L 402 356.2168484316529 L 403 357.31178376559967 L 404 358.4158389885742 L 405 359.52878878701586 L 406 360.6504060321756 L 407 361.7804618264676 L 408 362.91872555018256 L 409 364.064964908552 L 410 365.21894597915446 L 411 366.3804332596543 L 412 367.5491897158623 L 413 368.724976830109 L 414 369.9075546499214 L 415 371.0966818369917 L 416 372.2921157164294 L 417 373.49361232628564 L 418 374.7009264673407 L 419 375.91381175314393 L 420 377.1320206602956 L 421 378.35530457896107 L 422 379.5834138636068 L 423 380.8160978839473 L 424 382.0531050760935 L 425 383.2941829938914 L 426 384.5390783604408 L 427 385.78753711978345 L 428 387.0393044887506 L 429 388.29412500895853 L 430 389.55174259894176 L 431 390.81190060641427 L 432 392.0743418606462 L 433 393.3388087249469 L 434 394.6050431492428 L 435 395.8727867227402 L 436 397.1417807266608 L 437 398.41176618704077 L 438 399.68248392758176 L 439 400.953674622543 L 440 402.22507884966404 L 441 403.49643714310713 L 442 404.7674900464087 L 443 406.03797816542846 L 444 407.3076422212864 L 445 408.5762231032759 L 446 409.8434619217422 L 447 411.1091000609166 L 448 412.37287923169396 L 449 413.63454152434406 L 450 414.89382946114534 L 451 416.15048604893036 L 452 417.40425483153246 L 453 418.65487994212316 L 454 419.90210615542856 L 455 421.1456789398156 L 456 422.38534450923623 L 457 423.62084987501976 L 458 424.85194289750206 L 459 426.078372337482 L 460 427.2998879074937 L 461 428.516240322885 L 462 429.72718135269065 L 463 430.93246387029114 L 464 432.13184190384584 L 465 433.32507068649005 L 466 434.5119067062871 L 467 435.6921077559237 L 468 436.86543298213894 L 469 438.03164293487725 L 470 439.1904996161552 L 471 440.3417665286313 L 472 441.4852087238702 L 473 442.62059285029045 L 474 443.7476872007866 L 475 444.8662617600151 L 476 445.97608825133614 L 477 447.07694018339924 L 478 448.16859289636557 L 479 449.25082360775616 L 480 450.3234114579165 L 481 451.3861375550898 L 482 452.43878502008755 L 483 453.4811390305498 L 484 454.51298686478617 L 485 455.5341179451873 L 486 456.54432388119915 L 487 457.5433985118512 L 488 458.5311379478293 L 489 459.5073406130848 L 490 460.4718072859722 L 491 461.4243411399057 L 492 462.3647477835272 L 493 463.2928353003775 L 494 464.20841428806193 L 495 465.11129789690375 L 496 466.0013018680756 L 497 466.87824457120297 L 498 467.7419470414309 L 499 468.59223301594693 L 500 469.4289289699521 L 501 470.2518641520742 L 502 471.0608706192138 L 503 471.8557832708183 L 504 472.6364398825746 L 505 473.4026811395166 L 506 474.1543506685368 L 507 474.89129507029946 L 508 475.6133639505456 L 509 476.3204099507854 L 510 477.0122887783707 L 511 477.68885923594223 L 512 478.3499832502445 L 513 478.99552590030396 L 514 479.625355444963 L 515 480.23934334976605 L 516 480.83736431318994 L 517 481.4192962922158 L 518 481.9850205272348 L 519 482.534421566285 L 520 483.0673872886123 L 521 483.5838089275516 L 522 484.08358109272416 L 523 484.56660179154505 L 524 485.03277245003795 L 525 485.48199793295174 L 526 485.9141865631756 L 527 486.32925014044827 L 528 486.7271039593578 L 529 487.10766682662813 L 530 487.4708610776888 L 531 487.8166125925248 L 532 488.14485081080227 L 533 488.4555087462691 L 534 488.7485230004248 L 535 489.023833775459 L 536 489.2813848864548 L 537 489.52112377285476 L 538 489.7430015091877 L 539 489.946972815053 L 540 490.1329960643615 L 541 490.3010332938304 L 542 490.4510502107307 L 543 490.58301619988595 L 544 490.69690432991945 L 545 490.792691358751 L 546 490.87035773833986 L 547 490.929887618674 L 548 490.97126885100494 L 549 490.99449299032676 L 550 490.9995552970999 L 551 490.98645473821796 L 552 490.95519398721905 L 553 490.9057794237397 L 554 490.8382211322132 L 555 490.75253289981157 L 556 490.64873221363166 L 557 490.5268402571268 L 558 490.3868819057834 L 559 490.22888572204454 L 560 490.052883949481 L 561 489.85891250621097 L 562 489.64701097757006 L 563 489.41722260803283 L 564 489.1695942923873 L 565 488.9041765661649 L 566 488.6210235953274 L 567 488.3201931652127 L 568 488.0017466687419 L 569 487.66574909389067 L 570 487.3122690104265 L 571 486.94137855591515 L 572 486.5531534209988 L 573 486.1476728339494 L 574 485.7250195444998 L 575 485.2852798069565 L 576 484.8285433625968 L 577 484.3549034213548 L 578 483.8644566427989 L 579 483.3573031164065 L 580 482.8335463411369 L 581 482.2932932043101 L 582 481.7366539597932 L 583 481.1637422055001 L 584 480.5746748602085 L 585 479.9695721396995 L 586 479.34855753222405 L 587 478.71175777330177 L 588 478.05930281985695 L 589 477.39132582369723 L 590 476.70796310434014 L 591 476.0093541211934 L 592 475.29564144509413 L 593 474.5669707292134 L 594 473.8234906793316 L 595 473.0653530234906 L 596 472.29271248102987 L 597 471.5057267310109 L 598 470.70455638003915 L 599 469.88936492948716 L 600 469.0603187421277 L 601 468.217587008183 L 602 467.36134171079607 L 603 466.4917575909335 L 604 465.60901211172404 L 605 464.71328542224245 L 606 463.8047603207452 L 607 462.8836222173649 L 608 461.95005909627275 L 609 461.00426147731434 L 610 460.0464223771293 L 611 459.07673726976066 L 612 458.0954040467627 L 613 457.1026229768157 L 614 456.09859666485585 L 615 455.0835300107272 L 616 454.05763016736677 L 617 453.0211064985289 L 618 451.97417053605864 L 619 450.9170359367229 L 620 449.8499184386076 L 621 448.7730358170902 L 622 447.68660784039673 L 623 446.59085622475175 L 624 445.4860045891308 L 625 444.372278409625 L 626 443.2499049734257 L 627 442.1191133324409 L 628 440.9801342565502 L 629 439.83320018650966 L 630 438.6785451865163 L 631 437.5164048964401 L 632 436.34701648373533 L 633 435.1706185950398 L 634 433.9874513074722 L 635 432.79775607963796 L 636 431.6017757023523 L 637 430.3997542490923 L 638 429.1919370261868 L 639 427.9785705227544 L 640 426.75990236040093 L 641 425.5361812426849 L 642 424.3076569043627 L 643 423.07458006042316 L 644 421.83720235492206 L 645 420.5957763096271 L 646 419.35055527248375 L 647 418.1017933659125 L 648 416.84974543494764 L 649 415.59466699522983 L 650 414.33681418086 L 651 413.07644369212846 L 652 411.81381274312787 L 653 410.54917900926137 L 654 409.2828005746569 L 655 408.0149358794977 L 656 406.74584366728027 L 657 405.47578293201053 L 658 404.20501286534886 L 659 402.93379280371465 L 660 401.6623821753615 L 661 400.39104044743334 L 662 399.1200270730133 L 663 397.84960143817455 L 664 396.58002280904543 L 665 395.31155027889895 L 666 394.04444271527757 L 667 392.7789587071637 L 668 391.51535651220775 L 669 390.2538940040229 L 670 388.99482861955926 L 671 387.7384173065661 L 672 386.4849164711548 L 673 385.23458192547184 L 674 383.987668835493 L 675 382.74443166894974 L 676 381.5051241433979 L 677 380.2699991744392 L 678 379.0393088241071 L 679 377.8133042494261 L 680 376.5922356511564 L 681 375.376352222733 L 682 374.165902099411 L 683 372.96113230762666 L 684 371.7622887145847 L 685 370.569615978082 L 686 369.38335749657836 L 687 368.20375535952417 L 688 367.03105029795535 L 689 365.8654816353653 L 690 364.7072872388643 L 691 363.55670347063585 L 692 362.4139651397005 L 693 361.2793054539964 L 694 360.1529559727866 L 695 359.03514655940273 L 696 357.92610533433543 L 697 356.82605862867933 L 698 355.73523093794404 L 699 354.6538448762397 L 700 353.5821211308461 L 701 352.52027841717523 L 702 351.4685334341363 L 703 350.4271008199123 L 704 349.39619310815687 L 705 348.3760206846209 L 706 347.36679174421744 L 707 346.3687122485335 L 708 345.38198588379805 L 709 344.4068140193139 L 710 343.4433956663627 L 711 342.4919274375911 L 712 341.55260350688616 L 713 340.6256155697493 L 714 339.71115280417473 L 715 338.8094018320428 L 716 337.92054668103435 L 717 337.04476874707484 L 718 336.18224675731517 L 719 335.3331567336578 L 720 334.497671956834 L 721 333.67596293104117 L 722 332.868197349147 L 723 332.07454005846677 L 724 331.2951530271214 L 725 330.53019531098374 L 726 329.77982302121836 L 727 329.044189292423 L 728 328.3234442513768 L 729 327.617734986403 L 730 326.9272055173511 L 731 326.251996766206 L 732 325.5922465283285 L 733 324.9480894443344 L 734 324.31965697261745 L 735 323.7070773625214 L 736 323.1104756281669 L 737 322.52997352293954 L 738 321.9656895146418 L 739 321.41773876131685 L 740 320.8862330877473 L 741 320.37128096263405 L 742 319.8729874764602 L 743 319.3914543200446 L 744 318.9267797637886 L 745 318.4790586376216 L 746 318.048382311648 L 747 317.6348386775009 L 748 317.2385121304049 L 749 316.8594835519533 L 750 316.4978302936016 L 751 316.15362616088225 L 752 315.8269413983417 L 753 315.51784267520594 L 754 315.2263930717743 L 755 314.95265206654597 L 756 314.69667552408225 L 757 314.4585156836054 L 758 314.23822114833786 L 759 314.0358368755835 L 760 313.8514041675528 L 761 313.6849606629336 L 762 313.53654032921054 L 763 313.4061734557324 L 764 313.29388664753117 L 765 313.1997028198923 L 766 313.12364119367817 L 767 313.06571729140563 L 768 313.0259429340782 L 769 313.0043262387737 L 770 313.0008716169874 L 771 313.01557977373227 L 772 313.04844770739476 L 773 313.0994687103473 L 774 313.1686323703174 L 775 313.2559245725125 L 776 313.36132750250044 L 777 313.48481964984495 L 778 313.62637581249567 L 779 313.78596710193096 L 780 313.963560949054 L 781 314.15912111083884 L 782 314.3726076777271 L 783 314.60397708177265 L 784 314.85318210553277 L 785 315.1201718917043 L 786 315.40489195350233 L 787 315.7072841857801 L 788 316.0272868768867 L 789 316.3648347212611 L 790 316.71985883275954 L 791 317.09228675871407 L 792 317.4820424947181 L 793 317.8890465001373 L 794 318.3132157143425 L 795 318.75446357366013 L 796 319.21270002903805 L 797 319.68783156442277 L 798 320.1797612158439 L 799 320.6883885912023 L 800 321.2136098907582 L 801 321.7553179283142 L 802 322.31340215308967 L 803 322.8877486722819 L 804 323.47824027430886 L 805 324.08475645272983 L 806 324.707173430838 L 807 325.3453641869205 L 808 325.9991984801809 L 809 326.66854287731843 L 810 327.35326077975884 L 811 328.0532124515312 L 812 328.7682550477849 L 813 329.49824264394124 L 814 330.24302626547336 L 815 331.0024539183088 L 816 331.77637061984797 L 817 332.5646184305931 L 818 333.36703648637973 L 819 334.18346103120604 L 820 335.0137254506516 L 821 335.8576603058797 L 822 336.71509336821634 L 823 337.58584965429844 L 824 338.46975146178335 L 825 339.36661840561504 L 826 340.2762674548361 L 827 341.1985129699407 L 828 342.1331667407591 L 829 343.0800380248679 L 830 344.0389335865159 L 831 345.0096577360593 L 832 345.992012369898 L 833 346.98579701090404 L 834 347.9908088493345 L 835 349.00684278422074 L 836 350.0336914652249 L 837 351.07114533495553 L 838 352.11899267173396 L 839 353.1770196328017 L 840 354.2450102979613 L 841 355.32274671364087 L 842 356.4100089373736 L 843 357.5065750826835 L 844 358.61222136436726 L 845 359.7267221441639 L 846 360.84984997680283 L 847 361.9813756564205 L 848 363.1210682633359 L 849 364.26869521117686 L 850 365.4240222943452 L 851 366.5868137358134 L 852 367.7568322352415 L 853 368.93383901740464 L 854 370.11759388092224 L 855 371.3078552472776 L 856 372.5043802101189 L 857 373.706924584831 L 858 374.9152429583685 L 859 376.1290887393384 L 860 377.3482142083251 L 861 378.5723705684437 L 862 379.8013079961144 L 863 381.0347756920459 L 864 382.27252193241793 L 865 383.514294120253 L 866 384.7598388369654 L 867 386.0089018940788 L 868 387.2612283851005 L 869 388.51656273754196 L 870 389.7746487650761 L 871 391.0352297198188 L 872 392.298048344726 L 873 393.5628469260938 L 874 394.82936734615265 L 875 396.0973511357431 L 876 397.3665395270642 L 877 398.6366735064818 L 878 399.9074938673881 L 879 401.17874126309965 L 880 402.4501562597847 L 881 403.7214793894077 L 882 404.99245120268114 L 883 406.2628123220136 L 884 407.53230349444283 L 885 408.8006656445438 L 886 410.0676399273004 L 887 411.3329677809297 L 888 412.59639097964924 L 889 413.8576516863749 L 890 415.11649250533986 L 891 416.3726565346238 L 892 417.6258874185805 L 893 418.8759294001549 L 894 420.1225273730768 L 895 421.36542693392346 L 896 422.60437443403697 L 897 423.8391170312889 L 898 425.06940274167954 L 899 426.2949804907625 L 900 427.5156001648835 L 901 428.73101266222307 L 902 429.9409699436328 L 903 431.1452250832547 L 904 432.3435323189134 L 905 433.5356471022709 L 906 434.72132614873345 L 907 435.90032748710064 L 908 437.0724105089464 L 909 438.23733601772204 L 910 439.39486627757105 L 911 440.54476506184557 L 912 441.6867977013154 L 913 442.82073113205865 L 914 443.946333943025 L 915 445.06337642326184 L 916 446.17163060879295 L 917 447.27087032914125 L 918 448.3608712534852 L 919 449.4414109364395 L 920 450.51226886345205 L 921 451.5732264958053 L 922 452.6240673152157 L 923 453.6645768680206 L 924 454.69454280894286 L 925 455.71375494442646 L 926 456.72200527553224 L 927 457.7190880403859 L 928 458.70479975616956 L 929 459.67893926064795 L 930 460.6413077532216 L 931 461.5917088354976 L 932 462.5299485513699 L 933 463.45583542660194 L 934 464.369180507902 L 935 465.26979740148477 L 936 466.15750231111 L 937 467.0321140755915 L 938 467.8934542057679 L 939 468.7413469209288 L 940 469.5756191846872 L 941 470.3961007402931 L 942 471.20262414537876 L 943 471.9950248061302 L 944 472.77314101087694 L 945 473.53681396309423 L 946 474.2858878138098 L 947 475.0202096934089 L 948 475.7396297428322 L 949 476.44400114415834 L 950 477.1331801505665 L 951 477.8070261156717 L 952 478.46540152222815 L 953 479.1081720101929 L 954 479.7352064041463 L 955 480.34637674006177 L 956 480.94155829142056 L 957 481.5206295946657 L 958 482.08347247398996 L 959 482.6299720654531 L 960 483.16001684042305 L 961 483.67349862833635 L 962 484.1703126387736 L 963 484.6503574828448 L 964 485.1135351938804 L 965 485.55975124742463 L 966 485.9889145805253 L 967 486.40093761031846 L 968 486.79573625190136 L 969 487.17322993549294 L 970 487.5333416228762 L 971 487.87599782311986 L 972 488.2011286075764 L 973 488.50866762415285 L 974 488.79855211085214 L 975 489.07072290858105 L 976 489.3251244732234 L 977 489.5617048869755 L 978 489.7804158689414 L 979 489.9812127849859 L 980 490.16405465684346 L 981 490.32890417048094 L 982 490.4757276837126 L 983 490.60449523306573 L 984 490.71518053989564 L 985 490.8077610157482 L 986 490.8822177669702 L 987 490.93853559856467 L 988 490.97670301729204 L 989 490.9967122340157 L 990 490.9985591652914 L 991 490.9822434342009 L 992 490.9477683704285 L 993 490.8951410095819 L 994 490.8243720917562 L 995 490.73547605934203 L 996 490.6284710540783 L 997 490.50337891334976 L 998 490.36022516573064 L 999 490.19903902577454 L 1000 490.01985338805264 L 1001 489.8227048204406 L 1002 489.6076335566556 L 1003 489.37468348804595 L 1004 489.1239021546334 L 1005 488.8553407354116 L 1006 488.56905403790114 L 1007 488.2651004869652 L 1008 487.94354211288567 L 1009 487.60444453870457 L 1010 487.2478769668315 L 1011 486.8739121649211 L 1012 486.4826264510227 L 1013 486.0740996780057 L 1014 485.64841521726294 L 1015 485.2056599416968 L 1016 484.74592420798996 L 1017 484.26930183816603 L 1018 483.7758901004421 L 1019 483.2657896893787 L 1020 482.7391047053301 L 1021 482.1959426331997 L 1022 481.63641432050485 L 1023 481.06063395475513 L 1024 480.4687190401492 L 1025 479.8607903735949 L 1026 479.236972020057 L 1027 478.5973912872385 L 1028 477.9421786995997 L 1029 477.27146797172117 L 1030 476.5853959810154 L 1031 475.8841027397932 L 1032 475.1677313666902 L 1033 474.4364280574593 L 1034 473.69034205513594 L 1035 472.9296256195799 L 1036 472.15443399640316 L 1037 471.3649253852872 L 1038 470.5612609076983 L 1039 469.74360457400576 L 1040 468.9121232500112 L 1041 468.06698662289494 L 1042 467.20836716658636 L 1043 466.3364401065659 L 1044 465.4513833841052 L 1045 464.5533776199535 L 1046 463.6426060774764 L 1047 462.71925462525627 L 1048 461.7835116991602 L 1049 460.8355682638846 L 1050 459.8756177739834 L 1051 458.903856134388 L 1052 457.92048166042764 L 1053 456.9256950373574 L 1054 455.9196992794028 L 1055 454.90269968832905 L 1056 453.87490381154333 L 1057 452.836521399739 L 1058 451.78776436409 L 1059 450.7288467330044 L 1060 449.65998460844594 L 1061 448.5813961218325 L 1062 447.4933013895197 L 1063 446.3959224678805 L 1064 445.2894833079882 L 1065 444.17420970991276 L 1066 443.0503292766401 L 1067 441.91807136762327 L 1068 440.777667051975 L 1069 439.6293490613121 L 1070 438.47335174225924 L 1071 437.30991100862445 L 1072 436.1392642932542 L 1073 434.9616504995783 L 1074 433.77730995285526 L 1075 432.58648435112684 L 1076 431.3894167158931 L 1077 430.1863513425166 L 1078 428.9775337503675 L 1079 427.76321063271797 L 1080 426.54362980639786 L 1081 425.3190401612205 L 1082 424.08969160918974 L 1083 422.85583503349847 L 1084 421.6177222373286 L 1085 420.3756058924639 L 1086 419.12973948772486 L 1087 417.8803772772373 L 1088 416.6277742285447 L 1089 415.3721859705749 L 1090 414.11386874147155 L 1091 412.853079336302 L 1092 411.5900750546505 L 1093 410.3251136481094 L 1094 409.05845326767735 L 1095 407.7903524110766 L 1096 406.521069869999 L 1097 405.2508646772925 L 1098 403.97999605409814 L 1099 402.70872335694844 L 1100 401.43730602483873 L 1101 400.16600352628126 L 1102 398.895075306353 L 1103 397.62478073374893 L 1104 396.3553790478508 L 1105 395.0871293058212 L 1106 393.82029032973634 L 1107 392.55512065376587 L 1108 391.29187847141174 L 1109 390.03082158281654 L 1110 388.7722073421522 L 1111 387.5162926050995 L 1112 386.26333367642945 L 1113 385.01358625769717 L 1114 383.76730539505866 L 1115 382.52474542722166 L 1116 381.2861599335404 L 1117 380.0518016822658 L 1118 378.82192257896094 L 1119 377.5967736150925 L 1120 376.37660481680916 L 1121 375.16166519391635 L 1122 373.9522026890595 L 1123 372.74846412712293 L 1124 371.5506951648604 L 1125 370.3591402407595 L 1126 369.1740425251594 L 1127 367.9956438706232 L 1128 366.8241847625827 L 1129 365.659904270259 L 1130 364.5030399978754 L 1131 363.35382803616557 L 1132 362.21250291419494 L 1133 361.07929755149587 L 1134 359.9544432105365 L 1135 358.8381694495225 L 1136 357.73070407555184 L 1137 356.63227309812174 L 1138 355.5431006830077 L 1139 354.46340910651355 L 1140 353.39341871011226 L 1141 352.33334785547663 L 1142 351.28341287991867 L 1143 350.2438280522378 L 1144 349.21480552899527 L 1145 348.19655531121566 L 1146 347.18928520153236 L 1147 346.19320076177735 L 1148 345.20850527103266 L 1149 344.2353996841436 L 1150 343.2740825907102 L 1151 342.3247501745573 L 1152 341.38759617370005 L 1153 340.4628118408038 L 1154 339.5505859041558 L 1155 338.65110452914803 L 1156 337.7645512802864 L 1157 336.89110708372857 L 1158 336.0309501903603 L 1159 335.1842561394197 L 1160 334.35119772267194 L 1161 333.53194494914794 L 1162 332.72666501044745 L 1163 331.9355222466205 L 1164 331.15867811262785 L 1165 330.39629114539275 L 1166 329.6485169314458 L 1167 328.9155080751744 L 1168 328.1974141676783 L 1169 327.49438175624255 L 1170 326.80655431442904 L 1171 326.13407221279823 L 1172 325.47707269026097 L 1173 324.83568982607244 L 1174 324.21005451246845 L 1175 323.600294427954 L 1176 323.0065340112461 L 1177 322.4288944358795 L 1178 321.86749358547667 L 1179 321.32244602969155 L 1180 320.7938630008272 L 1181 320.2818523711368 L 1182 319.7865186308083 L 1183 319.3079628666412 L 1184 318.84628274141596 L 1185 318.4015724739642 L 1186 317.9739228199396 L 1187 317.56342105329776 L 1188 317.17015094848443 L 1189 316.79419276333994 L 1190 316.4356232227194 L 1191 316.09451550283586 L 1192 315.7709392163257 L 1193 315.4649603980426 L 1194 315.17664149158156 L 1195 314.9060413365349 L 1196 314.6532151564849 L 1197 314.4182145477337 L 1198 314.20108746877366 L 1199 314.00187823049976 L 1200 313.82062748716737 L 1201 313.6573722280949 L 1202 313.51214577011564 L 1203 313.3849777507781 L 1204 313.2758941222979 L 1205 313.18491714626157 L 1206 313.1120653890831 L 1207 313.05735371821515 L 1208 313.020793299115 L 1209 313.00239159296564 L 1210 313.0021523551536 L 1211 313.020075634502 L 1212 313.056157773261 L 1213 313.11039140785397 L 1214 313.18276547038056 L 1215 313.273265190875 L 1216 313.3818721003207 L 1217 313.5085640344193 L 1218 313.6533151381136 L 1219 313.8160958708647 L 1220 313.99687301267954 L 1221 314.19560967089154 L 1222 314.4122652876887 L 1223 314.64679564839093 L 1224 314.8991528904734 L 1225 315.169285513334 L 1226 315.4571383888035 L 1227 315.7626527723962 L 1228 316.08576631529843 L 1229 316.42641307709204 L 1230 316.78452353921216 L 1231 317.1600246191338 L 1232 317.552839685287 L 1233 317.9628885726948 L 1234 318.3900875993342 L 1235 318.83434958321294 L 1236 319.2955838601621 L 1237 319.77369630233807 L 1238 320.2685893374326 L 1239 320.7801619685846 L 1240 321.308309794992 L 1241 321.852925033217 L 1242 322.41389653918304 L 1243 322.9911098308561 L 1244 323.5844471116088 L 1245 324.1937872942592 L 1246 324.81900602578327 L 1247 325.45997571269106 L 1248 326.11656554706735 L 1249 326.7886415332654 L 1250 327.47606651525354 L 1251 328.17870020460464 L 1252 328.8963992091273 L 1253 329.6290170621275 L 1254 330.3764042523008 L 1255 331.1384082542428 L 1256 331.9148735595778 L 1257 332.7056417086932 L 1258 333.5105513230789 L 1259 334.32943813826 L 1260 335.1621350373208 L 1261 336.0084720850086 L 1262 336.86827656241405 L 1263 337.7413730022203 L 1264 338.6275832245103 L 1265 339.5267263731312 L 1266 340.43861895260164 L 1267 341.3630748655605 L 1268 342.29990545074384 L 1269 343.24891952148835 L 1270 344.20992340474635 L 1271 345.18272098061226 L 1272 346.16711372234437 L 1273 347.16290073688185 L 1274 348.1698788058407 L 1275 349.187842426988 L 1276 350.21658385617854 L 1277 351.25589314975286 L 1278 352.3055582073803 L 1279 353.36536481534563 L 1280 354.4350966902639 L 1281 355.5145355232209 L 1282 356.6034610243231 L 1283 357.7016509676564 L 1284 358.8088812366352 L 1285 359.92492586974197 L 1286 361.0495571066387 L 1287 362.1825454346505 L 1288 363.3236596356012 L 1289 364.4726668330028 L 1290 365.6293325395779 L 1291 366.7934207051157 L 1292 367.9646937646425 L 1293 369.14291268690585 L 1294 370.32783702315317 L 1295 371.5192249562045 L 1296 372.7168333498001 L 1297 373.92041779821994 L 1298 375.1297326761628 L 1299 376.3445311888706 L 1300 377.56456542249634 L 1301 378.7895863946956 L 1302 380.0193441054407 L 1303 381.2535875880379 L 1304 382.4920649603464 L 1305 383.73452347617996 L 1306 384.980709576889 L 1307 386.2303689431042 L 1308 387.48324654663963 L 1309 388.7390867025363 L 1310 389.9976331212441 L 1311 391.25862896092275 L 1312 392.5218168798596 L 1313 393.78693908898543 L 1314 395.0537374044859 L 1315 396.32195330048864 L 1316 397.5913279618253 L 1317 398.8616023368476 L 1318 400.13251719029665 L 1319 401.4038131562046 L 1320 402.67523079082804 L 1321 403.9465106255925 L 1322 405.21739322004674 L 1323 406.4876192148062 L 1324 407.7569293844853 L 1325 409.0250646905971 L 1326 410.2917663344199 L 1327 411.55677580981 L 1328 412.81983495595944 L 1329 414.08068601007864 L 1330 415.3390716600028 L 1331 416.594735096701 L 1332 417.84742006668705 L 1333 419.0968709243153 L 1334 420.3428326839507 L 1335 421.58505107200824 L 1336 422.823272578842 L 1337 424.05724451048343 L 1338 425.2867150402082 L 1339 426.5114332599312 L 1340 427.7311492314087 L 1341 428.94561403724776 L 1342 430.15457983170245 L 1343 431.3577998912564 L 1344 432.5550286649707 L 1345 433.74602182459853 L 1346 434.9305363144445 L 1347 436.1083304009693 L 1348 437.2791637221201 L 1349 438.4427973363853 L 1350 439.59899377155534 L 1351 440.7475170731875 L 1352 441.8881328527568 L 1353 443.02060833549217 L 1354 444.14471240787816 L 1355 445.26021566482234 L 1356 446.36689045646995 L 1357 447.46451093466425 L 1358 448.55285309903496 L 1359 449.6316948427143 L 1360 450.7008159976617 L 1361 451.75999837959745 L 1362 452.8090258325275 L 1363 453.8476842728579 L 1364 454.87576173308287 L 1365 455.8930484050445 L 1366 456.8993366827484 L 1367 457.8944212047323 L 1368 458.87809889597645 L 1369 459.8501690093453 L 1370 460.81043316655723 L 1371 461.7586953986678 L 1372 462.69476218606405 L 1373 463.61844249795615 L 1374 464.5295478313643 L 1375 465.42789224958636 L 1376 466.3132924201451 L 1377 467.1855676522007 L 1378 468.04453993342764 L 1379 468.8900339663412 L 1380 469.7218772040736 L 1381 470.5398998855856 L 1382 471.3439350703122 L 1383 472.13381867223063 L 1384 472.9093894933475 L 1385 473.6704892565948 L 1386 474.41696263813236 L 1387 475.14865729904415 L 1388 475.865423916429 L 1389 476.56711621387274 L 1390 477.25359099130156 L 1391 477.92470815420427 L 1392 478.58033074222425 L 1393 479.2203249571084 L 1394 479.84456019001414 L 1395 480.4529090481621 L 1396 481.045247380836 L 1397 481.6214543047172 L 1398 482.18141222855627 L 1399 482.72500687716894 L 1400 483.25212731475887 L 1401 483.76266596755585 L 1402 484.25651864577003 L 1403 484.7335845648547 L 1404 485.1937663660738 L 1405 485.6369701363715 L 1406 486.06310542753664 L 1407 486.4720852746626 L 1408 486.86382621389373 L 1409 487.23824829945937 L 1410 487.5952751199883 L 1411 487.9348338141035 L 1412 488.25685508529057 L 1413 488.5612732160406 L 1414 488.84802608126085 L 1415 489.1170551609538 L 1416 489.3683055521592 L 1417 489.60172598015924 L 1418 489.8172688089419 L 1419 490.014890050923 L 1420 490.19454937592246 L 1421 490.35621011939577 L 1422 490.49983928991526 L 1423 490.6254075759041 L 1424 490.7328893516171 L 1425 490.8222626823711 L 1426 490.893509329021 L 1427 490.9466147516822 L 1428 490.9815681126976 L 1429 490.99836227884947 L 1430 490.9969938228153 L 1431 490.97746302386713 L 1432 490.93977386781444 L 1433 490.883934046191 L 1434 490.8099549546849 L 1435 490.7178516908131 L 1436 490.6076430508406 L 1437 490.4793515259438 L 1438 490.33300329762153 L 1439 490.16862823235107 L 1440 489.98625987549366 L 1441 489.7859354444484 L 1442 489.5676958210568 L 1443 489.3315855432603 L 1444 489.07765279601017 L 1445 488.8059494014349 L 1446 488.5165308082636 L 1447 488.20945608051113 L 1448 487.8847878854231 L 1449 487.54259248068837 L 1450 487.1829397009158 L 1451 486.80590294338396 L 1452 486.4115591530609 L 1453 485.99998880690293 L 1454 485.5712758974294 L 1455 485.12550791558317 L 1456 484.6627758328744 L 1457 484.1831740828161 L 1458 483.6868005416518 L 1459 483.1737565083814 L 1460 482.6441466840882 L 1461 482.0980791505717 L 1462 481.5356653482903 L 1463 480.95702005361926 L 1464 480.3622613554263 L 1465 479.75151063097377 L 1466 479.1248925211465 L 1467 478.48253490501685 L 1468 477.82456887374616 L 1469 477.15112870383297 L 1470 476.462351829709 L 1471 475.75837881569277 L 1472 475.0393533273033 L 1473 474.30542210194017 L 1474 473.55673491893924 L 1475 472.79344456900424 L 1476 472.01570682302713 L 1477 471.22368040029727 L 1478 470.41752693611147 L 1479 469.5974109487866 L 1480 468.76349980608626 L 1481 467.91596369106327 L 1482 467.0549755673305 L 1483 466.1807111437612 L 1484 465.2933488386324 L 1485 464.3930697432119 L 1486 463.48005758480315 L 1487 462.55449868924865 L 1488 461.6165819429071 L 1489 460.6664987541036 L 1490 459.70444301406945 L 1491 458.7306110573713 L 1492 457.74520162184524 L 1493 456.7484158080372 L 1494 455.7404570381643 L 1495 454.7215310145991 L 1496 453.69184567789216 L 1497 452.65161116433376 L 1498 451.60103976307187 L 1499 450.54034587278653 L 1500 449.4697459579377 L 1501 448.38945850458765 L 1502 447.2997039758146 L 1503 446.20070476671935 L 1504 445.09268515904085 L 1505 443.97587127538344 L 1506 442.850491033072 L 1507 441.71677409763805 L 1508 440.5749518359494 L 1509 439.42525726899487 L 1510 438.26792502432795 L 1511 437.1031912881864 L 1512 435.93129375728967 L 1513 434.75247159033233 L 1514 433.5669653591748 L 1515 432.3750169997503 L 1516 431.1768697626885 L 1517 429.9727681636758 L 1518 428.76295793355274 L 1519 427.54768596816785 L 1520 426.32720027798945 L 1521 425.10174993749445 L 1522 423.87158503433517 L 1523 422.63695661830457 L 1524 421.3981166500998 L 1525 420.155317949905 L 1526 418.90881414579394 L 1527 417.65885962197245 L 1528 416.40570946686154 L 1529 415.149619421042 L 1530 413.8908458250611 L 1531 412.62964556712103 L 1532 411.3662760306517 L 1533 410.10099504178646 L 1534 408.8340608167432 L 1535 407.5657319091305 L 1536 406.29626715717984 L 1537 405.025925630925 L 1538 403.754966579329 L 1539 402.48364937737966" stroke-linecap="round" stroke-linejoin="round" stroke-miterlimit="10" stroke-width="40"/></g></svg>