<svg version="1.1" xmlns="http://www.w3.org/2000/svg" xmlns:xlink="http://www.w3.org/1999/xlink" width="1560" height="804"><defs/><g><path fill="none" stroke="#02063B" paint-order="fill stroke markers" d=" M 20 403.4335427542752 L 21 403.5049056950186 L 22 403.5762226999887 L 23 403.6474915923038 L 24 403.7187101965508 L 25 403.78987633885134 L 26 403.8609878469287 L 27 403.9320425501738 L 28 404.0030382797111 L 29 404.0739728684658 L 30 404.1448441512287 L 31 404.21564996472347 L 32 404.28638814767186 L 33 404.3570565408601 L 34 404.42765298720474 L 35 404.49817533181823 L 36 404.5686214220751 L 37 404.63898910767745 L 38 404.7092762407205 L 39 404.7794806757583 L 40 404.84960026986926 L 41 404.9196328827213 L 42 404.98957637663756 L 43 405.0594286166613 L 44 405.12918747062133 L 45 405.19885080919687 L 46 405.26841650598266 L 47 405.337882437554 L 48 405.40724648353125 L 49 405.47650652664487 L 50 405.5456604527998 L 51 405.61470615114007 L 52 405.68364151411345 L 53 405.7524644375354 L 54 405.8211728206536 L 55 405.8897645662118 L 56 405.9582375805142 L 57 406.0265897734891 L 58 406.0948190587526 L 59 406.1629233536726 L 60 406.2309005794322 L 61 406.29874866109316 L 62 406.3664655276591 L 63 406.434049112139 L 64 406.50149735161006 L 65 406.56880818728087 L 66 406.635979564554 L 67 406.703009433089 L 68 406.7698957468646 L 69 406.8366364642417 L 70 406.9032295480251 L 71 406.9696729655261 L 72 407.0359646886246 L 73 407.10210269383043 L 74 407.1680849623458 L 75 407.2339094801266 L 76 407.29957423794383 L 77 407.36507723144507 L 78 407.43041646121543 L 79 407.49558993283904 L 80 407.5605956569594 L 81 407.6254316493404 L 82 407.6900959309268 L 83 407.7545865279048 L 84 407.81890147176205 L 85 407.88303879934773 L 86 407.94699655293283 L 87 408.01077278026946 L 88 408.0743655346507 L 89 408.13777287497004 L 90 408.2009928657804 L 91 408.2640235773535 L 92 408.3268630857385 L 93 408.38950947282103 L 94 408.45196082638137 L 95 408.5142152401531 L 96 408.5762708138812 L 97 408.6381256533799 L 98 408.699777870591 L 99 408.76122558364074 L 100 408.8224669168979 L 101 408.88350000103065 L 102 408.94432297306395 L 103 409.00493397643606 L 104 409.06533116105544 L 105 409.12551268335716 L 106 409.18547670635917 L 107 409.2452213997183 L 108 409.30474493978636 L 109 409.36404550966546 L 110 409.4231212992638 L 111 409.4819705053508 L 112 409.54059133161195 L 113 409.5989819887039 L 114 409.6571406943091 L 115 409.7150656731899 L 116 409.772755157243 L 117 409.8302073855535 L 118 409.88742060444827 L 119 409.9443930675498 L 120 410.0011230358295 L 121 410.0576087776605 L 122 410.11384856887094 L 123 410.1698406927962 L 124 410.2255834403315 L 125 410.28107510998404 L 126 410.3363140079249 L 127 410.3912984480408 L 128 410.4460267519856 L 129 410.5004972492313 L 130 410.5547082771193 L 131 410.6086581809111 L 132 410.66234531383867 L 133 410.71576803715476 L 134 410.7689247201832 L 135 410.8218137403681 L 136 410.87443348332397 L 137 410.9267823428846 L 138 410.97885872115245 L 139 411.0306610285469 L 140 411.08218768385325 L 141 411.13343711427086 L 142 411.18440775546094 L 143 411.2350980515946 L 144 411.2855064554002 L 145 411.33563142821055 L 146 411.38547144000984 L 147 411.4350249694806 L 148 411.48429050404974 L 149 411.53326653993514 L 150 411.5819515821912 L 151 411.63034414475476 L 152 411.67844275049003 L 153 411.7262459312343 L 154 411.7737522278422 L 155 411.82096019023055 L 156 411.8678683774225 L 157 411.9144753575916 L 158 411.96077970810535 L 159 412.0067800155688 L 160 412.0524748758676 L 161 412.0978628942108 L 162 412.14294268517364 L 163 412.1877128727396 L 164 412.2321720903426 L 165 412.27631898090846 L 166 412.3201521968965 L 167 412.3636704003409 L 168 412.40687226289094 L 169 412.4497564658521 L 170 412.49232170022606 L 171 412.5345666667507 L 172 412.57649007593983 L 173 412.6180906481223 L 174 412.6593671134815 L 175 412.70031821209363 L 176 412.74094269396653 L 177 412.7812393190777 L 178 412.821206857412 L 179 412.86084408899956 L 180 412.90014980395256 L 181 412.93912280250265 L 182 412.97776189503713 L 183 413.01606590213555 L 184 413.0540336546055 L 185 413.0916639935187 L 186 413.1289557702457 L 187 413.16590784649156 L 188 413.20251909433034 L 189 413.2387883962396 L 190 413.27471464513434 L 191 413.31029674440094 L 192 413.34553360793075 L 193 413.3804241601529 L 194 413.41496733606755 L 195 413.44916208127796 L 196 413.48300735202304 L 197 413.51650211520905 L 198 413.5496453484411 L 199 413.5824360400545 L 200 413.61487318914544 L 201 413.6469558056017 L 202 413.6786829101328 L 203 413.7100535343 L 204 413.74106672054563 L 205 413.77172152222255 L 206 413.80201700362295 L 207 413.8319522400069 L 208 413.86152631763065 L 209 413.89073833377444 L 210 413.91958739677005 L 211 413.9480726260281 L 212 413.97619315206475 L 213 414.00394811652853 L 214 414.03133667222636 L 215 414.05835798314934 L 216 414.08501122449843 L 217 414.1112955827095 L 218 414.1372102554783 L 219 414.16275445178474 L 220 414.18792739191724 L 221 414.2127283074965 L 222 414.23715644149877 L 223 414.2612110482793 L 224 414.2848913935946 L 225 414.30819675462544 L 226 414.3311264199984 L 227 414.3536796898079 L 228 414.37585587563757 L 229 414.3976543005809 L 230 414.4190742992624 L 231 414.44011521785745 L 232 414.4607764141128 L 233 414.4810572573655 L 234 414.50095712856273 L 235 414.5204754202804 L 236 414.53961153674175 L 237 414.5583648938355 L 238 414.5767349191339 L 239 414.59472105190986 L 240 414.61232274315427 L 241 414.6295394555927 L 242 414.6463706637019 L 243 414.6628158537257 L 244 414.6788745236908 L 245 414.694546183422 L 246 414.7098303545572 L 247 414.7247265705621 L 248 414.73923437674426 L 249 414.7533533302671 L 250 414.7670830001633 L 251 414.7804229673483 L 252 414.79337282463246 L 253 414.80593217673425 L 254 414.81810064029156 L 255 414.8298778438741 L 256 414.8412634279942 L 257 414.85225704511805 L 258 414.8628583596763 L 259 414.8730670480741 L 260 414.8828827987013 L 261 414.8923053119417 L 262 414.90133430018227 L 263 414.9099694878221 L 264 414.9182106112804 L 265 414.926057419005 L 266 414.9335096714798 L 267 414.94056714123207 L 268 414.94722961283946 L 269 414.9534968829365 L 270 414.959368760221 L 271 414.9648450654596 L 272 414.96992563149337 L 273 414.97461030324314 L 274 414.9788989377138 L 275 414.982791403999 L 276 414.98628758328505 L 277 414.9893873688544 L 278 414.99209066608927 L 279 414.9943973924741 L 280 414.9963074775983 L 281 414.9978208631584 L 282 414.9989375029598 L 283 414.99965736291813 L 284 414.9999804210604 L 285 414.99990666752564 L 286 414.99943610456495 L 287 414.99856874654193 L 288 414.9973046199318 L 289 414.9956437633208 L 290 414.9935862274049 L 291 414.9911320749884 L 292 414.98828138098196 L 293 414.9850342324001 L 294 414.981390728359 L 295 414.9773509800729 L 296 414.97291511085126 L 297 414.96808325609464 L 298 414.96285556329065 L 299 414.95723219200954 L 300 414.95121331389913 L 301 414.94479911267985 L 302 414.9379897841389 L 303 414.9307855361244 L 304 414.9231865885389 L 305 414.91519317333285 L 306 414.90680553449744 L 307 414.89802392805717 L 308 414.88884862206197 L 309 414.879279896579 L 310 414.86931804368436 L 311 414.8589633674537 L 312 414.8482161839535 L 313 414.83707682123105 L 314 414.82554561930436 L 315 414.8136229301522 L 316 414.8013091177029 L 317 414.78860455782353 L 318 414.77550963830845 L 319 414.76202475886714 L 320 414.7481503311124 L 321 414.73388677854757 L 322 414.7192345365536 L 323 414.70419405237584 L 324 414.6887657851104 L 325 414.6729502056899 L 326 414.6567477968696 L 327 414.640159053212 L 328 414.62318448107237 L 329 414.6058245985829 L 330 414.5880799356369 L 331 414.56995103387305 L 332 414.55143844665815 L 333 414.53254273907083 L 334 414.51326448788416 L 335 414.4936042815478 L 336 414.47356272017026 L 337 414.45314041550074 L 338 414.43233799090996 L 339 414.4111560813716 L 340 414.3895953334428 L 341 414.36765640524413 L 342 414.34533996644006 L 343 414.3226466982179 L 344 414.2995772932676 L 345 414.27613245576 L 346 414.2523129013259 L 347 414.2281193570339 L 348 414.2035525613682 L 349 414.17861326420626 L 350 414.1533022267957 L 351 414.1276202217311 L 352 414.1015680329306 L 353 414.0751464556116 L 354 414.0483562962671 L 355 414.02119837264047 L 356 413.99367351370057 L 357 413.9657825596169 L 358 413.93752636173355 L 359 413.90890578254323 L 360 413.87992169566115 L 361 413.8505749857981 L 362 413.8208665487339 L 363 413.79079729128927 L 364 413.76036813129895 L 365 413.72957999758324 L 366 413.69843382991985 L 367 413.666930579015 L 368 413.6350712064746 L 369 413.6028566847748 L 370 413.57028799723236 L 371 413.53736613797463 L 372 413.504092111909 L 373 413.4704669346927 L 374 413.4364916327013 L 375 413.40216724299756 L 376 413.36749481329997 L 377 413.3324754019505 L 378 413.29711007788234 L 379 413.2613999205874 L 380 413.22534602008335 L 381 413.1889494768801 L 382 413.15221140194666 L 383 413.11513291667666 L 384 413.0777151528546 L 385 413.03995925262114 L 386 413.00186636843813 L 387 412.9634376630536 L 388 412.9246743094661 L 389 412.8855774908892 L 390 412.84614840071487 L 391 412.80638824247757 L 392 412.7662982298172 L 393 412.72587958644215 L 394 412.6851335460919 L 395 412.64406135249953 L 396 412.60266425935345 L 397 412.56094353025946 L 398 412.518900438702 L 399 412.47653626800525 L 400 412.43385231129406 L 401 412.3908498714544 L 402 412.3475302610937 L 403 412.3038948025006 L 404 412.25994482760484 L 405 412.21568167793635 L 406 412.1711067045844 L 407 412.1262212681565 L 408 412.08102673873657 L 409 412.03552449584345 L 410 411.98971592838853 L 411 411.94360243463353 L 412 411.8971854221477 L 413 411.85046630776486 L 414 411.80344651754024 L 415 411.756127486707 L 416 411.70851065963217 L 417 411.6605974897728 L 418 411.61238943963144 L 419 411.56388798071174 L 420 411.51509459347324 L 421 411.4660107672862 L 422 411.4166380003865 L 423 411.3669777998295 L 424 411.3170316814442 L 425 411.2668011697869 L 426 411.2162877980949 L 427 411.1654931082394 L 428 411.11441865067854 L 429 411.06306598441023 L 430 411.01143667692423 L 431 410.95953230415466 L 432 410.90735445043174 L 433 410.8549047084333 L 434 410.8021846791365 L 435 410.7491959717684 L 436 410.6959402037577 L 437 410.64241900068436 L 438 410.58863399623084 L 439 410.5345868321317 L 440 410.4802791581237 L 441 410.4257126318956 L 442 410.37088891903693 L 443 410.31580969298807 L 444 410.2604766349884 L 445 410.20489143402534 L 446 410.14905578678275 L 447 410.0929713975891 L 448 410.03663997836554 L 449 409.9800632485734 L 450 409.923242935162 L 451 409.86618077251586 L 452 409.80887850240157 L 453 409.75133787391485 L 454 409.693560643427 L 455 409.6355485745316 L 456 409.57730343799005 L 457 409.5188270116783 L 458 409.4601210805319 L 459 409.401187436492 L 460 409.3420278784504 L 461 409.28264421219467 L 462 409.2230382503531 L 463 409.16321181233934 L 464 409.10316672429684 L 465 409.04290481904314 L 466 408.98242793601395 L 467 408.92173792120684 L 468 408.86083662712514 L 469 408.79972591272127 L 470 408.73840764333994 L 471 408.67688369066127 L 472 408.61515593264375 L 473 408.55322625346673 L 474 408.4910965434731 L 475 408.4287686991114 L 476 408.366244622878 L 477 408.30352622325927 L 478 408.2406154146729 L 479 408.1775141174097 L 480 408.114224257575 L 481 408.0507477670299 L 482 407.9870865833321 L 483 407.92324264967687 L 484 407.8592179148378 L 485 407.79501433310736 L 486 407.7306338642369 L 487 407.6660784733773 L 488 407.6013501310186 L 489 407.5364508129301 L 490 407.47138250010005 L 491 407.4061471786749 L 492 407.34074683989905 L 493 407.2751834800538 L 494 407.20945910039654 L 495 407.14357570709956 L 496 407.077535311189 L 497 407.0113399284833 L 498 406.9449915795318 L 499 406.87849228955275 L 500 406.81184408837197 L 501 406.74504901036056 L 502 406.67810909437287 L 503 406.61102638368436 L 504 406.543802925929 L 505 406.47644077303715 L 506 406.4089419811726 L 507 406.3413086106697 L 508 406.27354272597114 L 509 406.2056463955641 L 510 406.13762169191756 L 511 406.06947069141904 L 512 406.0011954743112 L 513 405.9327981246281 L 514 405.86428073013195 L 515 405.7956453822491 L 516 405.72689417600645 L 517 405.6580292099672 L 518 405.589052586167 L 519 405.51996641004985 L 520 405.45077279040356 L 521 405.3814738392957 L 522 405.312071672009 L 523 405.24256840697655 L 524 405.17296616571747 L 525 405.10326707277216 L 526 405.0334732556371 L 527 404.9635868447003 L 528 404.89360997317596 L 529 404.82354477703973 L 530 404.753393394963 L 531 404.6831579682481 L 532 404.6128406407627 L 533 404.54244355887437 L 534 404.4719688713851 L 535 404.4014187294658 L 536 404.33079528659044 L 537 404.26010069847047 L 538 404.189337122989 L 539 404.118506720135 L 540 404.047611651937 L 541 403.9766540823978 L 542 403.9056361774275 L 543 403.8345601047783 L 544 403.7634280339777 L 545 403.69224213626245 L 546 403.62100458451255 L 547 403.5497175531844 L 548 403.47838321824497 L 549 403.4070037571049 L 550 403.3355813485524 L 551 403.26411817268666 L 552 403.19261641085103 L 553 403.12107824556693 L 554 403.04950586046675 L 555 402.97790144022747 L 556 402.906267170504 L 557 402.83460523786226 L 558 402.7629178297126 L 559 402.691207134243 L 560 402.6194753403522 L 561 402.54772463758303 L 562 402.47595721605546 L 563 402.40417526639976 L 564 402.3323809796897 L 565 402.26057654737554 L 566 402.18876416121736 L 567 402.11694601321796 L 568 402.045124295556 L 569 401.9733012005191 L 570 401.90147892043683 L 571 401.8296596476141 L 572 401.75784557426397 L 573 401.6860388924406 L 574 401.61424179397267 L 575 401.5424564703964 L 576 401.47068511288853 L 577 401.3989299121994 L 578 401.3271930585864 L 579 401.25547674174663 L 580 401.18378315075057 L 581 401.1121144739748 L 582 401.0404728990357 L 583 400.96886061272204 L 584 400.89727980092886 L 585 400.8257326485903 L 586 400.75422133961325 L 587 400.6827480568103 L 588 400.6113149818335 L 589 400.5399242951076 L 590 400.4685781757633 L 591 400.39727880157113 L 592 400.32602834887473 L 593 400.2548289925244 L 594 400.18368290581077 L 595 400.11259226039846 L 596 400.0415592262599 L 597 399.97058597160895 L 598 399.8996746628346 L 599 399.82882746443534 L 600 399.7580465389524 L 601 399.68733404690425 L 602 399.61669214672054 L 603 399.54612299467607 L 604 399.4756287448252 L 605 399.4052115489359 L 606 399.3348735564241 L 607 399.2646169142882 L 608 399.19444376704337 L 609 399.1243562566563 L 610 399.0543565224796 L 611 398.9844467011867 L 612 398.9146289267064 L 613 398.8449053301579 L 614 398.77527803978586 L 615 398.70574918089505 L 616 398.6363208757858 L 617 398.56699524368935 L 618 398.49777440070255 L 619 398.428660459724 L 620 398.359655530389 L 621 398.2907617190055 L 622 398.2219811284897 L 623 398.15331585830177 L 624 398.0847680043819 L 625 398.01633965908616 L 626 397.9480329111229 L 627 397.87984984548865 L 628 397.8117925434048 L 629 397.7438630822538 L 630 397.6760635355161 L 631 397.60839597270643 L 632 397.54086245931086 L 633 397.47346505672385 L 634 397.4062058221851 L 635 397.33908680871684 L 636 397.2721100650614 L 637 397.20527763561824 L 638 397.1385915603818 L 639 397.0720538748794 L 640 397.0056666101086 L 641 396.9394317924757 L 642 396.8733514437338 L 643 396.8074275809207 L 644 396.7416622162979 L 645 396.67605735728876 L 646 396.6106150064173 L 647 396.5453371612473 L 648 396.48022581432105 L 649 396.41528295309865 L 650 396.3505105598975 L 651 396.28591061183135 L 652 396.2214850807504 L 653 396.157235933181 L 654 396.0931651302655 L 655 396.0292746277023 L 656 395.96556637568665 L 657 395.90204231885036 L 658 395.8387043962033 L 659 395.7755545410734 L 660 395.7125946810482 L 661 395.6498267379159 L 662 395.58725262760635 L 663 395.5248742601332 L 664 395.46269353953494 L 665 395.4007123638172 L 666 395.33893262489477 L 667 395.27735620853366 L 668 395.2159849942937 L 669 395.1548208554711 L 670 395.0938656590414 L 671 395.0331212656023 L 672 394.97258952931685 L 673 394.91227229785716 L 674 394.8521714123476 L 675 394.79228870730896 L 676 394.73262601060213 L 677 394.6731851433725 L 678 394.61396791999437 L 679 394.55497614801556 L 680 394.4962116281021 L 681 394.43767615398355 L 682 394.3793715123979 L 683 394.3212994830372 L 684 394.26346183849336 L 685 394.2058603442038 L 686 394.14849675839787 L 687 394.09137283204285 L 688 394.03449030879057 L 689 393.97785092492444 L 690 393.92145640930624 L 691 393.8653084833233 L 692 393.80940886083613 L 693 393.75375924812596 L 694 393.69836134384275 L 695 393.6432168389534 L 696 393.58832741668976 L 697 393.53369475249787 L 698 393.4793205139863 L 699 393.42520636087534 L 700 393.3713539449467 L 701 393.31776490999255 L 702 393.2644408917658 L 703 393.21138351792985 L 704 393.15859440800915 L 705 393.10607517333955 L 706 393.05382741701936 L 707 393.0018527338601 L 708 392.95015271033816 L 709 392.89872892454616 L 710 392.84758294614477 L 711 392.79671633631494 L 712 392.7461306477102 L 713 392.69582742440906 L 714 392.6458082018683 L 715 392.59607450687565 L 716 392.5466278575035 L 717 392.4974697630623 L 718 392.448601724055 L 719 392.4000252321305 L 720 392.35174177003864 L 721 392.3037528115849 L 722 392.2560598215852 L 723 392.2086642558215 L 724 392.16156756099696 L 725 392.11477117469207 L 726 392.06827652532075 L 727 392.02208503208664 L 728 391.9761981049399 L 729 391.93061714453404 L 730 391.88534354218325 L 731 391.8403786798199 L 732 391.79572392995243 L 733 391.7513806556234 L 734 391.7073502103678 L 735 391.66363393817187 L 736 391.62023317343204 L 737 391.57714924091425 L 738 391.5343834557132 L 739 391.4919371232128 L 740 391.44981153904564 L 741 391.40800798905406 L 742 391.36652774925045 L 743 391.32537208577855 L 744 391.2845422548747 L 745 391.2440395028294 L 746 391.20386506594974 L 747 391.1640201705209 L 748 391.12450603276943 L 749 391.0853238588256 L 750 391.04647484468694 L 751 391.0079601761816 L 752 390.9697810289322 L 753 390.93193856831965 L 754 390.8944339494482 L 755 390.85726831710963 L 756 390.82044280574837 L 757 390.78395853942715 L 758 390.7478166317925 L 759 390.7120181860408 L 760 390.6765642948845 L 761 390.64145604051896 L 762 390.6066944945893 L 763 390.57228071815763 L 764 390.5382157616708 L 765 390.50450066492834 L 766 390.4711364570505 L 767 390.4381241564471 L 768 390.40546477078624 L 769 390.3731592969637 L 770 390.3412087210726 L 771 390.30961401837277 L 772 390.2783761532617 L 773 390.24749607924474 L 774 390.2169747389057 L 775 390.18681306387884 L 776 390.15701197481957 L 777 390.1275723813771 L 778 390.0984951821662 L 779 390.0697812647398 L 780 390.04143150556223 L 781 390.01344676998207 L 782 389.98582791220605 L 783 389.95857577527266 L 784 389.93169119102686 L 785 389.9051749800941 L 786 389.8790279518559 L 787 389.85325090442467 L 788 389.82784462461944 L 789 389.8028098879422 L 790 389.77814745855363 L 791 389.7538580892504 L 792 389.72994252144156 L 793 389.70640148512655 L 794 389.6832356988724 L 795 389.66044586979206 L 796 389.63803269352275 L 797 389.6159968542047 L 798 389.59433902446045 L 799 389.573059865374 L 800 389.55216002647074 L 801 389.53164014569796 L 802 389.5115008494048 L 803 389.4917427523237 L 804 389.4723664575511 L 805 389.45337255652953 L 806 389.4347616290292 L 807 389.4165342431304 L 808 389.39869095520635 L 809 389.38123230990584 L 810 389.36415884013695 L 811 389.34747106705066 L 812 389.33116950002494 L 813 389.3152546366491 L 814 389.2997269627088 L 815 389.2845869521711 L 816 389.26983506716994 L 817 389.2554717579922 L 818 389.2414974630639 L 819 389.22791260893666 L 820 389.2147176102748 L 821 389.20191286984283 L 822 389.18949877849286 L 823 389.1774757151529 L 824 389.1658440468152 L 825 389.154604128525 L 826 389.1437563033699 L 827 389.13330090246905 L 828 389.1232382449634 L 829 389.11356863800563 L 830 389.10429237675106 L 831 389.09540974434856 L 832 389.0869210119317 L 833 389.07882643861075 L 834 389.07112627146466 L 835 389.06382074553346 L 836 389.0569100838112 L 837 389.0503944972391 L 838 389.044274184699 L 839 389.0385493330075 L 840 389.03322011691006 L 841 389.0282866990758 L 842 389.02374923009245 L 843 389.0196078484618 L 844 389.01586268059555 L 845 389.0125138408112 L 846 389.00956143132885 L 847 389.00700554226785 L 848 389.00484625164427 L 849 389.00308362536833 L 850 389.0017177172425 L 851 389.00074856895975 L 852 389.0001762101024 L 853 389.00000065814106 L 854 389.0002219184344 L 855 389.0008399842286 L 856 389.00185483665786 L 857 389.0032664447448 L 858 389.0050747654014 L 859 389.00727974343044 L 860 389.00988131152724 L 861 389.01287939028134 L 862 389.0162738881794 L 863 389.02006470160774 L 864 389.0242517148553 L 865 389.02883480011786 L 866 389.033813817501 L 867 389.03918861502524 L 868 389.0449590286301 L 869 389.0511248821793 L 870 389.0576859874663 L 871 389.06464214421965 L 872 389.0719931401096 L 873 389.07973875075413 L 874 389.0878787397261 L 875 389.09641285856026 L 876 389.105340846761 L 877 389.11466243181025 L 878 389.12437732917573 L 879 389.13448524231967 L 880 389.144985862708 L 881 389.1558788698195 L 882 389.1671639311558 L 883 389.17884070225153 L 884 389.19090882668456 L 885 389.2033679360872 L 886 389.2162176501575 L 887 389.2294575766703 L 888 389.24308731148994 L 889 389.25710643858207 L 890 389.2715145300266 L 891 389.2863111460305 L 892 389.30149583494176 L 893 389.31706813326247 L 894 389.33302756566354 L 895 389.3493736449988 L 896 389.36610587232036 L 897 389.38322373689317 L 898 389.4007267162113 L 899 389.41861427601344 L 900 389.43688587029925 L 901 389.45554094134627 L 902 389.47457891972664 L 903 389.4939992243248 L 904 389.51380126235495 L 905 389.5339844293792 L 906 389.55454810932616 L 907 389.5754916745097 L 908 389.5968144856478 L 909 389.6185158918828 L 910 389.6405952308003 L 911 389.66305182845014 L 912 389.68588499936675 L 913 389.7090940465898 L 914 389.732678261686 L 915 389.7566369247701 L 916 389.78096930452745 L 917 389.805674658236 L 918 389.83075223178895 L 919 389.856201259718 L 920 389.8820209652163 L 921 389.9082105601629 L 922 389.9347692451458 L 923 389.9616962094873 L 924 389.988990631268 L 925 390.01665167735257 L 926 390.04467850341456 L 927 390.0730702539626 L 928 390.10182606236623 L 929 390.13094505088253 L 930 390.160426330683 L 931 390.1902690018803 L 932 390.22047215355616 L 933 390.25103486378896 L 934 390.2819561996819 L 935 390.31323521739137 L 936 390.34487096215605 L 937 390.3768624683258 L 938 390.40920875939116 L 939 390.4419088480133 L 940 390.47496173605407 L 941 390.5083664146063 L 942 390.542121864025 L 943 390.576227053958 L 944 390.6106809433778 L 945 390.6454824806133 L 946 390.6806306033814 L 947 390.7161242388202 L 948 390.75196230352117 L 949 390.7881437035625 L 950 390.8246673345424 L 951 390.8615320816127 L 952 390.89873681951315 L 953 390.9362804126055 L 954 390.9741617149084 L 955 391.01237957013205 L 956 391.05093281171395 L 957 391.08982026285406 L 958 391.129040736551 L 959 391.1685930356383 L 960 391.2084759528206 L 961 391.248688270711 L 962 391.2892287618679 L 963 391.33009618883233 L 964 391.37128930416617 L 965 391.41280685048997 L 966 391.45464756052115 L 967 391.4968101571131 L 968 391.5392933532937 L 969 391.5820958523051 L 970 391.62521634764283 L 971 391.668653523096 L 972 391.7124060527874 L 973 391.75647260121383 L 974 391.8008518232871 L 975 391.8455423643748 L 976 391.89054286034195 L 977 391.9358519375925 L 978 391.98146821311116 L 979 392.02739029450584 L 980 392.0736167800499 L 981 392.12014625872513 L 982 392.16697731026477 L 983 392.21410850519675 L 984 392.2615384048876 L 985 392.3092655615859 L 986 392.357288518467 L 987 392.4056058096771 L 988 392.4542159603783 L 989 392.50311748679326 L 990 392.5523088962507 L 991 392.6017886872311 L 992 392.65155534941215 L 993 392.70160736371525 L 994 392.75194320235175 L 995 392.8025613288694 L 996 392.85346019819934 L 997 392.9046382567035 L 998 392.95609394222174 L 999 393.0078256841196 L 1000 393.0598319033363 L 1001 393.11211101243293 L 1002 393.16466141564086 L 1003 393.21748150891045 L 1004 393.27056967996003 L 1005 393.32392430832516 L 1006 393.37754376540806 L 1007 393.4314264145273 L 1008 393.4855706109677 L 1009 393.5399747020308 L 1010 393.5946370270848 L 1011 393.6495559176158 L 1012 393.7047296972785 L 1013 393.7601566819472 L 1014 393.8158351797675 L 1015 393.8717634912076 L 1016 393.9279399091108 L 1017 393.98436271874675 L 1018 394.0410301978645 L 1019 394.0979406167446 L 1020 394.1550922382524 L 1021 394.2124833178904 L 1022 394.2701121038523 L 1023 394.3279768370756 L 1024 394.38607575129606 L 1025 394.4444070731012 L 1026 394.50296902198454 L 1027 394.5617598103999 L 1028 394.620777643816 L 1029 394.68002072077115 L 1030 394.7394872329286 L 1031 394.79917536513113 L 1032 394.859083295457 L 1033 394.9192091952753 L 1034 394.97955122930176 L 1035 395.04010755565486 L 1036 395.100876325912 L 1037 395.16185568516596 L 1038 395.22304377208144 L 1039 395.2844387189521 L 1040 395.3460386517572 L 1041 395.40784169021913 L 1042 395.4698459478606 L 1043 395.5320495320624 L 1044 395.5944505441209 L 1045 395.6570470793064 L 1046 395.71983722692084 L 1047 395.78281907035654 L 1048 395.8459906871543 L 1049 395.9093501490624 L 1050 395.97289552209526 L 1051 396.03662486659255 L 1052 396.10053623727845 L 1053 396.1646276833209 L 1054 396.22889724839126 L 1055 396.293342970724 L 1056 396.35796288317647 L 1057 396.42275501328913 L 1058 396.4877173833456 L 1059 396.5528480104332 L 1060 396.61814490650323 L 1061 396.68360607843186 L 1062 396.7492295280809 L 1063 396.81501325235877 L 1064 396.88095524328173 L 1065 396.947053488035 L 1066 397.0133059690344 L 1067 397.0797106639877 L 1068 397.1462655459568 L 1069 397.2129685834189 L 1070 397.2798177403291 L 1071 397.3468109761823 L 1072 397.41394624607574 L 1073 397.4812215007708 L 1074 397.5486346867562 L 1075 397.6161837463106 L 1076 397.6838666175649 L 1077 397.7516812345658 L 1078 397.8196255273385 L 1079 397.8876974219499 L 1080 397.9558948405721 L 1081 398.0242157015457 L 1082 398.0926579194432 L 1083 398.16121940513295 L 1084 398.2298980658427 L 1085 398.29869180522354 L 1086 398.36759852341396 L 1087 398.4366161171038 L 1088 398.5057424795986 L 1089 398.5749755008838 L 1090 398.6443130676892 L 1091 398.7137530635534 L 1092 398.78329336888856 L 1093 398.8529318610449 L 1094 398.9226664143756 L 1095 398.9924949003017 L 1096 399.0624151873771 L 1097 399.13242514135334 L 1098 399.20252262524514 L 1099 399.27270549939544 L 1100 399.34297162154076 L 1101 399.41331884687645 L 1102 399.4837450281223 L 1103 399.5542480155881 L 1104 399.62482565723917 L 1105 399.695475798762 L 1106 399.76619628363034 L 1107 399.8369849531705 L 1108 399.9078396466276 L 1109 399.9787582012316 L 1110 400.04973845226294 L 1111 400.12077823311904 L 1112 400.19187537538005 L 1113 400.26302770887526 L 1114 400.33423306174944 L 1115 400.40548926052884 L 1116 400.4767941301877 L 1117 400.5481454942148 L 1118 400.61954117467945 L 1119 400.6909789922985 L 1120 400.7624567665024 L 1121 400.83397231550214 L 1122 400.9055234563556 L 1123 400.97710800503415 L 1124 401.04872377648957 L 1125 401.12036858472055 L 1126 401.1920402428395 L 1127 401.26373656313905 L 1128 401.3354553571594 L 1129 401.40719443575443 L 1130 401.478951609159 L 1131 401.5507246870557 L 1132 401.62251147864157 L 1133 401.694309792695 L 1134 401.7661174376428 L 1135 401.83793222162683 L 1136 401.90975195257124 L 1137 401.98157443824886 L 1138 402.0533974863488 L 1139 402.1252189045427 L 1140 402.1970365005521 L 1141 402.2688480822152 L 1142 402.34065145755375 L 1143 402.41244443484004 L 1144 402.4842248226637 L 1145 402.5559904299986 L 1146 402.62773906626984 L 1147 402.69946854142063 L 1148 402.7711766659788 L 1149 402.8428612511242 L 1150 402.9145201087549 L 1151 402.9861510515545 L 1152 403.05775189305854 L 1153 403.12932044772145 L 1154 403.2008545309832 L 1155 403.2723519593358 L 1156 403.34381055039034 L 1157 403.41522812294323 L 1158 403.48660249704295 L 1159 403.55793149405673 L 1160 403.62921293673656 L 1161 403.70044464928634 L 1162 403.7716244574277 L 1163 403.84275018846665 L 1164 403.91381967136 L 1165 403.98483073678113 L 1166 404.055781217187 L 1167 404.1266689468835 L 1168 404.19749176209217 L 1169 404.2682475010158 L 1170 404.3389340039048 L 1171 404.40954911312286 L 1172 404.4800906732128 L 1173 404.5505565309627 L 1174 404.62094453547115 L 1175 404.6912525382132 L 1176 404.76147839310585 L 1177 404.8316199565737 L 1178 404.90167508761414 L 1179 404.9716416478629 L 1180 405.0415175016592 L 1181 405.11130051611104 L 1182 405.1809885611601 L 1183 405.2505795096472 L 1184 405.32007123737657 L 1185 405.3894616231814 L 1186 405.4587485489879 L 1187 405.5279298998807 L 1188 405.59700356416664 L 1189 405.6659674334398 L 1190 405.73481940264554 L 1191 405.80355737014486 L 1192 405.8721792377787 L 1193 405.9406829109316 L 1194 406.0090662985961 L 1195 406.0773273134362 L 1196 406.1454638718511 L 1197 406.2134738940393 L 1198 406.28135530406126 L 1199 406.34910602990345 L 1200 406.4167240035413 L 1201 406.48420716100225 L 1202 406.5515534424291 L 1203 406.6187607921425 L 1204 406.6858271587039 L 1205 406.75275049497805 L 1206 406.81952875819564 L 1207 406.8861599100156 L 1208 406.95264191658714 L 1209 407.0189727486122 L 1210 407.08515038140706 L 1211 407.15117279496417 L 1212 407.21703797401403 L 1213 407.2827439080865 L 1214 407.3482885915723 L 1215 407.4136700237841 L 1216 407.47888620901773 L 1217 407.5439351566129 L 1218 407.6088148810142 L 1219 407.6735234018315 L 1220 407.73805874390064 L 1221 407.8024189373434 L 1222 407.86660201762794 L 1223 407.9306060256285 L 1224 407.9944290076853 L 1225 408.0580690156645 L 1226 408.121524107017 L 1227 408.18479234483834 L 1228 408.2478717979274 L 1229 408.3107605408457 L 1230 408.37345665397584 L 1231 408.4359582235804 L 1232 408.4982633418602 L 1233 408.5603701070124 L 1234 408.62227662328877 L 1235 408.68398100105355 L 1236 408.745481356841 L 1237 408.80677581341297 L 1238 408.86786249981617 L 1239 408.9287395514393 L 1240 408.98940511007 L 1241 409.0498573239513 L 1242 409.1100943478387 L 1243 409.170114343056 L 1244 409.2299154775516 L 1245 409.28949592595427 L 1246 409.3488538696293 L 1247 409.40798749673354 L 1248 409.46689500227086 L 1249 409.5255745881473 L 1250 409.58402446322606 L 1251 409.6422428433818 L 1252 409.7002279515554 L 1253 409.7579780178084 L 1254 409.8154912793764 L 1255 409.8727659807234 L 1256 409.92980037359524 L 1257 409.9865927170729 L 1258 410.0431412776257 L 1259 410.09944432916416 L 1260 410.15550015309276 L 1261 410.21130703836235 L 1262 410.2668632815223 L 1263 410.32216718677284 L 1264 410.37721706601627 L 1265 410.4320112389089 L 1266 410.4865480329123 L 1267 410.54082578334425 L 1268 410.5948428334295 L 1269 410.6485975343504 L 1270 410.70208824529743 L 1271 410.755313333519 L 1272 410.80827117437127 L 1273 410.86096015136815 L 1274 410.91337865623007 L 1275 410.96552508893353 L 1276 411.0173978577597 L 1277 411.06899537934316 L 1278 411.12031607871995 L 1279 411.17135838937605 L 1280 411.2221207532948 L 1281 411.2726016210048 L 1282 411.322799451627 L 1283 411.3727127129217 L 1284 411.4223398813355 L 1285 411.4716794420477 L 1286 411.52072988901637 L 1287 411.5694897250247 L 1288 411.61795746172646 L 1289 411.66613161969144 L 1290 411.71401072845055 L 1291 411.7615933265409 L 1292 411.80887796155025 L 1293 411.8558631901614 L 1294 411.90254757819633 L 1295 411.9489297006597 L 1296 411.9950081417826 L 1297 412.04078149506574 L 1298 412.08624836332234 L 1299 412.13140735872076 L 1300 412.17625710282687 L 1301 412.22079622664614 L 1302 412.2650233706654 L 1303 412.3089371848943 L 1304 412.3525363289068 L 1305 412.39581947188157 L 1306 412.4387852926431 L 1307 412.48143247970177 L 1308 412.52375973129386 L 1309 412.5657657554216 L 1310 412.60744926989213 L 1311 412.6488090023569 L 1312 412.68984369035076 L 1313 412.73055208132985 L 1314 412.7709329327104 L 1315 412.81098501190655 L 1316 412.8507070963677 L 1317 412.8900979736162 L 1318 412.92915644128396 L 1319 412.9678813071496 L 1320 413.0062713891744 L 1321 413.0443255155387 L 1322 413.0820425246776 L 1323 413.11942126531625 L 1324 413.15646059650527 L 1325 413.1931593876552 L 1326 413.22951651857153 L 1327 413.26553087948827 L 1328 413.3012013711024 L 1329 413.33652690460707 L 1330 413.3715064017249 L 1331 413.406138794741 L 1332 413.44042302653554 L 1333 413.4743580506158 L 1334 413.5079428311485 L 1335 413.541176342991 L 1336 413.5740575717229 L 1337 413.60658551367686 L 1338 413.63875917596937 L 1339 413.67057757653083 L 1340 413.7020397441357 L 1341 413.73314471843213 L 1342 413.7638915499712 L 1343 413.79427930023604 L 1344 413.82430704167024 L 1345 413.8539738577064 L 1346 413.8832788427941 L 1347 413.9122211024272 L 1348 413.9407997531717 L 1349 413.9690139226921 L 1350 413.99686274977864 L 1351 414.0243453843731 L 1352 414.0514609875949 L 1353 414.0782087317669 L 1354 414.10458780044024 L 1355 414.1305973884198 L 1356 414.1562367017884 L 1357 414.1815049579309 L 1358 414.20640138555865 L 1359 414.23092522473263 L 1360 414.2550757268865 L 1361 414.27885215485 L 1362 414.3022537828707 L 1363 414.325279896637 L 1364 414.34792979329933 L 1365 414.3702027814917 L 1366 414.3920981813529 L 1367 414.4136153245473 L 1368 414.4347535542853 L 1369 414.455512225343 L 1370 414.4758907040823 L 1371 414.4958883684701 L 1372 414.5155046080973 L 1373 414.5347388241973 L 1374 414.55359042966455 L 1375 414.5720588490722 L 1376 414.59014351868996 L 1377 414.6078438865008 L 1378 414.62515941221847 L 1379 414.6420895673034 L 1380 414.65863383497924 L 1381 414.6747917102484 L 1382 414.6905626999075 L 1383 414.7059463225626 L 1384 414.72094210864367 L 1385 414.73554960041895 L 1386 414.7497683520091 L 1387 414.7635979294006 L 1388 414.77703791045917 L 1389 414.7900878849426 L 1390 414.8027474545131 L 1391 414.81501623274977 L 1392 414.82689384516016 L 1393 414.83837992919166 L 1394 414.849474134243 L 1395 414.8601761216743 L 1396 414.87048556481784 L 1397 414.880402148988 L 1398 414.88992557149083 L 1399 414.89905554163306 L 1400 414.90779178073143 L 1401 414.9161340221206 L 1402 414.924082011162 L 1403 414.931635505251 L 1404 414.9387942738245 L 1405 414.94555809836817 L 1406 414.95192677242284 L 1407 414.957900101591 L 1408 414.9634779035427 L 1409 414.96866000802083 L 1410 414.97344625684684 L 1411 414.9778365039252 L 1412 414.9818306152478 L 1413 414.98542846889836 L 1414 414.98862995505596 L 1415 414.9914349759983 L 1416 414.99384344610485 L 1417 414.9958552918595 L 1418 414.99747045185256 L 1419 414.9986888767829 L 1420 414.99951052945926 L 1421 414.9999353848015 L 1422 414.99996342984133 L 1423 414.99959466372275 L 1424 414.9988290977019 L 1425 414.99766675514695 L 1426 414.9961076715373 L 1427 414.99415189446245 L 1428 414.9917994836206 L 1429 414.9890505108167 L 1430 414.98590505996054 L 1431 414.98236322706396 L 1432 414.97842512023783 L 1433 414.97409085968906 L 1434 414.9693605777167 L 1435 414.96423441870803 L 1436 414.95871253913396 L 1437 414.9527951075445 L 1438 414.94648230456346 L 1439 414.93977432288295 L 1440 414.93267136725757 L 1441 414.92517365449805 L 1442 414.91728141346476 L 1443 414.9089948850607 L 1444 414.9003143222239 L 1445 414.8912399899201 L 1446 414.8817721651344 L 1447 414.871911136863 L 1448 414.861657206104 L 1449 414.85101068584856 L 1450 414.83997190107146 L 1451 414.8285411887207 L 1452 414.8167188977076 L 1453 414.80450538889596 L 1454 414.79190103509126 L 1455 414.77890622102905 L 1456 414.7655213433633 L 1457 414.75174681065425 L 1458 414.73758304335615 L 1459 414.723030473804 L 1460 414.7080895462008 L 1461 414.69276071660374 L 1462 414.67704445291037 L 1463 414.6609412348442 L 1464 414.6444515539402 L 1465 414.62757591352977 L 1466 414.6103148287253 L 1467 414.59266882640446 L 1468 414.5746384451943 L 1469 414.5562242354545 L 1470 414.53742675926077 L 1471 414.5182465903877 L 1472 414.4986843142912 L 1473 414.4787405280905 L 1474 414.4584158405503 L 1475 414.4377108720616 L 1476 414.41662625462345 L 1477 414.3951626318231 L 1478 414.3733206588166 L 1479 414.3511010023089 L 1480 414.32850434053313 L 1481 414.30553136323033 L 1482 414.2821827716282 L 1483 414.2584592784196 L 1484 414.2343616077409 L 1485 414.2098904951499 L 1486 414.18504668760346 L 1487 414.15983094343443 L 1488 414.13424403232864 L 1489 414.10828673530165 L 1490 414.08195984467443 L 1491 414.0552641640496 L 1492 414.0282005082867 L 1493 414.00076970347726 L 1494 413.9729725869198 L 1495 413.9448100070941 L 1496 413.91628282363524 L 1497 413.8873919073077 L 1498 413.85813813997834 L 1499 413.8285224145898 L 1500 413.79854563513317 L 1501 413.7682087166202 L 1502 413.7375125850557 L 1503 413.70645817740893 L 1504 413.67504644158544 L 1505 413.6432783363976 L 1506 413.61115483153577 L 1507 413.5786769075385 L 1508 413.54584555576264 L 1509 413.512661778353 L 1510 413.47912658821195 L 1511 413.44524100896837 L 1512 413.41100607494633 L 1513 413.3764228311337 L 1514 413.3414923331502 L 1515 413.306215647215 L 1516 413.27059385011455 L 1517 413.23462802916913 L 1518 413.1983192822004 L 1519 413.1616687174972 L 1520 413.1246774537822 L 1521 413.0873466201776 L 1522 413.0496773561703 L 1523 413.01167081157797 L 1524 412.9733281465131 L 1525 412.9346505313479 L 1526 412.8956391466789 L 1527 412.8562951832903 L 1528 412.8166198421181 L 1529 412.7766143342132 L 1530 412.73627988070467 L 1531 412.6956177127622 L 1532 412.6546290715586 L 1533 412.61331520823205 L 1534 412.5716773838478 L 1535 412.52971686935973 L 1536 412.4874349455714 L 1537 412.44483290309716 L 1538 412.40191204232264 L 1539 412.3586736733651" stroke-linecap="round" stroke-linejoin="round" stroke-miterlimit="10" stroke-width="18"/></g></svg>