<svg version="1.1" xmlns="http://www.w3.org/2000/svg" xmlns:xlink="http://www.w3.org/1999/xlink" width="1560" height="804"><defs/><g><path fill="none" stroke="#02063B" paint-order="fill stroke markers" d=" M 20 413.9008013154755 L 21 414.4890208830721 L 22 415.07624484018436 L 23 415.6624263739889 L 24 416.24751875476335 L 25 416.831475339611 L 26 417.4142495761798 L 27 417.99579500637304 L 28 418.57606527005305 L 29 419.15501410873696 L 30 419.7325953692844 L 31 420.3087630075769 L 32 420.8834710921881 L 33 421.4566738080457 L 34 422.02832546008386 L 35 422.5983804768855 L 36 423.16679341431563 L 37 423.7335189591439 L 38 424.298511932657 L 39 424.86172729426016 L 40 425.4231201450679 L 41 425.9826457314832 L 42 426.5402594487652 L 43 427.095916844585 L 44 427.6495736225695 L 45 428.20118564583265 L 46 428.75070894049367 L 47 429.298099699183 L 48 429.8433142845345 L 49 430.38630923266385 L 50 430.92704125663386 L 51 431.465467249905 L 52 432.00154428977186 L 53 432.535229640785 L 54 433.0664807581576 L 55 433.5952552911571 L 56 434.12151108648163 L 57 434.64520619162 L 58 435.16629885819646 L 59 435.6847475452986 L 60 436.200510922789 L 61 436.71354787460035 L 62 437.2238175020125 L 63 437.73127912691336 L 64 438.2358922950417 L 65 438.737616779212 L 66 439.23641258252115 L 67 439.73223994153733 L 68 440.2250593294696 L 69 440.71483145931916 L 70 441.201517287011 L 71 441.6850780145066 L 72 442.165475092897 L 73 442.64267022547557 L 74 443.1166253707913 L 75 443.5873027456812 L 76 444.0546648282823 L 77 444.51867436102305 L 78 444.97929435359333 L 79 445.43648808589336 L 80 445.89021911096074 L 81 446.3404512578763 L 82 446.78714863464734 L 83 447.2302756310691 L 84 447.6697969215634 L 85 448.1056774679948 L 86 448.53788252246375 L 87 448.966377630077 L 88 449.39112863169373 L 89 449.81210166664914 L 90 450.2292631754535 L 91 450.64257990246773 L 92 451.0520188985543 L 93 451.45754752370385 L 94 451.8591334496376 L 95 452.25674466238394 L 96 452.65034946483104 L 97 453.0399164792535 L 98 453.42541464981383 L 99 453.8068132450379 L 100 454.1840818602653 L 101 454.5571904200727 L 102 454.92610918067186 L 103 455.29080873228037 L 104 455.6512600014664 L 105 456.00743425346644 L 106 456.3593030944757 L 107 456.706838473912 L 108 457.0500126866517 L 109 457.3887983752385 L 110 457.723168532064 L 111 458.05309650152117 L 112 458.37855598212906 L 113 458.6995210286294 L 114 459.0159660540553 L 115 459.3278658317705 L 116 459.63519549748105 L 117 459.93793055121677 L 118 460.2360468592849 L 119 460.52952065619377 L 120 460.8183285465474 L 121 461.1024475069105 L 122 461.381854887644 L 123 461.6565284147106 L 124 461.9264461914502 L 125 462.19158670032607 L 126 462.45192880463935 L 127 462.70745175021494 L 128 462.9581351670553 L 129 463.2039590709647 L 130 463.4449038651422 L 131 463.68095034174394 L 132 463.91207968341433 L 133 464.13827346478615 L 134 464.3595136539494 L 135 464.5757826138889 L 136 464.7870631038901 L 137 464.9933382809136 L 138 465.1945917009377 L 139 465.39080732026963 L 140 465.5819694968243 L 141 465.7680629913712 L 142 465.9490729687495 L 143 466.12498499905047 L 144 466.2957850587679 L 145 466.46145953191603 L 146 466.6219952111151 L 147 466.77737929864406 L 148 466.9275994074609 L 149 467.0726435621899 L 150 467.2125002000769 L 151 467.3471581719103 L 152 467.47660674291035 L 153 467.60083559358475 L 154 467.71983482055145 L 155 467.8335949373279 L 156 467.94210687508746 L 157 468.04536198338246 L 158 468.1433520308335 L 159 468.2360692057859 L 160 468.3235061169323 L 161 468.40565579390204 L 162 468.4825116878166 L 163 468.554067671812 L 164 468.6203180415268 L 165 468.68125751555715 L 166 468.7368812358779 L 167 468.7871847682294 L 168 468.83216410247167 L 169 468.87181565290336 L 170 468.9061362585483 L 171 468.935123183407 L 172 468.9587741166747 L 173 468.97708717292625 L 174 468.9900608922656 L 175 468.9976942404427 L 176 468.99998660893567 L 177 468.99693781499957 L 178 468.9885481016808 L 179 468.9748181377977 L 180 468.9557490178873 L 181 468.93134226211805 L 182 468.9015998161687 L 183 468.86652405107304 L 184 468.82611776303105 L 185 468.78038417318584 L 186 468.72932692736697 L 187 468.6729500957998 L 188 468.61125817278094 L 189 468.54425607632015 L 190 468.47194914774786 L 191 468.39434315129006 L 192 468.311444273608 L 193 468.2232591233057 L 194 468.1297947304026 L 195 468.0310585457733 L 196 467.92705844055376 L 197 467.81780270551366 L 198 467.70330005039534 L 199 467.58355960321984 L 200 467.4585909095588 L 201 467.32840393177383 L 202 467.1930090482221 L 203 467.0524170524292 L 204 466.9066391522284 L 205 466.7556869688675 L 206 466.5995725360823 L 207 466.4383082991369 L 208 466.2719071138323 L 209 466.10038224548094 L 210 465.9237473678495 L 211 465.74201656206867 L 212 465.5552043155108 L 213 465.36332552063493 L 214 465.16639547379947 L 215 464.9644298740428 L 216 464.7574448218321 L 217 464.5454568177792 L 218 464.32848276132586 L 219 464.106539949396 L 220 463.87964607501726 L 221 463.6478192259102 L 222 463.4110778830465 L 223 463.1694409191757 L 224 462.92292759732067 L 225 462.67155756924194 L 226 462.4153508738711 L 227 462.15432793571335 L 228 461.8885095632193 L 229 461.6179169471261 L 230 461.3425716587681 L 231 461.06249564835736 L 232 460.7777112432335 L 233 460.4882411460842 L 234 460.19410843313506 L 235 459.8953365523101 L 236 459.59194932136245 L 237 459.2839709259759 L 238 458.9714259178363 L 239 458.65433921267487 L 240 458.33273608828176 L 241 458.00664218249074 L 242 457.6760834911357 L 243 457.341086365978 L 244 457.001677512606 L 245 456.6578839883059 L 246 456.3097331999049 L 247 455.95725290158634 L 248 455.6004711926771 L 249 455.2394165154077 L 250 454.87411765264466 L 251 454.5046037255962 L 252 454.13090419149074 L 253 453.75304884122835 L 254 453.37106779700616 L 255 452.98499150991677 L 256 452.5948507575211 L 257 452.2006766413943 L 258 451.8025005846469 L 259 451.4003543294195 L 260 450.9942699343523 L 261 450.5842797720297 L 262 450.17041652639915 L 263 449.7527131901662 L 264 449.33120306216375 L 265 448.90591974469794 L 266 448.4768971408692 L 267 448.04416945186966 L 268 447.60777117425664 L 269 447.1677370972024 L 270 446.72410229972127 L 271 446.2769021478726 L 272 445.82617229194193 L 273 445.3719486635987 L 274 444.9142674730319 L 275 444.4531652060635 L 276 443.9886786212396 L 277 443.52084474690054 L 278 443.04970087822846 L 279 442.57528457427463 L 280 442.0976336549651 L 281 441.6167861980857 L 282 441.1327805362468 L 283 440.64565525382693 L 284 440.1554491838975 L 285 439.66220140512655 L 286 439.1659512386639 L 287 438.6667382450062 L 288 438.1646022208431 L 289 437.6595831958853 L 290 437.15172142967276 L 291 436.6410574083655 L 292 436.12763184151623 L 293 435.61148565882496 L 294 435.092660006876 L 295 434.5711962458578 L 296 434.0471359462661 L 297 433.52052088558946 L 298 432.99139304497936 L 299 432.4597946059029 L 300 431.9257679467808 L 301 431.3893556396084 L 302 430.85060044656245 L 303 430.30954531659177 L 304 429.7662333819934 L 305 429.2207079549745 L 306 428.6730125241992 L 307 428.1231907513218 L 308 427.57128646750624 L 309 427.01734366993185 L 310 426.46140651828597 L 311 425.9035193312435 L 312 425.34372658293404 L 313 424.78207289939616 L 314 424.2186030550203 L 315 423.653361968979 L 316 423.08639470164627 L 317 422.5177464510053 L 318 421.9474625490452 L 319 421.3755884581476 L 320 420.8021697674619 L 321 420.2272521892715 L 322 419.6508815553492 L 323 419.0731038133038 L 324 418.4939650229172 L 325 417.9135113524725 L 326 417.3317890750735 L 327 416.7488445649559 L 328 416.1647242937904 L 329 415.57947482697807 L 330 414.9931428199382 L 331 414.40577501438884 L 332 413.81741823462073 L 333 413.2281193837646 L 334 412.6379254400519 L 335 412.04688345307 L 336 411.4550405400111 L 337 410.86244388191653 L 338 410.26914071991524 L 339 409.6751783514578 L 340 409.08060412654606 L 341 408.4854654439582 L 342 407.8898097474706 L 343 407.2936845220751 L 344 406.69713729019406 L 345 406.1002156078917 L 346 405.5029670610828 L 347 404.9054392617397 L 348 404.3076798440961 L 349 403.7097364608504 L 350 403.1116567793663 L 351 402.51348847787307 L 352 401.91527924166473 L 353 401.31707675929846 L 354 400.71892871879317 L 355 400.12088280382767 L 356 399.5229866899394 L 357 398.9252880407238 L 358 398.32783450403474 L 359 397.73067370818603 L 360 397.1338532581544 L 361 396.53742073178466 L 362 395.94142367599676 L 363 395.3459096029955 L 364 394.75092598648274 L 365 394.15652025787307 L 366 393.5627398025124 L 367 392.9696319559007 L 368 392.37724399991816 L 369 391.78562315905634 L 370 391.1948165966531 L 371 390.6048714111329 L 372 390.01583463225234 L 373 389.427753217351 L 374 388.84067404760754 L 375 388.2546439243032 L 376 387.6697095650901 L 377 387.08591760026763 L 378 386.5033145690645 L 379 385.9219469159292 L 380 385.34186098682716 L 381 384.7631030255463 L 382 384.18571917001043 L 383 383.60975544860116 L 384 383.0352577764889 L 385 382.46227195197184 L 386 381.8908436528258 L 387 381.32101843266236 L 388 380.75284171729726 L 389 380.1863588011296 L 390 379.62161484353055 L 391 379.0586548652437 L 392 378.49752374479544 L 393 377.93826621491826 L 394 377.3809268589837 L 395 376.8255501074488 L 396 376.27218023431413 L 397 375.7208613535941 L 398 375.1716374158003 L 399 374.62455220443803 L 400 374.0796493325155 L 401 373.5369722390676 L 402 372.99656418569253 L 403 372.45846825310326 L 404 371.92272733769306 L 405 371.38938414811605 L 406 370.8584812018822 L 407 370.3300608219683 L 408 369.8041651334436 L 409 369.2808360601119 L 410 368.76011532116934 L 411 368.24204442787874 L 412 367.72666468026006 L 413 367.21401716379836 L 414 366.70414274616826 L 415 366.19708207397616 L 416 365.69287556951986 L 417 365.19156342756617 L 418 364.6931856121466 L 419 364.19778185337157 L 420 363.705391644263 L 421 363.21605423760616 L 422 362.72980864282033 L 423 362.2466936228492 L 424 361.76674769107046 L 425 361.2900091082258 L 426 360.8165158793706 L 427 360.3463057508445 L 428 359.879416207262 L 429 359.41588446852444 L 430 358.9557474868527 L 431 358.4990419438416 L 432 358.0458042475355 L 433 357.59607052952606 L 434 357.1498766420717 L 435 356.7072581552397 L 436 356.2682503540704 L 437 355.83288823576447 L 438 355.4012065068929 L 439 354.97323958063004 L 440 354.54902157401074 L 441 354.12858630521004 L 442 353.7119672908475 L 443 353.29919774331523 L 444 352.89031056813025 L 445 352.4853383613113 L 446 352.08431340678027 L 447 351.6872676737886 L 448 351.2942328143688 L 449 350.9052401608111 L 450 350.5203207231656 L 451 350.1395051867704 L 452 349.76282390980526 L 453 349.3903069208714 L 454 349.02198391659783 L 455 348.657884259274 L 456 348.2980369745087 L 457 347.94247074891666 L 458 347.59121392783135 L 459 347.2442945130455 L 460 346.9017401605787 L 461 346.56357817847277 L 462 346.2298355246148 L 463 345.9005388045882 L 464 345.5757142695513 L 465 345.25538781414525 L 466 344.9395849744293 L 467 344.6283309258452 L 468 344.3216504812103 L 469 344.0195680887395 L 470 343.7221078300962 L 471 343.4292934184725 L 472 343.141148196699 L 473 342.8576951353838 L 474 342.5789568310812 L 475 342.30495550449064 L 476 342.0357129986849 L 477 341.77125077736923 L 478 341.5115899231698 L 479 341.25675113595355 L 480 341.0067547311776 L 481 340.76162063826973 L 482 340.5213683990401 L 483 340.2860171661228 L 484 340.05558570144944 L 485 339.8300923747532 L 486 339.60955516210464 L 487 339.39399164447855 L 488 339.1834190063524 L 489 338.9778540343364 L 490 338.7773131158355 L 491 338.5818122377427 L 492 338.3913669851648 L 493 338.20599254017975 L 494 338.0257036806268 L 495 337.8505147789279 L 496 337.6804398009422 L 497 337.51549230485284 L 498 337.35568544008584 L 499 337.20103194626193 L 500 337.0515441521811 L 501 336.90723397483964 L 502 336.76811291848 L 503 336.634192073674 L 504 336.5054821164385 L 505 336.3819933073843 L 506 336.26373549089817 L 507 336.15071809435835 L 508 336.0429501273826 L 509 335.94044018111015 L 510 335.84319642751683 L 511 335.7512266187638 L 512 335.664538086579 L 513 335.5831377416734 L 514 335.50703207318946 L 515 335.4362271481842 L 516 335.37072861114535 L 517 335.31054168354154 L 518 335.2556711634059 L 519 335.2061214249536 L 520 335.16189641823337 L 521 335.12299966881204 L 522 335.08943427749415 L 523 335.0612029200744 L 524 335.0383078471243 L 525 335.02075088381304 L 526 335.00853342976154 L 527 335.0016564589314 L 528 335.00012051954684 L 529 335.00392573405117 L 530 335.013071799097 L 531 335.02755798557064 L 532 335.0473831386497 L 533 335.0725456778956 L 534 335.1030435973795 L 535 335.1388744658421 L 536 335.1800354268874 L 537 335.22652319921065 L 538 335.2783340768598 L 539 335.33546392953065 L 540 335.39790820289664 L 541 335.4656619189717 L 542 335.5387196765069 L 543 335.6170756514212 L 544 335.7007235972657 L 545 335.7896568457218 L 546 335.88386830713245 L 547 335.9833504710674 L 548 336.0880954069223 L 549 336.1980947645504 L 550 336.3133397749284 L 551 336.43382125085583 L 552 336.55952958768694 L 553 336.69045476409656 L 554 336.8265863428793 L 555 336.96791347178106 L 556 337.11442488436444 L 557 337.26610890090694 L 558 337.4229534293321 L 559 337.584945966173 L 560 337.75207359756973 L 561 337.9243230002983 L 562 338.1016804428329 L 563 338.28413178644087 L 564 338.4716624863094 L 565 338.6642575927052 L 566 338.8619017521663 L 567 339.064579208726 L 568 339.2722738051688 L 569 339.4849689843188 L 570 339.7026477903591 L 571 339.92529287018374 L 572 340.1528864747813 L 573 340.38541046064955 L 574 340.6228462912417 L 575 340.8651750384445 L 576 341.1123773840869 L 577 341.36443362148026 L 578 341.62132365698903 L 579 341.883027011633 L 580 342.1495228227195 L 581 342.4207898455068 L 582 342.69680645489757 L 583 342.97755064716296 L 584 343.2630000416964 L 585 343.5531318827981 L 586 343.847923041489 L 587 344.1473500173547 L 588 344.4513889404183 L 589 344.76001557304426 L 590 345.0732053118697 L 591 345.3909331897662 L 592 345.7131738778303 L 593 346.0399016874021 L 594 346.3710905721139 L 595 346.7067141299658 L 596 347.0467456054311 L 597 347.3911578915889 L 598 347.73992353228476 L 599 348.09301472432026 L 600 348.4504033196687 L 601 348.81206082771934 L 602 349.17795841754855 L 603 349.5480669202183 L 604 349.92235683110135 L 605 350.3007983122334 L 606 350.68336119469166 L 607 351.070014981 L 608 351.46072884756006 L 609 351.8554716471085 L 610 352.2542119112002 L 611 352.6569178527165 L 612 353.06355736839953 L 613 353.4740980414115 L 614 353.8885071439187 L 615 354.3067516397007 L 616 354.72879818678376 L 617 355.1546131400991 L 618 355.584162554165 L 619 356.0174121857925 L 620 356.45432749681567 L 621 356.8948736568449 L 622 357.33901554604324 L 623 357.78671775792645 L 624 358.23794460218545 L 625 358.6926601075314 L 626 359.15082802456345 L 627 359.6124118286584 L 628 360.07737472288244 L 629 360.5456796409246 L 630 361.0172892500515 L 631 361.49216595408353 L 632 361.97027189639226 L 633 362.45156896291775 L 634 362.9360187852074 L 635 363.42358274347464 L 636 363.9142219696775 L 637 364.40789735061685 L 638 364.90456953105524 L 639 365.40419891685355 L 640 365.90674567812755 L 641 366.41216975242327 L 642 366.92043084791067 L 643 367.43148844659555 L 644 367.9453018075497 L 645 368.46182997015865 L 646 368.98103175738714 L 647 369.50286577906144 L 648 370.0272904351693 L 649 370.5542639191758 L 650 371.0837442213567 L 651 371.6156891321467 L 652 372.1500562455051 L 653 372.68680296229564 L 654 373.225886493683 L 655 373.76726386454357 L 656 374.3108919168916 L 657 374.8567273133194 L 658 375.40472654045243 L 659 375.9548459124181 L 660 376.5070415743282 L 661 377.061269505775 L 662 377.61748552434074 L 663 378.1756452891195 L 664 378.7357043042522 L 665 379.2976179224736 L 666 379.86134134867166 L 667 380.4268296434586 L 668 380.99403772675316 L 669 381.5629203813747 L 670 382.1334322566475 L 671 382.7055278720163 L 672 383.27916162067197 L 673 383.85428777318697 L 674 384.4308604811612 L 675 385.0088337808766 L 676 385.5881615969618 L 677 386.16879774606474 L 678 386.75069594053474 L 679 387.333809792112 L 680 387.9180928156261 L 681 388.50349843270175 L 682 389.0899799754714 L 683 389.67749069029617 L 684 390.2659837414928 L 685 390.8554122150672 L 686 391.4457291224544 L 687 392.0368874042647 L 688 392.62883993403483 L 689 393.221539521985 L 690 393.81493891878085 L 691 394.4089908193 L 692 395.00364786640347 L 693 395.59886265471016 L 694 396.19458773437697 L 695 396.7907756148808 L 696 397.3873787688044 L 697 397.98434963562573 L 698 398.58164062550884 L 699 399.1792041230981 L 700 399.7769924913137 L 701 400.37495807514955 L 702 400.97305320547224 L 703 401.5712302028207 L 704 402.1694413812078 L 705 402.7676390519214 L 706 403.36577552732643 L 707 403.96380312466584 L 708 404.5616741698625 L 709 405.15934100131943 L 710 405.7567559737191 L 711 406.3538714618222 L 712 406.95063986426385 L 713 407.5470136073484 L 714 408.14294514884193 L 715 408.7383869817624 L 716 409.333291638167 L 717 409.92761169293556 L 718 410.521299767552 L 719 411.11430853388106 L 720 411.70659071794086 L 721 412.29809910367203 L 722 412.8887865367014 L 723 413.4786059281014 L 724 414.06751025814356 L 725 414.65545258004704 L 726 415.24238602372145 L 727 415.8282637995028 L 728 416.41303920188363 L 729 416.99666561323676 L 730 417.57909650753106 L 731 418.16028545404055 L 732 418.7401861210462 L 733 419.3187522795289 L 734 419.8959378068552 L 735 420.4716966904538 L 736 421.045983031484 L 737 421.6187510484945 L 738 422.18995508107287 L 739 422.75954959348593 L 740 423.3274891783095 L 741 423.89372856004843 L 742 424.45822259874575 L 743 425.02092629358117 L 744 425.5817947864588 L 745 426.14078336558265 L 746 426.6978474690216 L 747 427.2529426882613 L 748 427.8060247717449 L 749 428.3570496284 L 750 428.90597333115426 L 751 429.452752120437 L 752 429.99734240766736 L 753 430.5397007787295 L 754 431.0797839974335 L 755 431.61754900896165 L 756 432.1529529433014 L 757 432.6859531186624 L 758 433.2165070448793 L 759 433.74457242679887 L 760 434.2701071676518 L 761 434.79306937240875 L 762 435.3134173511199 L 763 435.8311096222384 L 764 436.3461049159276 L 765 436.8583621773507 L 766 437.3678405699438 L 767 437.8744994786711 L 768 438.378298513263 L 769 438.87919751143573 L 770 439.37715654209296 L 771 439.87213590850956 L 772 440.36409615149546 L 773 440.8529980525419 L 774 441.3388026369476 L 775 441.82147117692574 L 776 442.30096519469157 L 777 442.7772464655293 L 778 443.25027702084 L 779 443.7200191511679 L 780 444.18643540920675 L 781 444.649488612785 L 782 445.10914184782996 L 783 445.56535847131073 L 784 446.01810211415886 L 785 446.4673366841682 L 786 446.9130263688717 L 787 447.3551356383967 L 788 447.79362924829695 L 789 448.2284722423626 L 790 448.6596299554068 L 791 449.08706801602875 L 792 449.5107523493545 L 793 449.9306491797528 L 794 450.3467250335276 L 795 450.75894674158707 L 796 451.1672814420873 L 797 451.5716965830523 L 798 451.97215992496865 L 799 452.36863954335615 L 800 452.76110383131225 L 801 453.1495215020321 L 802 453.5338615913024 L 803 453.9140934599702 L 804 454.2901867963851 L 805 454.6621116188157 L 806 455.0298382778398 L 807 455.3933374587082 L 808 455.752580183681 L 809 456.10753781433857 L 810 456.4581820538638 L 811 456.8044849492984 L 812 457.1464188937709 L 813 457.48395662869757 L 814 457.81707124595584 L 815 458.1457361900286 L 816 458.4699252601218 L 817 458.789612612253 L 818 459.10477276131155 L 819 459.41538058309015 L 820 459.72141131628797 L 821 460.0228405644844 L 822 460.319644298084 L 823 460.6117988562318 L 824 460.8992809487003 L 825 461.1820676577452 L 826 461.460136439933 L 827 461.7334651279379 L 828 462.002031932309 L 829 462.26581544320726 L 830 462.5247946321124 L 831 462.77894885349923 L 832 463.0282578464834 L 833 463.27270173643666 L 834 463.51226103657126 L 835 463.7469166494933 L 836 463.97664986872525 L 837 464.2014423801972 L 838 464.4212762637068 L 839 464.6361339943479 L 840 464.8459984439075 L 841 465.05085288223137 L 842 465.25068097855757 L 843 465.44546680281843 L 844 465.6351948269105 L 845 465.81984992593226 L 846 465.99941737939014 L 847 466.1738828723717 L 848 466.3432324966871 L 849 466.5074527519777 L 850 466.6665305467922 L 851 466.8204531996305 L 852 466.9692084399544 L 853 467.11278440916607 L 854 467.2511696615531 L 855 467.3843531652012 L 856 467.51232430287365 L 857 467.63507287285734 L 858 467.7525890897765 L 859 467.86486358537246 L 860 467.9718874092507 L 861 468.0736520295941 L 862 468.17014933384337 L 863 468.2613716293436 L 864 468.34731164395754 L 865 468.4279625266454 L 866 468.5033178480108 L 867 468.5733716008137 L 868 468.6381182004488 L 869 468.69755248539116 L 870 468.75166971760746 L 871 468.8004655829337 L 872 468.8439361914193 L 873 468.88207807763683 L 874 468.91488820095884 L 875 468.9423639457997 L 876 468.96450312182435 L 877 468.981303964123 L 878 468.9927651333517 L 879 468.99888571583915 L 880 468.99966522365946 L 881 468.99510359467115 L 882 468.9852011925221 L 883 468.96995880662047 L 884 468.9493776520719 L 885 468.9234593695825 L 886 468.89220602532816 L 887 468.8556201107898 L 888 468.8137045425548 L 889 468.7664626620843 L 890 468.7138982354471 L 891 468.65601545301934 L 892 468.5928189291503 L 893 468.5243137017947 L 894 468.450505232111 L 895 468.3713994040262 L 896 468.28700252376655 L 897 468.197321319355 L 898 468.1023629400747 L 899 468.00213495589935 L 900 467.8966453568892 L 901 467.78590255255483 L 902 467.66991537118605 L 903 467.54869305914855 L 904 467.4222452801466 L 905 467.29058211445283 L 906 467.15371405810436 L 907 467.0116520220664 L 908 466.8644073313623 L 909 466.7119917241706 L 910 466.5544173508896 L 911 466.3916967731683 L 912 466.22384296290534 L 913 466.0508693012149 L 914 465.87278957735964 L 915 465.68961798765196 L 916 465.5013691343218 L 917 465.30805802435276 L 918 465.1097000682858 L 919 464.9063110789907 L 920 464.69790727040544 L 921 464.48450525624366 L 922 464.2661220486703 L 923 464.0427750569453 L 924 463.8144820860358 L 925 463.58126133519676 L 926 463.34313139652016 L 927 463.1001112534527 L 928 462.85222027928285 L 929 462.59947823559594 L 930 462.34190527069916 L 931 462.0795219180151 L 932 461.812349094445 L 933 461.54040809870133 L 934 461.2637206096098 L 935 460.982308684381 L 936 460.69619475685244 L 937 460.4054016356996 L 938 460.1099525026181 L 939 459.8098709104755 L 940 459.50518078143364 L 941 459.19590640504174 L 942 458.8820724362998 L 943 458.5637038936936 L 944 458.2408261571999 L 945 457.913464966263 L 946 457.58164641774334 L 947 457.24539696383675 L 948 456.90474340996565 L 949 456.55971291264245 L 950 456.2103329773044 L 951 455.8566314561211 L 952 455.4986365457738 L 953 455.13637678520814 L 954 454.7698810533585 L 955 454.3991785668461 L 956 454.02429887764987 L 957 453.6452718707507 L 958 453.26212776174873 L 959 452.87489709445487 L 960 452.4836107384557 L 961 452.0882998866528 L 962 451.6889960527758 L 963 451.2857310688704 L 964 450.8785370827608 L 965 450.4674465554865 L 966 450.05249225871495 L 967 449.6337072721289 L 968 449.2111249807893 L 969 448.78477907247384 L 970 448.3547035349914 L 971 447.9209326534731 L 972 447.48350100763804 L 973 447.0424434690376 L 974 446.5977951982752 L 975 446.1495916422032 L 976 445.69786853109736 L 977 445.24266187580815 L 978 444.78400796489063 L 979 444.3219433617107 L 980 443.8565049015309 L 981 443.38772968857387 L 982 442.91565509306434 L 983 442.44031874825 L 984 441.96175854740136 L 985 441.4800126407915 L 986 440.9951194326538 L 987 440.5071175781212 L 988 440.0160459801443 L 989 439.5219437863902 L 990 439.02485038612156 L 991 438.5248054070566 L 992 438.0218487122102 L 993 437.5160203967157 L 994 437.0073607846289 L 995 436.4959104257132 L 996 435.98171009220727 L 997 435.4648007755745 L 998 434.94522368323527 L 999 434.4230202352824 L 1000 433.89823206117836 L 1001 433.37090099643706 L 1002 432.841069079289 L 1003 432.30877854732955 L 1004 431.77407183415215 L 1005 431.2369915659653 L 1006 430.69758055819494 L 1007 430.15588181207056 L 1008 429.6119385111977 L 1009 429.0657940181152 L 1010 428.5174918708384 L 1011 427.9670757793885 L 1012 427.41458962230763 L 1013 426.8600774431616 L 1014 426.3035834470281 L 1015 425.74515199697305 L 1016 425.184827610514 L 1017 424.62265495607124 L 1018 424.0586788494069 L 1019 423.49294425005206 L 1020 422.9254962577233 L 1021 422.35638010872646 L 1022 421.7856411723511 L 1023 421.2133249472536 L 1024 420.6394770578299 L 1025 420.06414325057847 L 1026 419.48736939045335 L 1027 418.9092014572084 L 1028 418.32968554173084 L 1029 417.7488678423679 L 1030 417.1667946612432 L 1031 416.58351240056624 L 1032 415.9990675589328 L 1033 415.4135067276181 L 1034 414.8268765868633 L 1035 414.2392239021533 L 1036 413.65059552048905 L 1037 413.06103836665307 L 1038 412.4705994394684 L 1039 411.8793258080523 L 1040 411.2872646080632 L 1041 410.6944630379442 L 1042 410.10096835515964 L 1043 409.5068278724278 L 1044 408.91208895394954 L 1045 408.3167990116324 L 1046 407.72100550131086 L 1047 407.1247559189631 L 1048 406.52809779692524 L 1049 405.9310787001014 L 1050 405.3337462221723 L 1051 404.7361479818009 L 1052 404.1383316188367 L 1053 403.54034479051745 L 1054 402.9422351676702 L 1055 402.34405043091147 L 1056 401.74583826684517 L 1057 401.147646364262 L 1058 400.5495224103375 L 1059 399.9515140868302 L 1060 399.35366906628076 L 1061 398.75603500821165 L 1062 398.1586595553277 L 1063 397.5615903297178 L 1064 396.9648749290588 L 1065 396.36856092282113 L 1066 395.77269584847653 L 1067 395.1773272077083 L 1068 394.5825024626245 L 1069 393.9882690319749 L 1070 393.39467428737 L 1071 392.80176554950486 L 1072 392.2095900843873 L 1073 391.61819509956905 L 1074 391.02762774038314 L 1075 390.4379350861849 L 1076 389.84916414659966 L 1077 389.2613618577743 L 1078 388.67457507863617 L 1079 388.0888505871572 L 1080 387.5042350766251 L 1081 386.92077515192085 L 1082 386.33851732580325 L 1083 385.7575080152016 L 1084 385.1777935375147 L 1085 384.5994201069186 L 1086 384.02243383068287 L 1087 383.44688070549466 L 1088 382.8728066137919 L 1089 382.3002573201055 L 1090 381.7292784674117 L 1091 381.15991557349247 L 1092 380.59221402730765 L 1093 380.0262190853763 L 1094 379.46197586816885 L 1095 378.89952935651036 L 1096 378.3389243879943 L 1097 377.78020565340904 L 1098 377.2234176931739 L 1099 376.6686048937892 L 1100 376.11581148429804 L 1101 375.5650815327597 L 1102 375.016458942737 L 1103 374.46998744979635 L 1104 373.9257106180214 L 1105 373.38367183653963 L 1106 372.84391431606366 L 1107 372.3064810854468 L 1108 371.77141498825256 L 1109 371.2387586793391 L 1110 370.7085546214592 L 1111 370.1808450818751 L 1112 369.6556721289886 L 1113 369.13307762898785 L 1114 368.61310324250974 L 1115 368.09579042131855 L 1116 367.58118040500176 L 1117 367.0693142176821 L 1118 366.5602326647478 L 1119 366.05397632959887 L 1120 365.55058557041224 L 1121 365.05010051692443 L 1122 364.55256106723255 L 1123 364.0580068846133 L 1124 363.56647739436136 L 1125 363.0780117806466 L 1126 362.59264898338995 L 1127 362.1104276951594 L 1128 361.6313863580854 L 1129 361.15556316079636 L 1130 360.68299603537423 L 1131 360.21372265433064 L 1132 359.74778042760374 L 1133 359.28520649957585 L 1134 358.82603774611226 L 1135 358.3703107716217 L 1136 357.91806190613823 L 1137 357.469327202425 L 1138 357.0241424331001 L 1139 356.5825430877852 L 1140 356.1445643702758 L 1141 355.71024119573514 L 1142 355.2796081879108 L 1143 354.8526996763744 L 1144 354.429549693785 L 1145 354.01019197317606 L 1146 353.5946599452663 L 1147 353.18298673579443 L 1148 352.7752051628787 L 1149 352.37134773440044 L 1150 351.97144664541275 L 1151 351.5755337755738 L 1152 351.1836406866054 L 1153 350.7957986197772 L 1154 350.41203849341605 L 1155 350.0323909004408 L 1156 349.6568861059243 L 1157 349.28555404467977 L 1158 348.9184243188753 L 1159 348.5555261956733 L 1160 348.1968886048979 L 1161 347.8425401367282 L 1162 347.4925090394196 L 1163 347.14682321705146 L 1164 346.80551022730276 L 1165 346.4685972792554 L 1166 346.1361112312248 L 1167 345.80807858861914 L 1168 345.4845255018261 L 1169 345.16547776412835 L 1170 344.8509608096472 L 1171 344.5409997113151 L 1172 344.23561917887696 L 1173 343.93484355692004 L 1174 343.6386968229336 L 1175 343.347202585397 L 1176 343.0603840818981 L 1177 342.77826417728045 L 1178 342.5008653618208 L 1179 342.2282097494358 L 1180 341.96031907591964 L 1181 341.697214697211 L 1182 341.4389175876904 L 1183 341.1854483385086 L 1184 340.93682715594457 L 1185 340.6930738597952 L 1186 340.45420788179496 L 1187 340.22024826406675 L 1188 339.99121365760425 L 1189 339.7671223207847 L 1190 339.54799211791374 L 1191 339.33384051780075 L 1192 339.1246845923668 L 1193 338.92054101528356 L 1194 338.7214260606437 L 1195 338.5273556016642 L 1196 338.33834510942046 L 1197 338.15440965161304 L 1198 337.9755638913666 L 1199 337.801822086061 L 1200 337.6331980861945 L 1201 337.4697053342798 L 1202 337.3113568637725 L 1203 337.1581652980319 L 1204 337.01014284931455 L 1205 336.8673013178011 L 1206 336.72965209065535 L 1207 336.59720614111654 L 1208 336.4699740276245 L 1209 336.34796589297804 L 1210 336.23119146352633 L 1211 336.1196600483936 L 1212 336.0133805387369 L 1213 335.91236140703734 L 1214 335.8166107064248 L 1215 335.72613607003575 L 1216 335.6409447104049 L 1217 335.5610434188902 L 1218 335.4864385651314 L 1219 335.4171360965422 L 1220 335.3531415378363 L 1221 335.29445999058674 L 1222 335.2410961328196 L 1223 335.19305421864067 L 1224 335.15033807789644 L 1225 335.1129511158689 L 1226 335.080896313004 L 1227 335.05417622467394 L 1228 335.03279298097374 L 1229 335.0167482865511 L 1230 335.0060434204708 L 1231 335.0006792361125 L 1232 335.0006561611029 L 1233 335.00597419728143 L 1234 335.0166329207004 L 1235 335.0326314816585 L 1236 335.0539686047687 L 1237 335.08064258906 L 1238 335.11265130811273 L 1239 335.14999221022845 L 1240 335.19266231863304 L 1241 335.2406582317141 L 1242 335.2939761232924 L 1243 335.35261174292634 L 1244 335.4165604162514 L 1245 335.48581704535235 L 1246 335.5603761091697 L 1247 335.6402316639401 L 1248 335.7253773436699 L 1249 335.8158063606427 L 1250 335.91151150596056 L 1251 336.01248515011855 L 1252 336.1187192436131 L 1253 336.2302053175835 L 1254 336.3469344844873 L 1255 336.46889743880854 L 1256 336.59608445779986 L 1257 336.7284854022572 L 1258 336.8660897173286 L 1259 337.0088864333551 L 1260 337.1568641667455 L 1261 337.3100111208839 L 1262 337.4683150870701 L 1263 337.6317634454925 L 1264 337.8003431662347 L 1265 337.97404081031385 L 1266 338.1528425307521 L 1267 338.33673407368036 L 1268 338.5257007794749 L 1269 338.71972758392576 L 1270 338.9187990194375 L 1271 339.1228992162627 L 1272 339.3320119037666 L 1273 339.54612041172464 L 1274 339.765207671651 L 1275 339.9892562181595 L 1276 340.2182481903558 L 1277 340.45216533326135 L 1278 340.6909889992687 L 1279 340.9347001496278 L 1280 341.18327935596403 L 1281 341.436706801827 L 1282 341.69496228426993 L 1283 341.9580252154608 L 1284 342.22587462432296 L 1285 342.4984891582076 L 1286 342.77584708459517 L 1287 343.05792629282854 L 1288 343.3447042958753 L 1289 343.6361582321205 L 1290 343.9322648671892 L 1291 344.2330005957985 L 1292 344.5383414436396 L 1293 344.8482630692886 L 1294 345.1627407661474 L 1295 345.48174946441327 L 1296 345.8052637330769 L 1297 346.1332577819502 L 1298 346.46570546372214 L 1299 346.8025802760432 L 1300 347.1438553636379 L 1301 347.4895035204459 L 1302 347.83949719179094 L 1303 348.1938084765771 L 1304 348.5524091295133 L 1305 348.9152705633651 L 1306 349.2823638512332 L 1307 349.65365972885985 L 1308 350.02912859696164 L 1309 350.4087405235892 L 1310 350.7924652465131 L 1311 351.1802721756367 L 1312 351.5721303954343 L 1313 351.96800866741626 L 1314 352.3678754326185 L 1315 352.77169881411925 L 1316 353.1794466195796 L 1317 353.5910863438101 L 1318 354.0065851713619 L 1319 354.425909979143 L 1320 354.8490273390585 L 1321 355.2759035206755 L 1322 355.70650449391235 L 1323 356.1407959317511 L 1324 356.57874321297413 L 1325 357.0203114249244 L 1326 357.46546536628813 L 1327 357.91416954990154 L 1328 358.36638820557937 L 1329 358.8220852829667 L 1330 359.28122445441295 L 1331 359.7437691178676 L 1332 360.2096823997982 L 1333 360.67892715813 L 1334 361.15146598520676 L 1335 361.6272612107725 L 1336 362.1062749049752 L 1337 362.5884688813901 L 1338 363.0738047000641 L 1339 363.56224367057985 L 1340 364.05374685514033 L 1341 364.54827507167295 L 1342 365.0457888969529 L 1343 365.54624866974603 L 1344 366.04961449397086 L 1345 366.55584624187856 L 1346 367.0649035572522 L 1347 367.5767458586239 L 1348 368.09133234251 L 1349 368.60862198666325 L 1350 369.1285735533441 L 1351 369.65114559260724 L 1352 370.1762964456065 L 1353 370.7039842479155 L 1354 371.23416693286515 L 1355 371.7668022348973 L 1356 372.3018476929336 L 1357 372.83926065376124 L 1358 373.37899827543265 L 1359 373.92101753068084 L 1360 374.4652752103498 L 1361 375.0117279268386 L 1362 375.56033211756085 L 1363 376.1110440484167 L 1364 376.6638198172799 L 1365 377.21861535749736 L 1366 377.7753864414021 L 1367 378.334088683839 L 1368 378.89467754570336 L 1369 379.45710833749126 L 1370 380.0213362228619 L 1371 380.58731622221273 L 1372 381.15500321626445 L 1373 381.72435194965806 L 1374 382.2953170345627 L 1375 382.86785295429365 L 1376 383.44191406694137 L 1377 384.0174546090091 L 1378 384.59442869906223 L 1379 385.172790341385 L 1380 385.7524934296478 L 1381 386.33349175058225 L 1382 386.91573898766575 L 1383 387.49918872481334 L 1384 388.0837944500781 L 1385 388.66950955935914 L 1386 389.25628736011686 L 1387 389.8440810750949 L 1388 390.4328438460495 L 1389 391.0225287374848 L 1390 391.6130887403947 L 1391 392.2044767760099 L 1392 392.7966456995517 L 1393 393.38954830398944 L 1394 393.9831373238046 L 1395 394.57736543875836 L 1396 395.17218527766386 L 1397 395.76754942216286 L 1398 396.36341041050537 L 1399 396.9597207413338 L 1400 397.55643287746955 L 1401 398.15349924970246 L 1402 398.7508722605831 L 1403 399.3485042882171 L 1404 399.9463476900618 L 1405 400.5443548067236 L 1406 401.1424779657581 L 1407 401.74066948546994 L 1408 402.33888167871436 L 1409 402.93706685669827 L 1410 403.5351773327823 L 1411 404.1331654262825 L 1412 404.73098346627046 L 1413 405.3285837953749 L 1414 405.92591877357984 L 1415 406.522940782023 L 1416 407.1196022267914 L 1417 407.71585554271616 L 1418 408.3116531971637 L 1419 408.9069476938252 L 1420 409.50169157650316 L 1421 410.09583743289437 L 1422 410.6893378983696 L 1423 411.28214565974946 L 1424 411.8742134590761 L 1425 412.4654940973806 L 1426 413.05594043844553 L 1427 413.64550541256284 L 1428 414.23414202028596 L 1429 414.82180333617674 L 1430 415.40844251254595 L 1431 415.99401278318845 L 1432 416.5784674671109 L 1433 417.1617599722531 L 1434 417.7438437992026 L 1435 418.32467254490143 L 1436 418.9041999063452 L 1437 419.4823796842743 L 1438 420.05916578685714 L 1439 420.6345122333642 L 1440 421.20837315783365 L 1441 421.78070281272784 L 1442 422.3514555725803 L 1443 422.92058593763255 L 1444 423.4880485374619 L 1445 424.05379813459786 L 1446 424.6177896281285 L 1447 425.17997805729584 L 1448 425.74031860508035 L 1449 426.29876660177337 L 1450 426.8552775285382 L 1451 427.40980702095925 L 1452 427.9623108725786 L 1453 428.5127450384201 L 1454 429.06106563850045 L 1455 429.60722896132756 L 1456 430.15119146738493 L 1457 430.69290979260273 L 1458 431.23234075181466 L 1459 431.76944134220054 L 1460 432.30416874671477 L 1461 432.8364803374989 L 1462 433.36633367928096 L 1463 433.8936865327575 L 1464 434.41849685796114 L 1465 434.94072281761214 L 1466 435.46032278045317 L 1467 435.97725532456866 L 1468 436.4914792406862 L 1469 437.0029535354625 L 1470 437.5116374347508 L 1471 438.0174903868515 L 1472 438.5204720657448 L 1473 439.02054237430565 L 1474 439.51766144750013 L 1475 440.0117896555631 L 1476 440.50288760715824 L 1477 440.9909161525175 L 1478 441.4758363865626 L 1479 441.9576096520061 L 1480 442.43619754243343 L 1481 442.91156190536447 L 1482 443.3836648452949 L 1483 443.85246872671746 L 1484 444.31793617712196 L 1485 444.7800300899749 L 1486 445.23871362767704 L 1487 445.6939502245006 L 1488 446.1457035895039 L 1489 446.5939377094244 L 1490 447.03861685154993 L 1491 447.479705566567 L 1492 447.91716869138696 L 1493 448.350971351949 L 1494 448.78107896600034 L 1495 449.20745724585316 L 1496 449.63007220111774 L 1497 450.04889014141247 L 1498 450.46387767904935 L 1499 450.8750017316957 L 1500 451.2822295250116 L 1501 451.6855285952622 L 1502 452.08486679190634 L 1503 452.4802122801587 L 1504 452.8715335435285 L 1505 453.25879938633153 L 1506 453.6419789361769 L 1507 454.02104164642844 L 1508 454.39595729863976 L 1509 454.76669600496314 L 1510 455.1332282105322 L 1511 455.49552469581806 L 1512 455.8535565789586 L 1513 456.2072953180609 L 1514 456.5567127134766 L 1515 456.90178091005 L 1516 457.24247239933834 L 1517 457.5787600218052 L 1518 457.91061696898527 L 1519 458.2380167856216 L 1520 458.56093337177475 L 1521 458.87934098490314 L 1522 459.1932142419154 L 1523 459.502528121194 L 1524 459.80725796458955 L 1525 460.10737947938685 L 1526 460.4028687402415 L 1527 460.693702191087 L 1528 460.9798566470128 L 1529 461.26130929611236 L 1530 461.5380377013019 L 1531 461.8100198021089 L 1532 462.0772339164309 L 1533 462.3396587422637 L 1534 462.59727335939994 L 1535 462.8500572310965 L 1536 463.0979902057117 L 1537 463.34105251831204 L 1538 463.5792247922473 L 1539 463.81248804069594" stroke-linecap="round" stroke-linejoin="round" stroke-miterlimit="10" stroke-width="23"/></g></svg>