<svg id="canvas" height="100%" xmlns="http://www.w3.org/2000/svg" version="1.1" xmlns:xlink="http://www.w3.org/1999/xlink" viewBox="0 0 900 512"><rect width="900" height="512" fill="#ffffffff"></rect><path d="M-450,-211.59502326460608C-395.0380161240135,-201.2417406976728,-234.01302555753443,-168.45842418222858,-120.22809674408109,-149.4753278630065C-6.443167930627723,-130.4922315437844,116.37020118969129,-122.5695412147634,232.7095728807202,-97.69644534927357C349.04894457174913,-72.82334948378374,466.59306221554573,-23.920323017512132,577.8081334020924,-0.23675267006754908C689.023204588639,23.446817677377034,846.3013555670154,36.96468850115033,900,44.4049767353939L 900 512 L -450 512 Z" fill="#03045e"></path><path d="M-450,-151.4656344305395C-412.16939448107723,-145.47328325736936,-300.316397279551,-128.2968435206975,-223.01636688646352,-115.51152739151871C-145.71633649337605,-102.7262112623399,-66.83024956843826,-97.29430758014183,13.80018235852478,-74.75373765546667C94.43061428548782,-52.2131677307915,182.4237572825237,-1.0686290696612097,260.76622467531473,19.731892156532304C339.10869206810577,40.53241338272582,413.11686755375536,36.40921498639945,483.85498671527114,50.04938970169442C554.5931058767869,63.6895644169894,615.8374374302879,85.6816984385951,685.1949396444094,101.57294044830215C754.5524418585309,117.46418245800919,864.1991566074016,138.0928582079976,900,145.3968417599367L 900 512 L -450 512 Z" fill="#023e8a"></path><path d="M-450,-99.54523035999117C-408.56632510995803,-91.01611482432003,-277.6458162848792,-68.77551005857283,-201.39795065974823,-48.370537145964306C-125.15008503461732,-27.965564233355778,-62.11464036379651,1.3444857580504674,7.4871937507854796,22.884607115660003C77.08902786536747,44.42472847326954,146.4087109691131,61.01576231455317,216.21305402774365,80.87019099969291C286.0173970863742,100.72461968483265,348.5131926020954,126.61650476823093,426.31325210256887,142.01117922649846C504.11331160304235,157.405853684766,604.065619714346,157.21014728355433,683.0134110305845,173.23823774929812C761.961202346823,189.2663282150419,863.8355685050974,227.35614130901735,900,238.1797220209612L 900 512 L -450 512 Z" fill="#0077b6"></path><path d="M-450,-19.610676794737245C-416.04102114280136,-7.809909765355416,-320.00687814652196,32.10547008891274,-246.24612685680816,51.193925381553726C-172.48537556709437,70.28238067419471,-82.93785337691163,73.90146186259815,-7.435492261717297,94.92005496110869C68.06686885347703,115.93864805961923,130.24379950957479,152.39135263738737,206.7680398343578,177.3054839726169C283.29228015914083,202.21961530784645,375.4099492380042,227.33060965504194,451.70994968698085,244.404842972486C528.0099501359575,261.47907628993005,589.8530341427147,260.65556574324694,664.5680425282179,279.7508838772812C739.2830509137211,298.8462020113154,860.7613404213696,345.772440460123,900,358.97675177669134L 900 512 L -450 512 Z" fill="#0096c7"></path><path d="M-450,39.58648840162565C-394.8472039826502,59.43074966993071,-226.75869074863755,121.40214088720481,-119.08322389590131,158.652056011456C-11.407757043165077,195.9019711357072,83.85591761487018,227.967245323817,196.05280111641747,263.08597914713283C308.24968461796476,298.20471297044867,436.7735439661186,336.70605661528475,554.0980771133824,369.364458951351C671.4226102606461,402.0228612874173,842.3496795188971,444.09107079483385,900,459.0363931635304L 900 512 L -450 512 Z" fill="#00b4d8"></path><path d="M-450,102.07705265056236C-390.3105433853862,126.6156799062201,-207.27581385291467,208.80558360094605,-91.86326031231738,249.30881618450877C23.549293228279893,289.81204876807146,130.8134722717425,316.7811744376844,242.47532124358364,345.09644815193866C354.13717021542476,373.4117218661929,468.5203870593267,382.9849608948668,578.1078335187294,419.2004584700342C687.6952799781321,455.41595604520165,846.3513055864549,538.5246044141252,900,562.3894336029433L 900 512 L -450 512 Z" fill="#48cae4"></path><path d="M-450,158.68293972698052C-398.11578608161705,175.61754458014573,-255.56810389670534,216.89936184256652,-138.69471648970227,260.2905688459718C-21.821329082699194,303.68177584937706,136.78976789514763,372.9809586070742,251.2403244420185,419.0301817474122C365.6908809888894,465.07940488775023,439.88201019852613,496.44797183426243,548.0086227915231,536.585907688C656.13523538452,576.7238435417376,841.3347704652539,639.312482006198,900,659.8577968698377L 900 512 L -450 512 Z" fill="#90e0ef"></path></svg>