<?xml version="1.0" encoding="UTF-8"?>
<svg version="1.1" xmlns="http://www.w3.org/2000/svg" width="1340" height="1976">
<path d="M0 0 C3.55346135 1.73950542 6.96017924 3.69165331 10.375 5.6875 C11.38667236 6.26910889 12.39834473 6.85071777 13.44067383 7.44995117 C16.63332223 9.28948607 19.81762453 11.14275765 23 13 C23.9792041 13.57008789 24.9584082 14.14017578 25.96728516 14.72753906 C29.86843786 16.99942937 33.76798922 19.27399406 37.66357422 21.55541992 C45.41225724 26.0903376 53.19920579 30.55566067 61 35 C70.72134099 40.53968899 80.40895092 46.13375063 90.06689453 51.78344727 C100.59084625 57.93766742 111.15380137 64.02369996 121.71777344 70.10888672 C127.14659942 73.23680148 132.57319281 76.36858448 138 79.5 C140.16665583 80.75001879 142.3333225 82.00001878 144.5 83.25 C183.5 105.75 222.5 128.25 261.5 150.75 C262.57266113 151.36883057 263.64532227 151.98766113 264.75048828 152.62524414 C266.91557071 153.87435518 269.08060982 155.12354129 271.24560547 156.37280273 C276.68615706 159.51202309 282.12747216 162.64990563 287.5703125 165.78515625 C298.02206199 171.80747329 308.46299548 177.84669337 318.875 183.9375 C327.55262241 189.01275123 336.26605568 194.02258767 345 199 C354.72115617 204.5400173 364.40894658 210.13374809 374.06689453 215.78344727 C384.59084625 221.93766742 395.15380137 228.02369996 405.71777344 234.10888672 C411.14659942 237.23680148 416.57319281 240.36858448 422 243.5 C424.16665583 244.75001879 426.3333225 246.00001878 428.5 247.25 C467.5 269.75 506.5 292.25 545.5 314.75 C546.57266113 315.36883057 547.64532227 315.98766113 548.75048828 316.62524414 C550.91557071 317.87435518 553.08060982 319.12354129 555.24560547 320.37280273 C560.68615706 323.51202309 566.12747216 326.64990563 571.5703125 329.78515625 C582.02206199 335.80747329 592.46299548 341.84669337 602.875 347.9375 C611.55262241 353.01275123 620.26605568 358.02258767 629 363 C638.72115617 368.5400173 648.40894658 374.13374809 658.06689453 379.78344727 C668.59084625 385.93766742 679.15380137 392.02369996 689.71777344 398.10888672 C696.22076271 401.85569979 702.72107578 405.6071563 709.22094727 409.359375 C714.21376374 412.2411095 719.20771766 415.12078079 724.20706177 417.99118042 C725.95024732 418.9921981 727.69296372 419.99402783 729.43554688 420.99609375 C731.60129618 422.24118039 733.76788871 423.4848021 735.93554688 424.7265625 C737.88131804 425.84597836 739.81825344 426.98096864 741.74375157 428.13490722 C744.97232389 430.04426185 744.97232389 430.04426185 748.37764696 431.5763624 C757.25937473 436.07501467 757.25937473 436.07501467 759.19711832 441.11147255 C759.6589312 445.0248208 759.69893932 448.83067779 759.59962177 452.7589035 C759.60924459 454.27246021 759.62457444 455.78598944 759.64507625 457.29943788 C759.68495465 461.46594021 759.64373926 465.62831587 759.58946051 469.79451024 C759.54479378 474.32348544 759.57563942 478.85204409 759.59696788 483.38110209 C759.62392995 491.32079149 759.60255618 499.25921484 759.54967117 507.19875717 C759.47125314 519.00430482 759.46730177 530.80905323 759.47871703 542.61481384 C759.4958038 562.47299923 759.4523374 582.3306226 759.37449074 602.18864441 C759.29759817 621.85364053 759.24753938 641.51840262 759.23340416 661.18354797 C759.23251054 662.40575592 759.23161693 663.62796386 759.23069623 664.88720841 C759.22629797 671.09405614 759.22237996 677.30090408 759.21864685 683.50775224 C759.19133346 727.48351765 759.10372566 771.45897722 758.98071289 815.43457031 C758.95093142 826.09338265 758.92134148 836.75219545 758.89263916 847.41101074 C758.89085882 848.0720739 758.88907848 848.73313705 758.88724419 849.41423242 C758.80298154 880.81225162 758.75462477 912.21029575 758.71411133 943.60839844 C758.71240149 944.92510354 758.71069165 946.24180865 758.70892999 947.59841391 C758.6917894 960.82117506 758.67520379 974.04393687 758.65902482 987.26669923 C758.62605307 1014.2035608 758.58937679 1041.1404169 758.55046082 1068.07727051 C758.54867605 1069.31581342 758.54689128 1070.55435633 758.54505242 1071.83043084 C758.42542149 1154.55374775 758.21943126 1237.27689506 758 1320 C757.30519028 1320.38777115 756.61038055 1320.7755423 755.89451599 1321.17506409 C752.67777999 1322.97111435 749.46193435 1324.76875329 746.24609375 1326.56640625 C745.15373413 1327.17601196 744.06137451 1327.78561768 742.93591309 1328.41369629 C735.60141751 1332.51553565 728.31467964 1336.69189221 721.0625 1340.9375 C719.95640381 1341.58460937 718.85030762 1342.23171875 717.71069336 1342.8984375 C716.84581299 1343.40632813 715.98093262 1343.91421875 715.08984375 1344.4375 C708.78429581 1348.1321331 702.45705564 1351.78852681 696.125 1355.4375 C695.04484619 1356.06003662 693.96469238 1356.68257324 692.85180664 1357.32397461 C690.66203666 1358.58576826 688.47217645 1359.84740534 686.28222656 1361.10888672 C680.85340058 1364.23680148 675.42680719 1367.36858448 670 1370.5 C667.83334417 1371.75001879 665.6666775 1373.00001878 663.5 1374.25 C662.4275 1374.86875 661.355 1375.4875 660.25 1376.125 C494.50000001 1471.74999999 494.50000001 1471.74999999 491.24951172 1473.62524414 C489.08442929 1474.87435518 486.91939018 1476.12354129 484.75439453 1477.37280273 C479.31384294 1480.51202309 473.87252784 1483.64990563 468.4296875 1486.78515625 C457.97793801 1492.80747329 447.53700452 1498.84669337 437.125 1504.9375 C427.85500223 1510.35921178 418.54168248 1515.70204915 409.21154785 1521.01922607 C400.0871716 1526.22045129 390.99867226 1531.48027878 381.93310547 1536.78344727 C371.40915375 1542.93766742 360.84619863 1549.02369996 350.28222656 1555.10888672 C344.85340058 1558.23680148 339.42680719 1561.36858448 334 1564.5 C331.83334417 1565.75001879 329.6666775 1567.00001878 327.5 1568.25 C326.4275 1568.86875 325.355 1569.4875 324.25 1570.125 C236.50000001 1620.75 236.50000001 1620.75 233.24780273 1622.6262207 C231.08840605 1623.8720577 228.92906331 1625.11798818 226.76977539 1626.36401367 C221.24232403 1629.55348953 215.71384879 1632.74116885 210.18359375 1635.92578125 C207.93487417 1637.22131657 205.68617595 1638.51688896 203.4375 1639.8125 C202.35919922 1640.43326416 201.28089844 1641.05402832 200.16992188 1641.69360352 C195.31758267 1644.4911637 190.47430694 1647.30120151 185.66015625 1650.1640625 C184.86359619 1650.63739014 184.06703613 1651.11071777 183.24633789 1651.59838867 C181.7938606 1652.4642552 180.34365882 1653.33395536 178.89624023 1654.20825195 C174.21802943 1657 174.21802943 1657 172 1657 C172 1760.62 172 1864.24 172 1971 C164.13004082 1967.06502041 156.53785395 1963.09995187 149 1958.625 C146.8965103 1957.38686999 144.79231395 1956.14993994 142.6875 1954.9140625 C141.59695313 1954.2737207 140.50640625 1953.63337891 139.3828125 1952.97363281 C133.61253076 1949.60707987 127.80555221 1946.3051767 122 1943 C112.27819258 1937.46113995 102.59103798 1931.86624288 92.93310547 1926.21655273 C82.40915375 1920.06233258 71.84619863 1913.97630004 61.28222656 1907.89111328 C55.85340058 1904.76319852 50.42680719 1901.63141552 45 1898.5 C42.83334417 1897.24998121 40.6666775 1895.99998122 38.5 1894.75 C-9.16666667 1867.25 -56.83333333 1839.75 -104.5 1812.25 C-105.57266113 1811.63116943 -106.64532227 1811.01233887 -107.75048828 1810.37475586 C-109.91557071 1809.12564482 -112.08060982 1807.87645871 -114.24560547 1806.62719727 C-119.68615706 1803.48797691 -125.12747216 1800.35009437 -130.5703125 1797.21484375 C-141.02206199 1791.19252671 -151.46299548 1785.15330663 -161.875 1779.0625 C-170.55262241 1773.98724877 -179.26605568 1768.97741233 -188 1764 C-197.72115617 1758.4599827 -207.40894658 1752.86625191 -217.06689453 1747.21655273 C-227.59084625 1741.06233258 -238.15380137 1734.97630004 -248.71777344 1728.89111328 C-254.14659942 1725.76319852 -259.57319281 1722.63141552 -265 1719.5 C-267.16665583 1718.24998121 -269.3333225 1716.99998122 -271.5 1715.75 C-310.5 1693.25 -349.5 1670.75 -388.5 1648.25 C-389.57266113 1647.63116943 -390.64532227 1647.01233887 -391.75048828 1646.37475586 C-393.91557071 1645.12564482 -396.08060982 1643.87645871 -398.24560547 1642.62719727 C-403.68615706 1639.48797691 -409.12747216 1636.35009437 -414.5703125 1633.21484375 C-425.02206199 1627.19252671 -435.46299548 1621.15330663 -445.875 1615.0625 C-454.55262241 1609.98724877 -463.26605568 1604.97741233 -472 1600 C-481.72115617 1594.4599827 -491.40894658 1588.86625191 -501.06689453 1583.21655273 C-508.32211799 1578.97382685 -515.59359649 1574.76013014 -522.875 1570.5625 C-524.48906738 1569.63171631 -524.48906738 1569.63171631 -526.13574219 1568.68212891 C-531.66088272 1565.49721287 -537.18857131 1562.31678454 -542.71875 1559.140625 C-544.39155029 1558.17854126 -544.39155029 1558.17854126 -546.09814453 1557.19702148 C-548.17112876 1556.00484705 -550.24491998 1554.81407378 -552.31982422 1553.62524414 C-554.29399267 1552.48933849 -556.24779697 1551.31730894 -558.1796754 1550.11088097 C-561.01682481 1548.42803213 -563.83639515 1547.30994454 -566.94520777 1546.21677768 C-572.91596398 1543.83949706 -578.0156584 1541.16800414 -582 1536 C-585.65020019 1525.90586567 -584.6953064 1514.36477494 -584.50113611 1503.78857237 C-584.44033042 1499.26902297 -584.49599198 1494.750633 -584.53667849 1490.23106468 C-584.59193785 1482.31388519 -584.57301325 1474.39958864 -584.50523376 1466.48254585 C-584.40472996 1454.71060266 -584.41890813 1442.94073659 -584.45607041 1431.1685229 C-584.51516288 1411.36423405 -584.47996646 1391.5611508 -584.38968849 1371.75702286 C-584.3003352 1352.1454923 -584.24847436 1332.5344992 -584.24799156 1312.9227562 C-584.24792289 1311.70308031 -584.24785422 1310.48340442 -584.24778347 1309.22676865 C-584.2476108 1304.27587127 -584.24769572 1299.32497399 -584.24812788 1294.37407662 C-584.25197675 1247.92981019 -584.14812227 1201.4863627 -583.98959536 1155.04239502 C-583.84917014 1113.76046395 -583.77976261 1072.47943469 -583.77758789 1031.19726562 C-583.77750494 1029.88427906 -583.77742198 1028.5712925 -583.77733652 1027.21851846 C-583.77716914 1024.56916714 -583.7770072 1021.91981582 -583.7768507 1019.27046449 C-583.77645397 1012.67212649 -583.77598397 1006.0737885 -583.77542591 999.47545052 C-583.77532902 998.17375617 -583.77523214 996.87206183 -583.77513232 995.5309222 C-583.77190188 961.05207716 -583.72387231 926.5733027 -583.66020316 892.09452045 C-583.65793937 890.86849233 -583.65567557 889.64246421 -583.65334318 888.37928373 C-583.644204 883.44895887 -583.63504211 878.51863407 -583.62562563 873.58830972 C-583.59296655 856.419977 -583.57451732 839.25168257 -583.56496528 822.08332253 C-583.55233166 799.96576971 -583.50866017 777.84861925 -583.41177634 755.73126383 C-583.36130262 744.02795083 -583.33527584 732.32519655 -583.34444201 720.62177469 C-583.34802916 712.81328561 -583.3190212 705.00536481 -583.26296965 697.19707697 C-583.23187571 692.74213332 -583.21513816 688.28837793 -583.23752425 683.83335449 C-583.25755114 679.78357279 -583.23650888 675.73620152 -583.18208632 671.68675497 C-583.16975585 670.2278822 -583.17260852 668.76878582 -583.19215712 667.30999191 C-583.32572418 656.44430754 -583.32572418 656.44430754 -580.0158098 652.83832799 C-577.7307083 651.28841778 -575.52327525 650.10893105 -573 649 C-571.63766235 648.18208984 -571.63766235 648.18208984 -570.24780273 647.34765625 C-569.48411377 646.92355469 -568.7204248 646.49945312 -567.93359375 646.0625 C-567.04889404 645.56766113 -566.16419434 645.07282227 -565.25268555 644.56298828 C-564.32367432 644.04720215 -563.39466309 643.53141602 -562.4375 643 C-554.31054156 638.44743174 -546.22572089 633.83252148 -538.1875 629.125 C-526.58061953 622.33107444 -514.93606995 615.60410088 -503.28222656 608.89111328 C-497.85340058 605.76319852 -492.42680719 602.63141552 -487 599.5 C-484.83334417 598.24998121 -482.6666775 596.99998122 -480.5 595.75 C-479.4275 595.13125 -478.355 594.5125 -477.25 593.875 C-363.49999999 528.25 -363.49999999 528.25 -360.24951172 526.37475586 C-358.08442929 525.12564482 -355.91939018 523.87645871 -353.75439453 522.62719727 C-348.31384294 519.48797691 -342.87252784 516.35009437 -337.4296875 513.21484375 C-326.97793801 507.19252671 -316.53700452 501.15330663 -306.125 495.0625 C-296.85500223 489.64078822 -287.54168248 484.29795085 -278.21154785 478.98077393 C-269.0871716 473.77954871 -259.99867226 468.51972122 -250.93310547 463.21655273 C-240.40915375 457.06233258 -229.84619863 450.97630004 -219.28222656 444.89111328 C-213.85340058 441.76319852 -208.42680719 438.63141552 -203 435.5 C-200.83334417 434.24998121 -198.6666775 432.99998122 -196.5 431.75 C-195.4275 431.13125 -194.355 430.5125 -193.25 429.875 C-79.49999996 364.24999998 -79.49999996 364.24999998 -76.24829102 362.37402344 C-74.08731012 361.12729744 -71.92634002 359.88055273 -69.76538086 358.63378906 C-64.26181149 355.45854117 -58.75803968 352.28364505 -53.25390625 349.109375 C-52.14337891 348.4687915 -51.03285156 347.82820801 -49.88867188 347.16821289 C-47.69626926 345.90384799 -45.50356786 344.64000103 -43.31054688 343.37670898 C-38.26933721 340.47120517 -33.23418434 337.55642826 -28.21484375 334.61328125 C-27.32917725 334.09540039 -26.44351074 333.57751953 -25.53100586 333.04394531 C-23.88774342 332.08211292 -22.24650284 331.11681477 -20.60766602 330.14746094 C-15.22318174 327 -15.22318174 327 -13 327 C-13.00265804 326.3184404 -13.00531608 325.6368808 -13.00805467 324.93466789 C-13.16462501 284.55999734 -13.28476721 244.18536589 -13.35745731 203.81045334 C-13.36621249 198.96502503 -13.37527272 194.11959732 -13.38452148 189.27416992 C-13.38635766 188.3095129 -13.38819383 187.34485588 -13.39008565 186.35096683 C-13.4205635 170.72142143 -13.47576572 155.09205584 -13.54006957 139.4626172 C-13.60547861 123.43111835 -13.64440051 107.39971381 -13.65861946 91.36808699 C-13.66823514 81.47175477 -13.69862878 71.57593076 -13.75541527 61.67975494 C-13.79235345 54.89800132 -13.80361522 48.11651128 -13.79450964 41.33466432 C-13.79001593 37.41885583 -13.79701076 33.50393668 -13.83443832 29.58828545 C-13.86844419 26.00451448 -13.87026602 22.42223267 -13.84629226 18.83839389 C-13.8419225 16.92527985 -13.87217112 15.01218398 -13.90356916 13.09932262 C-13.80417203 5.0041697 -13.80417203 5.0041697 -11.48337567 2.10619104 C-7.47533643 -0.90719093 -4.8804835 -1.77526103 0 0 Z " fill="#1899D3" transform="translate(582,1)"/>
<path d="M0 0 C0.33 0 0.66 0 1 0 C1 286.44 1 572.88 1 868 C2.98 868.66 4.96 869.32 7 870 C10.01651801 872.94978443 10.59331645 875.81604878 11.27189636 879.90744019 C11.47796005 881.11590607 11.68402374 882.32437195 11.89633179 883.56945801 C12.11233976 884.90548232 12.328122 886.24154315 12.54370117 887.57763672 C12.77963327 888.98735389 13.01655095 890.39690642 13.25437927 891.80630493 C13.8967896 895.63112502 14.52501911 899.45815229 15.15048003 903.28577566 C15.80754625 907.2934287 16.47672467 911.29905949 17.1443634 915.30496216 C18.26400182 922.03392261 19.37495237 928.76427115 20.48022461 935.49560547 C21.75722964 943.27248535 23.04542685 951.04744269 24.3402254 958.82137859 C25.71949719 967.10286438 27.09133756 975.38556775 28.46059251 983.668715 C28.85511075 986.05252436 29.25092492 988.43611562 29.64699364 990.81966782 C30.26973016 994.56992944 30.887415 998.3209903 31.5012455 1002.07271957 C31.72694766 1003.44760201 31.95427426 1004.82221894 32.18336487 1006.19654083 C32.49643117 1008.07648038 32.80289607 1009.95751566 33.10905457 1011.83859253 C33.28214236 1012.88977201 33.45523016 1013.9409515 33.63356304 1015.02398491 C34.0058389 1018.04742062 34.06480034 1020.95699084 34 1024 C34.66 1024 35.32 1024 36 1024 C36.08636719 1023.46375 36.17273438 1022.9275 36.26171875 1022.375 C37.63041086 1014.74046055 39.95068479 1007.46101278 42.32666016 1000.09667969 C43.40539835 996.73765011 44.45127176 993.36849197 45.5 990 C45.92310232 988.6484141 46.34627927 987.29685155 46.76953125 985.9453125 C47.5455784 983.46316948 48.31270303 980.97888247 49.07421875 978.4921875 C50.35830531 974.32003256 51.67380147 970.15892853 53 966 C53.55228271 964.25807373 53.55228271 964.25807373 54.11572266 962.48095703 C55.17718396 959.14126637 56.25461243 955.80698164 57.3397522 952.47491455 C57.77567086 951.12974229 58.2073802 949.78319778 58.63461304 948.4352417 C60.93198408 941.19984323 62.9734636 934.78221501 68 929 C71.23309842 927.38345079 74.77795357 927.79432415 78.33203125 927.76171875 C79.16079269 927.753647 79.98955414 927.74557526 80.84342957 927.73725891 C82.59945585 927.72341779 84.35550904 927.71269576 86.11157227 927.70483398 C88.79170009 927.68763349 91.47059028 927.64375074 94.15039062 927.59960938 C95.85676176 927.58948121 97.56314339 927.58096549 99.26953125 927.57421875 C100.06865433 927.55671066 100.8677774 927.53920258 101.69111633 927.52116394 C105.31151997 927.53521216 107.54668878 927.76259651 110.7956543 929.46411133 C116.76229545 936.32816069 118.75063899 946.03859719 121.40625 954.546875 C121.81648832 955.84822446 122.22718278 957.14943021 122.63830566 958.45050049 C123.71328441 961.85685667 124.78189689 965.26517695 125.84918213 968.6739502 C126.92534986 972.10682735 128.00797705 975.53766559 129.08984375 978.96875 C131.40260688 986.30957876 133.7078981 993.6526892 136 1001 C136.36939697 1002.17542358 136.73879395 1003.35084717 137.11938477 1004.56188965 C137.47508545 1005.70194458 137.83078613 1006.84199951 138.19726562 1008.01660156 C138.51425415 1009.0286969 138.83124268 1010.04079224 139.15783691 1011.08355713 C140.38629341 1015.3377488 141.25173293 1019.63839061 142 1024 C142.66 1024 143.32 1024 144 1024 C144.0417334 1023.33387695 144.0834668 1022.66775391 144.12646484 1021.98144531 C144.78756844 1012.81845706 146.16446094 1003.81027751 147.625 994.75 C147.89275433 993.06933808 148.16049489 991.38867397 148.42822266 989.70800781 C150.42880485 977.22412768 152.58931241 964.77082599 154.80731201 952.32397461 C156.67651017 941.82467106 158.45061455 931.31475994 160.1171875 920.78125 C160.38425003 919.09470306 160.38425003 919.09470306 160.65670776 917.37408447 C161.52919394 911.85066847 162.3932845 906.32606561 163.24755859 900.79980469 C164.11996931 895.19190016 165.03297493 889.59237249 166 884 C166.11770752 883.30801514 166.23541504 882.61603027 166.35668945 881.90307617 C166.65998584 880.19522598 167.00736405 878.49535351 167.359375 876.796875 C167.53436523 875.93932617 167.70935547 875.08177734 167.88964844 874.19824219 C169.55993998 870.89144689 171.59903865 869.26442612 175 868 C179.13739754 867.41159002 183.23245605 867.41564348 187.40625 867.43359375 C188.60431274 867.42739517 189.80237549 867.42119659 191.03674316 867.41481018 C193.56501453 867.40771905 196.09333267 867.41087355 198.62158203 867.42358398 C202.48687711 867.43745291 206.34975283 867.40335892 210.21484375 867.36523438 C212.67447976 867.36428319 215.13411879 867.36614199 217.59375 867.37109375 C218.74701782 867.35783554 219.90028564 867.34457733 221.08850098 867.33091736 C230.03022487 867.43455681 230.03022487 867.43455681 233.77539062 870.10180664 C236.61512835 873.80138154 236.57023872 875.41479663 236 880 C235.60151932 882.76051705 235.15570098 885.47023174 234.63671875 888.20703125 C234.4891362 889.01594315 234.34155365 889.82485504 234.1894989 890.65827942 C233.86534282 892.43475136 233.53870325 894.2107715 233.2098999 895.98638916 C232.28656476 900.98150393 231.38662371 905.98080716 230.48828125 910.98046875 C230.29190063 912.0729895 230.09552002 913.16551025 229.89318848 914.2911377 C227.38542855 928.32610933 225.06358527 942.39239426 222.7339859 956.45778656 C222.13492705 960.07433079 221.53495269 963.69072315 220.93505859 967.30712891 C220.81798302 968.01291832 220.70090744 968.71870773 220.58028412 969.4458847 C220.34694194 970.85255352 220.11358938 972.25922061 219.88022614 973.66588593 C219.65098414 975.04784074 219.42179169 976.42980378 219.19264984 977.81177521 C217.42984474 988.44232586 215.64423999 999.06860378 213.8125 1009.6875 C213.58860596 1010.98558594 213.36471191 1012.28367187 213.1340332 1013.62109375 C212.79327719 1015.59573586 212.45244138 1017.57036405 212.1113739 1019.54495239 C210.41043342 1029.40188881 208.73913542 1039.26390716 207.0625 1049.125 C206.38422459 1053.11329997 205.7058308 1057.10157978 205.02734375 1061.08984375 C204.85957932 1062.07600677 204.69181488 1063.0621698 204.51896667 1064.07821655 C203.34968517 1070.94969128 202.17768557 1077.82069848 201.00390625 1084.69140625 C200.84420853 1085.6262384 200.6845108 1086.56107056 200.51997375 1087.52423096 C199.76638593 1091.93500236 199.01243794 1096.3457119 198.25805664 1100.75634766 C198.1217836 1101.5541716 197.98551056 1102.35199554 197.84510803 1103.17399597 C197.58308198 1104.70613982 197.32020384 1106.23813824 197.05638123 1107.76997375 C196.49206919 1111.05663922 195.94741503 1114.34256073 195.44140625 1117.63891602 C195.19583984 1119.23304321 195.19583984 1119.23304321 194.9453125 1120.859375 C194.81398926 1121.75495117 194.68266602 1122.65052734 194.54736328 1123.57324219 C193.37680911 1128.76294264 191.01869043 1132.70623483 186.5402832 1135.57641602 C181.84082556 1137.46611587 177.76368637 1137.43093336 172.74609375 1137.3984375 C171.76761978 1137.40130768 170.78914581 1137.40417786 169.78102112 1137.40713501 C167.71932392 1137.40917038 165.65760718 1137.4036775 163.59594727 1137.39111328 C160.44438475 1137.37503512 157.29410128 1137.39098909 154.14257812 1137.41015625 C152.13541384 1137.40817406 150.12825036 1137.4043309 148.12109375 1137.3984375 C147.18140244 1137.40451019 146.24171112 1137.41058289 145.27354431 1137.4168396 C140.37685313 1137.36429081 136.88323505 1137.29568319 133 1134 C128.92607957 1129.80008594 126.80780536 1125.77738745 124.93359375 1120.23046875 C124.66186844 1119.46103439 124.39014313 1118.69160004 124.11018372 1117.89884949 C123.20717444 1115.33246633 122.322474 1112.76015232 121.4375 1110.1875 C120.79970439 1108.36432523 120.16067458 1106.54158182 119.52050781 1104.71923828 C118.11521962 1100.71188216 116.71780929 1096.70188869 115.32568359 1092.68994141 C112.79297074 1085.39529792 110.23552209 1078.10940687 107.67578125 1070.82421875 C106.76695553 1068.23740466 105.85817936 1065.65057317 104.94946289 1063.0637207 C104.61344197 1062.10724278 104.61344197 1062.10724278 104.27063274 1061.13144207 C102.71548749 1056.70359354 101.16438198 1052.27434763 99.61499023 1047.84448242 C99.19779221 1046.65236649 98.78059418 1045.46025055 98.35075378 1044.23200989 C97.56847662 1041.99624604 96.78686521 1039.7602491 96.00605774 1037.52397156 C94.47237052 1033.14255609 92.92478669 1028.77788676 91.24121094 1024.45166016 C90 1021 90 1021 90 1018 C89.34 1018 88.68 1018 88 1018 C87.73695068 1019.28874023 87.47390137 1020.57748047 87.20288086 1021.90527344 C86.08393579 1026.92459548 84.49657416 1031.68303462 82.75390625 1036.515625 C82.43090042 1037.42519958 82.10789459 1038.33477417 81.77510071 1039.27191162 C80.70993379 1042.26667621 79.63682581 1045.25850975 78.5625 1048.25 C77.42045814 1051.43981741 76.27911369 1054.62988389 75.13775635 1057.81994629 C74.33819218 1060.05386443 73.53784468 1062.28750235 72.73675537 1064.52087402 C70.17787283 1071.66545166 67.66040576 1078.82325466 65.17253113 1085.99285889 C63.49339922 1090.82662565 61.7996946 1095.65522209 60.10421753 1100.48327637 C59.28949872 1102.81414201 58.48108823 1105.14722291 57.67922974 1107.48254395 C56.55068228 1110.76547325 55.39903728 1114.03945538 54.2421875 1117.3125 C53.91664383 1118.27822937 53.59110016 1119.24395874 53.25569153 1120.23895264 C50.99566229 1126.53659832 48.07692735 1131.53880815 43 1136 C29.71466974 1140.42844342 15.00396769 1137 1 1137 C1 1339.29 1 1541.58 1 1750 C7.10482678 1752.82077621 7.10482678 1752.82077621 13.3581543 1752.06640625 C14.5788562 1751.32197266 14.5788562 1751.32197266 15.82421875 1750.5625 C16.75669434 1750.00506104 17.68916992 1749.44762207 18.64990234 1748.87329102 C20.15351318 1747.94601196 20.15351318 1747.94601196 21.6875 1747 C23.86011105 1745.69567128 26.03330807 1744.39231821 28.20703125 1743.08984375 C29.32932129 1742.41163574 30.45161133 1741.73342773 31.60791016 1741.03466797 C36.98965623 1737.80654995 42.43216997 1734.68613219 47.875 1731.5625 C50.06008488 1730.30371352 52.24497969 1729.04459705 54.4296875 1727.78515625 C55.51475586 1727.16012207 56.59982422 1726.53508789 57.71777344 1725.89111328 C63.14659942 1722.76319852 68.57319281 1719.63141552 74 1716.5 C76.16665583 1715.24998121 78.3333225 1713.99998122 80.5 1712.75 C81.5725 1712.13125 82.645 1711.5125 83.75 1710.875 C119.49999992 1690.25000004 119.49999992 1690.25000004 122.75170898 1688.37402344 C124.91268988 1687.12729744 127.07365998 1685.88055273 129.23461914 1684.63378906 C134.73818851 1681.45854117 140.24196032 1678.28364505 145.74609375 1675.109375 C146.85670166 1674.4687915 147.96730957 1673.82820801 149.11157227 1673.16821289 C151.30332398 1671.90413059 153.49521517 1670.6402901 155.68725586 1669.37670898 C160.73698885 1666.4647286 165.7832428 1663.54712017 170.8203125 1660.61328125 C171.71049072 1660.09540039 172.60066895 1659.57751953 173.51782227 1659.04394531 C175.17304482 1658.08031771 176.82723681 1657.11491699 178.48022461 1656.14746094 C183.88893876 1653 183.88893876 1653 185 1653 C185 1756.62 185 1860.24 185 1967 C177.13004082 1963.06502041 169.53785395 1959.09995187 162 1954.625 C159.8965103 1953.38686999 157.79231395 1952.14993994 155.6875 1950.9140625 C154.59695313 1950.2737207 153.50640625 1949.63337891 152.3828125 1948.97363281 C146.61253076 1945.60707987 140.80555221 1942.3051767 135 1939 C125.27819258 1933.46113995 115.59103798 1927.86624288 105.93310547 1922.21655273 C95.40915375 1916.06233258 84.84619863 1909.97630004 74.28222656 1903.89111328 C68.85340058 1900.76319852 63.42680719 1897.63141552 58 1894.5 C55.83334417 1893.24998121 53.6666775 1891.99998122 51.5 1890.75 C3.83333333 1863.25 -43.83333333 1835.75 -91.5 1808.25 C-92.57266113 1807.63116943 -93.64532227 1807.01233887 -94.75048828 1806.37475586 C-96.91557071 1805.12564482 -99.08060982 1803.87645871 -101.24560547 1802.62719727 C-106.68615706 1799.48797691 -112.12747216 1796.35009437 -117.5703125 1793.21484375 C-128.02206199 1787.19252671 -138.46299548 1781.15330663 -148.875 1775.0625 C-157.55262241 1769.98724877 -166.26605568 1764.97741233 -175 1760 C-184.72115617 1754.4599827 -194.40894658 1748.86625191 -204.06689453 1743.21655273 C-214.59084625 1737.06233258 -225.15380137 1730.97630004 -235.71777344 1724.89111328 C-241.14659942 1721.76319852 -246.57319281 1718.63141552 -252 1715.5 C-254.16665583 1714.24998121 -256.3333225 1712.99998122 -258.5 1711.75 C-297.5 1689.25 -336.5 1666.75 -375.5 1644.25 C-376.57266113 1643.63116943 -377.64532227 1643.01233887 -378.75048828 1642.37475586 C-380.91557071 1641.12564482 -383.08060982 1639.87645871 -385.24560547 1638.62719727 C-390.68615706 1635.48797691 -396.12747216 1632.35009437 -401.5703125 1629.21484375 C-412.02206199 1623.19252671 -422.46299548 1617.15330663 -432.875 1611.0625 C-441.55262241 1605.98724877 -450.26605568 1600.97741233 -459 1596 C-468.72115617 1590.4599827 -478.40894658 1584.86625191 -488.06689453 1579.21655273 C-495.32211799 1574.97382685 -502.59359649 1570.76013014 -509.875 1566.5625 C-511.48906738 1565.63171631 -511.48906738 1565.63171631 -513.13574219 1564.68212891 C-518.66088272 1561.49721287 -524.18857131 1558.31678454 -529.71875 1555.140625 C-531.39155029 1554.17854126 -531.39155029 1554.17854126 -533.09814453 1553.19702148 C-535.17112876 1552.00484705 -537.24491998 1550.81407378 -539.31982422 1549.62524414 C-541.29399267 1548.48933849 -543.24779697 1547.31730894 -545.1796754 1546.11088097 C-548.01682481 1544.42803213 -550.83639515 1543.30994454 -553.94520777 1542.21677768 C-559.91596398 1539.83949706 -565.0156584 1537.16800414 -569 1532 C-572.65020019 1521.90586567 -571.6953064 1510.36477494 -571.50113611 1499.78857237 C-571.44033042 1495.26902297 -571.49599198 1490.750633 -571.53667849 1486.23106468 C-571.59193785 1478.31388519 -571.57301325 1470.39958864 -571.50523376 1462.48254585 C-571.40472996 1450.71060266 -571.41890813 1438.94073659 -571.45607041 1427.1685229 C-571.51516288 1407.36423405 -571.47996646 1387.5611508 -571.38968849 1367.75702286 C-571.3003352 1348.1454923 -571.24847436 1328.5344992 -571.24799156 1308.9227562 C-571.24792289 1307.70308031 -571.24785422 1306.48340442 -571.24778347 1305.22676865 C-571.2476108 1300.27587127 -571.24769572 1295.32497399 -571.24812788 1290.37407662 C-571.25197675 1243.92981019 -571.14812227 1197.4863627 -570.98959536 1151.04239502 C-570.84917014 1109.76046395 -570.77976261 1068.47943469 -570.77758789 1027.19726562 C-570.77750494 1025.88427906 -570.77742198 1024.5712925 -570.77733652 1023.21851846 C-570.77716914 1020.56916714 -570.7770072 1017.91981582 -570.7768507 1015.27046449 C-570.77645397 1008.67212649 -570.77598397 1002.0737885 -570.77542591 995.47545052 C-570.77532902 994.17375617 -570.77523214 992.87206183 -570.77513232 991.5309222 C-570.77190188 957.05207716 -570.72387231 922.5733027 -570.66020316 888.09452045 C-570.65793937 886.86849233 -570.65567557 885.64246421 -570.65334318 884.37928373 C-570.644204 879.44895887 -570.63504211 874.51863407 -570.62562563 869.58830972 C-570.59296655 852.419977 -570.57451732 835.25168257 -570.56496528 818.08332253 C-570.55233166 795.96576971 -570.50866017 773.84861925 -570.41177634 751.73126383 C-570.36130262 740.02795083 -570.33527584 728.32519655 -570.34444201 716.62177469 C-570.34802916 708.81328561 -570.3190212 701.00536481 -570.26296965 693.19707697 C-570.23187571 688.74213332 -570.21513816 684.28837793 -570.23752425 679.83335449 C-570.25755114 675.78357279 -570.23650888 671.73620152 -570.18208632 667.68675497 C-570.16975585 666.2278822 -570.17260852 664.76878582 -570.19215712 663.30999191 C-570.32572418 652.44430754 -570.32572418 652.44430754 -567.0158098 648.83832799 C-564.7307083 647.28841778 -562.52327525 646.10893105 -560 645 C-558.63766235 644.18208984 -558.63766235 644.18208984 -557.24780273 643.34765625 C-556.48411377 642.92355469 -555.7204248 642.49945312 -554.93359375 642.0625 C-554.04889404 641.56766113 -553.16419434 641.07282227 -552.25268555 640.56298828 C-551.32367432 640.04720215 -550.39466309 639.53141602 -549.4375 639 C-541.31054156 634.44743174 -533.22572089 629.83252148 -525.1875 625.125 C-513.58061953 618.33107444 -501.93606995 611.60410088 -490.28222656 604.89111328 C-484.85340058 601.76319852 -479.42680719 598.63141552 -474 595.5 C-471.83334417 594.24998121 -469.6666775 592.99998122 -467.5 591.75 C-466.4275 591.13125 -465.355 590.5125 -464.25 589.875 C-350.5 524.25 -350.5 524.25 -347.24951172 522.37475586 C-345.08442929 521.12564482 -342.91939018 519.87645871 -340.75439453 518.62719727 C-335.31384294 515.48797691 -329.87252784 512.35009437 -324.4296875 509.21484375 C-313.97793801 503.19252671 -303.53700452 497.15330663 -293.125 491.0625 C-283.85500223 485.64078822 -274.54168248 480.29795085 -265.21154785 474.98077393 C-256.0871716 469.77954871 -246.99867226 464.51972122 -237.93310547 459.21655273 C-227.40915375 453.06233258 -216.84619863 446.97630004 -206.28222656 440.89111328 C-200.85340058 437.76319852 -195.42680719 434.63141552 -190 431.5 C-187.83334417 430.24998121 -185.6666775 428.99998122 -183.5 427.75 C-182.4275 427.13125 -181.355 426.5125 -180.25 425.875 C-66.49999999 360.25 -66.49999999 360.25 -63.24829102 358.37402344 C-61.08731012 357.12729744 -58.92634002 355.88055273 -56.76538086 354.63378906 C-51.26181149 351.45854117 -45.75803968 348.28364505 -40.25390625 345.109375 C-39.14337891 344.4687915 -38.03285156 343.82820801 -36.88867188 343.16821289 C-34.69626926 341.90384799 -32.50356786 340.64000103 -30.31054688 339.37670898 C-25.26933721 336.47120517 -20.23418434 333.55642826 -15.21484375 330.61328125 C-14.32917725 330.09540039 -13.44351074 329.57751953 -12.53100586 329.04394531 C-10.88774342 328.08211292 -9.24650284 327.11681477 -7.60766602 326.14746094 C-2.22318174 323 -2.22318174 323 0 323 C0 216.41 0 109.82 0 0 Z " fill="#26C3EC" transform="translate(569,5)"/>
<path d="M0 0 C1.19947769 -0.0038269 2.39895538 -0.00765381 3.63478088 -0.01159668 C6.16904541 -0.01431621 8.70333799 -0.00695229 11.23754883 0.00976562 C15.11147875 0.03115378 18.98354997 0.00997273 22.85742188 -0.015625 C25.32161867 -0.01298137 27.78581431 -0.00785566 30.25 0 C31.40640488 -0.00809692 32.56280975 -0.01619385 33.7542572 -0.02453613 C38.46359359 0.03021317 41.97012807 0.22848769 46.34399414 2.06445312 C51.74172311 7.73669998 51.78948946 18.54086983 53.02978516 26.01220703 C53.25641608 27.36328457 53.48331661 28.7143169 53.71046448 30.06530762 C54.32291554 33.71336961 54.93125631 37.3621054 55.53856325 41.01102686 C56.04687754 44.06305979 56.5571278 47.11476783 57.06734121 50.16648376 C58.27087344 57.36553688 59.47096865 64.5651572 60.66894531 71.76513672 C61.90350338 79.18458198 63.1440244 86.60301295 64.38744223 94.02097809 C65.45680528 100.40191233 66.52239624 106.78346874 67.58498895 113.1655339 C68.21882567 116.97217593 68.85409552 120.77856448 69.49303055 124.5843544 C70.09328418 128.16070702 70.68881656 131.73781456 71.28075981 135.31555176 C71.60193105 137.2495552 71.92789631 139.18276062 72.25401306 141.11593628 C72.44464828 142.27377625 72.63528351 143.43161621 72.83169556 144.62454224 C73.08221396 146.12714946 73.08221396 146.12714946 73.33779335 147.66011238 C73.70551127 150.64577483 73.75278283 153.52612016 73.69140625 156.53125 C74.35140625 156.53125 75.01140625 156.53125 75.69140625 156.53125 C75.82095703 155.726875 75.82095703 155.726875 75.953125 154.90625 C77.32181711 147.27171055 79.64209104 139.99226278 82.01806641 132.62792969 C83.0968046 129.26890011 84.14267801 125.89974197 85.19140625 122.53125 C85.61450857 121.1796641 86.03768552 119.82810155 86.4609375 118.4765625 C87.23698465 115.99441948 88.00410928 113.51013247 88.765625 111.0234375 C90.04971156 106.85128256 91.36520772 102.69017853 92.69140625 98.53125 C93.05959473 97.36996582 93.4277832 96.20868164 93.80712891 95.01220703 C94.86859021 91.67251637 95.94601868 88.33823164 97.03115845 85.00616455 C97.46707711 83.66099229 97.89878645 82.31444778 98.32601929 80.9664917 C100.62339033 73.73109323 102.66486985 67.31346501 107.69140625 61.53125 C110.92450467 59.91470079 114.46935982 60.32557415 118.0234375 60.29296875 C118.85219894 60.284897 119.68096039 60.27682526 120.53483582 60.26850891 C122.2908621 60.25466779 124.04691529 60.24394576 125.80297852 60.23608398 C128.48310634 60.21888349 131.16199653 60.17500074 133.84179688 60.13085938 C135.54816801 60.12073121 137.25454964 60.11221549 138.9609375 60.10546875 C139.76006058 60.08796066 140.55918365 60.07045258 141.38252258 60.05241394 C145.00292622 60.06646216 147.23809503 60.29384651 150.48706055 61.99536133 C156.4537017 68.85941069 158.44204524 78.56984719 161.09765625 87.078125 C161.50789457 88.37947446 161.91858903 89.68068021 162.32971191 90.98175049 C163.40469066 94.38810667 164.47330314 97.79642695 165.54058838 101.2052002 C166.61675611 104.63807735 167.6993833 108.06891559 168.78125 111.5 C171.09401313 118.84082876 173.39930435 126.1839392 175.69140625 133.53125 C176.06080322 134.70667358 176.4302002 135.88209717 176.81079102 137.09313965 C177.1664917 138.23319458 177.52219238 139.37324951 177.88867188 140.54785156 C178.2056604 141.5599469 178.52264893 142.57204224 178.84924316 143.61480713 C180.07769966 147.8689988 180.94313918 152.16964061 181.69140625 156.53125 C182.35140625 156.53125 183.01140625 156.53125 183.69140625 156.53125 C183.73313965 155.86512695 183.77487305 155.19900391 183.81787109 154.51269531 C184.47897469 145.34970706 185.85586719 136.34152751 187.31640625 127.28125 C187.58416058 125.60058808 187.85190114 123.91992397 188.11962891 122.23925781 C190.1202111 109.75537768 192.28071866 97.30207599 194.49871826 84.85522461 C196.36791642 74.35592106 198.1420208 63.84600994 199.80859375 53.3125 C199.98663544 52.18813538 200.16467712 51.06377075 200.34811401 49.90533447 C201.22060019 44.38191847 202.08469075 38.85731561 202.93896484 33.33105469 C203.81137556 27.72315016 204.72438118 22.12362249 205.69140625 16.53125 C205.86796753 15.49327271 205.86796753 15.49327271 206.0480957 14.43432617 C206.35139209 12.72647598 206.6987703 11.02660351 207.05078125 9.328125 C207.3132666 8.04180176 207.3132666 8.04180176 207.58105469 6.72949219 C209.25134623 3.42269689 211.2904449 1.79567612 214.69140625 0.53125 C218.82880379 -0.05715998 222.9238623 -0.05310652 227.09765625 -0.03515625 C228.29571899 -0.04135483 229.49378174 -0.04755341 230.72814941 -0.05393982 C233.25642078 -0.06103095 235.78473892 -0.05787645 238.31298828 -0.04516602 C242.17828336 -0.03129709 246.04115908 -0.06539108 249.90625 -0.10351562 C252.36588601 -0.10446681 254.82552504 -0.10260801 257.28515625 -0.09765625 C258.43842407 -0.11091446 259.59169189 -0.12417267 260.77990723 -0.13783264 C269.72163112 -0.03419319 269.72163112 -0.03419319 273.46679688 2.63305664 C276.3065346 6.33263154 276.26164497 7.94604663 275.69140625 12.53125 C275.29292557 15.29176705 274.84710723 18.00148174 274.328125 20.73828125 C274.18054245 21.54719315 274.0329599 22.35610504 273.88090515 23.18952942 C273.55674907 24.96600136 273.2301095 26.7420215 272.90130615 28.51763916 C271.97797101 33.51275393 271.07802996 38.51205716 270.1796875 43.51171875 C269.98330688 44.6042395 269.78692627 45.69676025 269.58459473 46.8223877 C267.0768348 60.85735933 264.75499152 74.92364426 262.42539215 88.98903656 C261.8263333 92.60558079 261.22635894 96.22197315 260.62646484 99.83837891 C260.50938927 100.54416832 260.39231369 101.24995773 260.27169037 101.9771347 C260.03834819 103.38380352 259.80499563 104.79047061 259.57163239 106.19713593 C259.34239039 107.57909074 259.11319794 108.96105378 258.88405609 110.34302521 C257.12125099 120.97357586 255.33564624 131.59985378 253.50390625 142.21875 C253.28001221 143.51683594 253.05611816 144.81492187 252.82543945 146.15234375 C252.48468344 148.12698586 252.14384763 150.10161405 251.80278015 152.07620239 C250.10183967 161.93313881 248.43054167 171.79515716 246.75390625 181.65625 C246.07563084 185.64454997 245.39723705 189.63282978 244.71875 193.62109375 C244.55098557 194.60725677 244.38322113 195.5934198 244.21037292 196.60946655 C243.04109142 203.48094128 241.86909182 210.35194848 240.6953125 217.22265625 C240.53561478 218.1574884 240.37591705 219.09232056 240.21138 220.05548096 C239.45779218 224.46625236 238.70384419 228.8769619 237.94946289 233.28759766 C237.81318985 234.0854216 237.67691681 234.88324554 237.53651428 235.70524597 C237.27448823 237.23738982 237.01161009 238.76938824 236.74778748 240.30122375 C236.18347544 243.58788922 235.63882128 246.87381073 235.1328125 250.17016602 C234.96910156 251.23291748 234.80539062 252.29566895 234.63671875 253.390625 C234.43973389 254.73398926 234.43973389 254.73398926 234.23876953 256.10449219 C233.06821536 261.29419264 230.71009668 265.23748483 226.23168945 268.10766602 C221.53223181 269.99736587 217.45509262 269.96218336 212.4375 269.9296875 C211.45902603 269.93255768 210.48055206 269.93542786 209.47242737 269.93838501 C207.41073017 269.94042038 205.34901343 269.9349275 203.28735352 269.92236328 C200.135791 269.90628512 196.98550753 269.92223909 193.83398438 269.94140625 C191.82682009 269.93942406 189.81965661 269.9355809 187.8125 269.9296875 C186.87280869 269.93576019 185.93311737 269.94183289 184.96495056 269.9480896 C180.06825938 269.89554081 176.5746413 269.82693319 172.69140625 266.53125 C168.61748582 262.33133594 166.49921161 258.30863745 164.625 252.76171875 C164.35327469 251.99228439 164.08154938 251.22285004 163.80158997 250.43009949 C162.89858069 247.86371633 162.01388025 245.29140232 161.12890625 242.71875 C160.49111064 240.89557523 159.85208083 239.07283182 159.21191406 237.25048828 C157.80662587 233.24313216 156.40921554 229.23313869 155.01708984 225.22119141 C152.48437699 217.92654792 149.92692834 210.64065687 147.3671875 203.35546875 C146.45836178 200.76865466 145.54958561 198.18182317 144.64086914 195.5949707 C144.41685519 194.95731875 144.19284124 194.31966681 143.96203899 193.66269207 C142.40689374 189.23484354 140.85578823 184.80559763 139.30639648 180.37573242 C138.88919846 179.18361649 138.47200043 177.99150055 138.04216003 176.76325989 C137.25988287 174.52749604 136.47827146 172.2914991 135.69746399 170.05522156 C134.16377677 165.67380609 132.61619294 161.30913676 130.93261719 156.98291016 C129.69140625 153.53125 129.69140625 153.53125 129.69140625 150.53125 C129.03140625 150.53125 128.37140625 150.53125 127.69140625 150.53125 C127.42835693 151.81999023 127.16530762 153.10873047 126.89428711 154.43652344 C125.77534204 159.45584548 124.18798041 164.21428462 122.4453125 169.046875 C122.12230667 169.95644958 121.79930084 170.86602417 121.46650696 171.80316162 C120.40134004 174.79792621 119.32823206 177.78975975 118.25390625 180.78125 C117.11186439 183.97106741 115.97051994 187.16113389 114.8291626 190.35119629 C114.02959843 192.58511443 113.22925093 194.81875235 112.42816162 197.05212402 C109.86927908 204.19670166 107.35181201 211.35450466 104.86393738 218.52410889 C103.18480547 223.35787565 101.49110085 228.18647209 99.79562378 233.01452637 C98.98090497 235.34539201 98.17249448 237.67847291 97.37063599 240.01379395 C96.24208853 243.29672325 95.09044353 246.57070538 93.93359375 249.84375 C93.60805008 250.80947937 93.28250641 251.77520874 92.94709778 252.77020264 C90.68706854 259.06784832 87.7683336 264.07005815 82.69140625 268.53125 C79.91687598 269.45609342 78.18480314 269.67178554 75.31518555 269.70825195 C74.43384445 269.72108719 73.55250336 269.73392242 72.64445496 269.74714661 C71.21943413 269.75822701 71.21943413 269.75822701 69.765625 269.76953125 C68.78527786 269.777603 67.80493073 269.78567474 66.7948761 269.79399109 C64.71946985 269.8078228 62.64404094 269.81854904 60.56860352 269.82641602 C57.40141517 269.84362768 54.2352711 269.88752223 51.06835938 269.93164062 C49.05078892 269.941768 47.03320959 269.95028396 45.015625 269.95703125 C43.59971321 269.98329338 43.59971321 269.98329338 42.15519714 270.01008606 C36.50230276 269.99152076 33.06259558 269.47224449 28.69140625 265.53125 C24.81805801 260.8854105 23.76451606 256.64719432 22.80859375 250.8515625 C22.64946503 249.95607697 22.4903363 249.06059143 22.3263855 248.13796997 C21.76438366 244.93843754 21.22708715 241.73529211 20.69140625 238.53125 C20.36089941 236.58751216 20.0303803 234.64377638 19.69951248 232.70009995 C18.17354146 223.72223545 16.68619846 214.7380627 15.20373535 205.75292969 C14.05971037 198.82171749 12.91088145 191.89129943 11.76171875 184.9609375 C11.63585262 184.20139771 11.5099865 183.44185791 11.38030624 182.65930176 C8.75651447 166.83371085 6.04944985 151.02278591 3.32550049 135.21417236 C2.49820056 130.40907998 1.67583953 125.60315454 0.85546875 120.796875 C0.72632584 120.04056793 0.59718292 119.28426086 0.46412659 118.5050354 C0.21096669 117.02224605 -0.04214174 115.53944791 -0.29519653 114.05664062 C-0.71271767 111.6106301 -1.13064545 109.16468923 -1.54858398 106.71875 C-2.97492103 98.36795716 -4.39699756 90.01647179 -5.80924988 81.6632843 C-6.49197314 77.62534505 -7.17585755 73.58760291 -7.85995483 69.54989624 C-8.19928218 67.545922 -8.53817346 65.54187387 -8.87661743 63.53775024 C-10.57459286 53.48926908 -12.29811019 43.44879235 -14.18359375 33.43359375 C-14.40129677 32.27073349 -14.40129677 32.27073349 -14.62339783 31.0843811 C-15.29178547 27.52017229 -15.97059257 23.95861003 -16.67016602 20.40039062 C-16.90276123 19.17384766 -17.13535645 17.94730469 -17.375 16.68359375 C-17.58068604 15.63163818 -17.78637207 14.57968262 -17.99829102 13.49584961 C-18.47629552 8.92904495 -18.36195803 5.906862 -15.51538086 2.18945312 C-10.48567486 -0.4113663 -5.58119183 -0.03901014 0 0 Z " fill="#FEFEFE" transform="translate(529.30859375,872.46875)"/>
<path d="M0 0 C12.68683802 11.43622092 24.32262995 26.31353998 26.7265625 43.77368164 C26.74847656 44.57547852 26.77039062 45.37727539 26.79296875 46.20336914 C26.83292969 47.01032227 26.87289063 47.81727539 26.9140625 48.64868164 C26.28265666 51.39507629 25.30504446 53.06185499 23.26109314 55.00848389 C18.79703222 57.51476633 13.14152155 56.76015871 8.171875 56.70727539 C6.88361313 56.70968735 5.59535126 56.7120993 4.26805115 56.71458435 C1.54515923 56.71743755 -1.17690795 56.70279269 -3.8996582 56.67529297 C-7.37786425 56.64124273 -10.85459319 56.64722037 -14.33286953 56.66595554 C-17.66476607 56.67911054 -20.9962387 56.66079514 -24.328125 56.64477539 C-25.57202499 56.64973526 -26.81592499 56.65469513 -28.09751892 56.6598053 C-38.87704466 56.51322847 -38.87704466 56.51322847 -43.64453125 52.07836914 C-45.296875 49.71118164 -45.296875 49.71118164 -46.58203125 47.20336914 C-51.48648257 38.54096161 -58.44806801 34.33310315 -67.62890625 30.99243164 C-72.95260838 29.5296892 -78.41312887 29.70988686 -83.89453125 29.70336914 C-85.49748047 29.66663086 -85.49748047 29.66663086 -87.1328125 29.62915039 C-96.83575934 29.5937812 -106.07695906 31.53692082 -113.2734375 38.45727539 C-117.36814351 43.29859446 -118.21174775 48.45407029 -117.98828125 54.59008789 C-117.11412035 60.9178208 -113.91185157 65.7846952 -108.88671875 69.65258789 C-93.52314956 79.42210488 -73.62107102 82.55613436 -56.01953125 86.07836914 C-39.21557308 89.44985806 -22.23326391 93.86433937 -6.64453125 101.07836914 C-6.02433105 101.36260742 -5.40413086 101.6468457 -4.76513672 101.93969727 C13.59319005 110.51031011 25.97372593 123.77743804 33.3984375 142.74243164 C39.10332812 161.33019733 36.23636457 184.07016165 27.43554688 201.14575195 C13.90744983 225.35199432 -10.9670052 237.75687495 -36.64453125 245.07836914 C-38.17207031 245.52696289 -38.17207031 245.52696289 -39.73046875 245.98461914 C-75.75252613 255.85367596 -122.42671624 252.49625419 -155.36816406 234.00561523 C-174.5154003 222.7798473 -189.03721189 207.1670802 -195.01953125 185.32836914 C-197.48828125 175.14086914 -197.48828125 175.14086914 -196.64453125 170.07836914 C-194.46878709 167.38731716 -192.73387269 165.62303986 -189.64453125 164.07836914 C-187.99206677 163.96776372 -186.33526491 163.91922394 -184.67919922 163.90136719 C-183.64407196 163.88853195 -182.6089447 163.87569672 -181.54244995 163.86247253 C-179.85661301 163.85139214 -179.85661301 163.85139214 -178.13671875 163.84008789 C-176.98213165 163.83201614 -175.82754456 163.8239444 -174.63796997 163.81562805 C-172.18834947 163.80177561 -169.73870957 163.79105867 -167.2890625 163.78320312 C-163.55561238 163.76603506 -159.82305788 163.72216295 -156.08984375 163.67797852 C-153.70964193 163.66784782 -151.32943257 163.6593329 -148.94921875 163.65258789 C-147.83747284 163.6350798 -146.72572693 163.61757172 -145.58029175 163.59953308 C-138.79006616 163.61837986 -134.42667507 164.44698787 -128.64453125 168.07836914 C-126.58203125 170.26586914 -126.58203125 170.26586914 -124.64453125 173.07836914 C-120.06188761 179.62500291 -115.60827344 184.11006017 -108.64453125 188.07836914 C-107.63390625 188.65586914 -106.62328125 189.23336914 -105.58203125 189.82836914 C-97.51663593 193.26045226 -89.9934792 193.38557188 -81.33203125 193.32836914 C-80.17251953 193.33610352 -79.01300781 193.34383789 -77.81835938 193.35180664 C-65.92115189 193.32505631 -53.14329412 192.17801218 -43.26953125 184.82836914 C-38.52219916 179.85497361 -36.42948121 175.44015324 -36.14453125 168.51586914 C-36.42375011 162.38997649 -37.81229646 158.69884806 -42.31640625 154.53149414 C-49.47276191 149.15035849 -58.21997583 146.75764791 -66.64453125 144.07836914 C-67.65797607 143.74772461 -67.65797607 143.74772461 -68.69189453 143.41040039 C-77.42805112 140.57774829 -86.20200956 138.49554644 -95.20703125 136.70336914 C-124.34507906 130.84104388 -159.70257747 122.21324677 -177.84521484 96.36791992 C-182.11833293 89.76039652 -185.85322512 82.78233236 -187.64453125 75.07836914 C-187.84691406 74.23790039 -188.04929687 73.39743164 -188.2578125 72.53149414 C-192.59417981 51.17414768 -188.99963745 30.74255981 -176.953125 12.51977539 C-175.27386314 10.27166844 -173.51484719 8.16965068 -171.64453125 6.07836914 C-171.01289062 5.35391602 -170.38125 4.62946289 -169.73046875 3.88305664 C-129.28329125 -39.59387199 -43.26664143 -37.71562917 0 0 Z " fill="#FDFEFE" transform="translate(1023.64453125,895.921630859375)"/>
<path d="M0 0 C1.68734001 -0.02409439 1.68734001 -0.02409439 3.4087677 -0.04867554 C8.55553395 -0.09304366 13.70221105 -0.13462993 18.84912109 -0.15722656 C21.56626083 -0.17056102 24.28264865 -0.19840273 26.99951172 -0.23925781 C30.91070535 -0.29807059 34.82153356 -0.31588854 38.7331543 -0.33056641 C39.94787918 -0.35323578 41.16260406 -0.37590515 42.41413879 -0.39926147 C51.79263541 -0.37569814 51.79263541 -0.37569814 54.86279297 2.66308594 C55.44262939 3.49791504 56.02246582 4.33274414 56.61987305 5.19287109 C57.11487305 5.68787109 57.11487305 5.68787109 57.61987305 6.19287109 C57.72250962 8.33822367 57.75343032 10.48700975 57.75790405 12.6348114 C57.76072533 13.31590825 57.76354661 13.99700511 57.76645339 14.69874126 C57.77483664 16.99847225 57.77614087 19.29815533 57.77758789 21.59790039 C57.78225383 23.24033749 57.78739703 24.88277329 57.79298401 26.52520752 C57.8042895 30.07306994 57.81271224 33.62092383 57.81910324 37.16879845 C57.82977413 42.78898121 57.85002087 48.40910353 57.8722229 54.0292511 C57.93416373 70.01515912 57.98802831 86.0010652 58.02124023 101.98706055 C58.03964706 110.80800911 58.06866701 119.62885793 58.10924494 128.44973308 C58.13023026 133.11488214 58.14575996 137.77990588 58.14805222 142.4451046 C58.1502165 146.84545385 58.16626514 151.24554315 58.19244194 155.64581299 C58.19957179 157.25086338 58.20176704 158.8559455 58.19833946 160.46100807 C58.17156868 175.39641154 59.28699776 191.44430302 69.4362793 203.31787109 C79.81548044 213.04706166 91.93948474 215.6904981 105.71362305 215.38037109 C110.55778315 215.14785141 114.97329621 214.57022096 119.61987305 213.19287109 C120.44874023 212.94794922 121.27760742 212.70302734 122.1315918 212.45068359 C133.08879669 208.65845036 138.93581907 201.6106385 144.2097168 191.53662109 C146.87231219 185.22309849 147.86931897 179.52204964 147.87815857 172.69673157 C147.88183427 171.98696944 147.88550998 171.27720731 147.88929707 170.54593724 C147.89919701 168.19160098 147.89514249 165.83750463 147.89111328 163.4831543 C147.89550476 161.78567252 147.90080845 160.08819289 147.9069519 158.39071655 C147.91841692 154.74745175 147.92390872 151.10424484 147.9248333 147.4609623 C147.92677911 141.69984808 147.94485842 135.93885329 147.96559143 130.17778015 C148.01470108 115.87392454 148.04569068 101.57003676 148.06689453 87.26611328 C148.08341254 76.13756885 148.10619562 65.00912747 148.14991528 53.88065213 C148.17170035 48.15340621 148.17974881 42.42635604 148.17752254 36.69907153 C148.1791881 33.13916035 148.19322849 29.57937737 148.21073532 26.01951218 C148.21633844 24.36874383 148.21681673 22.71794895 148.21179771 21.06717873 C148.20566454 18.81384533 148.21787193 16.56132252 148.23460388 14.30805969 C148.23762087 12.41691673 148.23762087 12.41691673 148.24069881 10.48756886 C148.65069963 6.92501466 149.49350142 5.04716784 151.61987305 2.19287109 C154.69495761 0.03804008 157.34593268 -0.06391297 161.04345703 -0.08178711 C162.12815781 -0.09131912 163.21285858 -0.10085114 164.33042908 -0.110672 C165.49715652 -0.10976059 166.66388397 -0.10884918 167.8659668 -0.10791016 C169.06923111 -0.11219528 170.27249542 -0.11648041 171.51222229 -0.12089539 C174.0566444 -0.12663789 176.60108292 -0.12713955 179.14550781 -0.12280273 C183.03894044 -0.11964386 186.93161256 -0.14310048 190.82495117 -0.16845703 C193.29695542 -0.17073012 195.76896171 -0.17143348 198.2409668 -0.17041016 C199.40567001 -0.1796199 200.57037323 -0.18882965 201.77037048 -0.19831848 C202.85822342 -0.19208969 203.94607635 -0.1858609 205.06689453 -0.17944336 C206.02079575 -0.18007278 206.97469696 -0.18070221 207.95750427 -0.18135071 C212.08259315 0.39847062 214.71623585 2.2892339 217.61987305 5.19287109 C217.87434864 8.18419647 217.87434864 8.18419647 217.88056946 12.10778809 C217.88439501 12.82775262 217.88822055 13.54771716 217.89216202 14.28949881 C217.90252437 16.71504501 217.89849356 19.14035588 217.89453125 21.56591797 C217.89887652 23.30053426 217.90405905 25.03514863 217.91001892 26.76976013 C217.92345505 31.49592765 217.9239814 36.22201541 217.92145562 40.94819832 C217.92038683 44.90076577 217.92526808 48.85331703 217.93006104 52.80588102 C217.94117682 62.14794335 217.94158512 71.4899655 217.93554688 80.83203125 C217.92953444 90.43500983 217.94174346 100.03784088 217.96311694 109.64079428 C217.98082046 117.90177891 217.98671973 126.16271701 217.9834792 134.42371988 C217.98167659 139.34945073 217.98419731 144.27507688 217.99819374 149.20079041 C218.01090656 153.84982359 218.0087029 158.4986309 217.99578285 163.14766121 C217.99344467 164.8397384 217.9960506 166.53183213 218.00440598 168.2238903 C218.07206696 183.01224911 216.93602198 198.0361133 211.49487305 211.94287109 C211.19629395 212.72525146 210.89771484 213.50763184 210.59008789 214.3137207 C201.54595577 236.96568641 183.87341167 253.28265918 161.68237305 262.81787109 C159.66687986 263.6230361 157.64605157 264.41498673 155.61987305 265.19287109 C154.69819336 265.55380859 153.77651367 265.91474609 152.8269043 266.28662109 C143.97990985 269.50814735 134.90708131 270.90342248 125.61987305 272.19287109 C124.68788086 272.32693359 123.75588867 272.46099609 122.7956543 272.59912109 C90.38363284 276.35703663 51.43020203 272.03790424 24.86987305 251.69287109 C23.44915022 250.53114729 22.03216467 249.36483011 20.61987305 248.19287109 C19.74782227 247.53931641 19.74782227 247.53931641 18.8581543 246.87255859 C2.39990165 234.05890735 -7.26256557 211.44371235 -10.00508595 191.24359989 C-11.31402448 180.59618694 -11.53922817 170.01485343 -11.55712891 159.30444336 C-11.56340823 157.63592899 -11.57005627 155.96741598 -11.57704163 154.29890442 C-11.59787861 148.86903827 -11.60841243 143.43917242 -11.6184082 138.00927734 C-11.6224609 136.13221663 -11.62657797 134.25515606 -11.63075829 132.37809563 C-11.64975093 123.57085523 -11.66400425 114.763623 -11.67237025 105.95636612 C-11.68217484 95.8054778 -11.70860256 85.65480564 -11.74887115 75.50399357 C-11.77899728 67.63961781 -11.79383507 59.77530428 -11.79715127 51.91087192 C-11.79950209 47.21983143 -11.80846995 42.52902353 -11.83361244 37.83804512 C-11.85684242 33.43429436 -11.86114706 29.03093041 -11.85085106 24.62713432 C-11.85035465 23.0118163 -11.8567059 21.39647947 -11.8704071 19.78121948 C-11.88806706 17.57609758 -11.88105122 15.37237383 -11.86787415 13.16725159 C-11.8702625 11.93380792 -11.87265085 10.70036425 -11.87511158 9.4295435 C-11.28683307 5.58282843 -10.08372714 3.93788713 -7.38012695 1.19287109 C-4.79753228 -0.09842624 -2.89206953 0.0374525 0 0 Z " fill="#FEFEFE" transform="translate(256.380126953125,872.80712890625)"/>
</svg>
