<svg xmlns="http://www.w3.org/2000/svg" version="1.1" xmlns:xlink="http://www.w3.org/1999/xlink" xmlns:svgjs="http://svgjs.dev/svgjs" viewBox="0 0 600 600"><path d="M1.347305417060852,367.8143615722656C-3.44311382373174,322.45508066813153,-6.5868261853853864,153.74251556396484,1.347305417060852,116.31736755371094C9.281437019507091,78.89221954345703,23.502993285655975,132.63473256429037,48.95209503173828,143.2634735107422C74.40119677782059,153.892214457194,116.61676661173502,172.90418497721353,154.0419158935547,180.08981323242188C191.46706517537436,187.27544148763022,232.03592681884766,188.62275187174478,273.50299072265625,186.3772430419922C314.97005462646484,184.1317342122396,365.2694498697917,170.65867614746094,402.84429931640625,166.61676025390625C440.4191487630208,162.57484436035156,470.50897216796875,160.47903951009116,498.95208740234375,162.12574768066406C527.3952026367188,163.77245585123697,557.0359191894531,172.9041951497396,573.5029907226562,176.49700927734375C589.9700622558594,180.0898234049479,593.7125956217448,133.5329335530599,597.7545166015625,183.68263244628906C601.7964375813802,233.83233133951822,608.0838623046875,431.2874170939128,597.7545166015625,477.39520263671875C587.4251708984375,523.5029881795248,557.784434000651,464.8203633626302,535.7784423828125,460.329345703125C513.772450764974,455.8383280436198,488.0239562988281,451.1976013183594,465.71856689453125,450.4490966796875C443.4131774902344,449.7005920410156,423.65269470214844,453.2934061686198,401.94610595703125,455.83831787109375C380.23951721191406,458.3832295735677,361.22753651936847,463.9221598307292,335.4790344238281,465.71856689453125C309.7305323282878,467.5149739583333,275.5988057454427,469.91017659505206,247.45509338378906,466.61676025390625C219.3113810221354,463.32334391276044,193.41316858927408,453.5927988688151,166.61676025390625,445.95806884765625C139.82035191853842,438.3233388264974,109.43113327026367,430.38921610514325,86.67664337158203,420.8083801269531C63.92215347290039,411.227544148763,44.31137718756994,397.3053894042969,30.089820861816406,388.4730529785156C15.868264536062876,379.6407165527344,6.137724657853444,413.1736424763997,1.347305417060852,367.8143615722656C-3.44311382373174,322.45508066813153,-6.5868261853853864,153.74251556396484,1.347305417060852,116.31736755371094" fill="hsl(205, 69%, 60%)" fill-opacity="0.19"></path></svg>