<svg xmlns="http://www.w3.org/2000/svg" version="1.1" xmlns:xlink="http://www.w3.org/1999/xlink" xmlns:svgjs="http://svgjs.dev/svgjs" viewBox="0 0 600 600"><path d="M24.700599670410156,331.4371337890625C14.37125825881958,307.33533732096356,7.934131622314453,276.4970016479492,7.634730339050293,249.70059204101562C7.335329055786133,222.90418243408203,16.766467253367107,191.61675898234049,22.904191970825195,170.65867614746094C29.041916688283283,149.7005933125814,31.586826642354332,140.86826197306314,44.46107864379883,123.95209503173828C57.335330645243324,107.0359280904134,79.94012260437012,80.68862024943034,100.14970397949219,69.16167449951172C120.35928535461426,57.6347287495931,137.27545420328775,58.38323465983073,165.71856689453125,54.79042053222656C194.16167958577475,51.1976064046224,230.38922119140625,47.005987803141274,270.8083801269531,47.60478973388672C311.2275390625,48.203591664632164,369.011962890625,52.544909159342446,408.2335205078125,58.38323211669922C447.455078125,64.22155507405598,480.68861897786456,66.61676406860352,506.1377258300781,82.63472747802734C531.5868326822916,98.65269088745117,548.3533070882162,123.80238723754883,560.9281616210938,154.4910125732422C573.5030161539713,185.17963790893555,578.1437377929688,232.93414560953775,581.5868530273438,266.7664794921875C585.0299682617188,300.5988133748372,594.6108093261719,334.2814229329427,581.5868530273438,357.4850158691406C568.5628967285156,380.68860880533856,531.8862355550131,393.11378479003906,503.443115234375,405.988037109375C474.999994913737,418.86228942871094,450.2993876139323,428.2934061686198,410.9281311035156,434.73052978515625C371.55687459309894,441.1676534016927,310.7784474690755,444.61077880859375,267.215576171875,444.61077880859375C223.65270487467447,444.61077880859375,182.48503621419272,443.113764444987,149.5509033203125,434.73052978515625C116.61677042643228,426.3472951253255,90.41916275024414,411.5269368489583,69.61077880859375,394.3113708496094C48.80239486694336,377.09580485026044,35.02994108200073,355.53893025716144,24.700599670410156,331.4371337890625C14.37125825881958,307.33533732096356,7.934131622314453,276.4970016479492,7.634730339050293,249.70059204101562" fill="hsl(205, 69%, 60%)" fill-opacity="0.26"></path></svg>