<svg xmlns="http://www.w3.org/2000/svg" version="1.1" xmlns:xlink="http://www.w3.org/1999/xlink" xmlns:svgjs="http://svgjs.dev/svgjs" viewBox="0 0 600 600"><path d="M21.556886672973633,297.3053894042969C16.167665481567383,262.72455342610675,10.778442700703938,213.47306060791016,34.131736755371094,189.52096557617188C57.48503081003825,165.5688705444336,114.37126032511392,160.02994537353516,161.67665100097656,153.5928192138672C208.9820416768392,147.15569305419922,266.0179723103841,149.85030619303384,317.9640808105469,150.89820861816406C369.91018931070965,151.94611104329428,436.5269521077474,148.8023910522461,473.3533020019531,159.88023376464844C510.1796518961589,170.95807647705078,521.1078135172526,194.7604751586914,538.9221801757812,217.36526489257812C556.7365468343099,239.97005462646484,577.2454935709635,264.5209452311198,580.239501953125,295.50897216796875C583.2335103352865,326.4969991048177,578.1437123616537,374.4012095133464,556.88623046875,403.2934265136719C535.6287485758463,432.1856435139974,498.65269470214844,453.5928141276042,452.6946105957031,468.8622741699219C406.7365264892578,484.13173421223956,330.23952229817706,495.9580891927083,281.1377258300781,494.9101867675781C232.03592936197916,493.86228434244794,193.86227544148764,478.89222717285156,158.08383178710938,462.5748596191406C122.30538813273111,446.2574920654297,89.22155475616455,424.55089314778644,66.4670639038086,397.0059814453125C43.71257305145264,369.46106974283856,26.946107864379883,331.886225382487,21.556886672973633,297.3053894042969C16.167665481567383,262.72455342610675,10.778442700703938,213.47306060791016,34.131736755371094,189.52096557617188" fill="hsl(205, 69%, 60%)" fill-opacity="0.21"></path></svg>