<svg xmlns="http://www.w3.org/2000/svg" version="1.1" xmlns:xlink="http://www.w3.org/1999/xlink" xmlns:svgjs="http://svgjs.dev/svgjs" viewBox="0 0 600 600"><path d="M25.149700164794922,279.34130859375C22.45508925120036,253.44310506184897,9.730539957682293,216.46707153320312,16.167665481567383,192.215576171875C22.604791005452473,167.96408081054688,37.27544689178467,145.05988311767578,63.77245330810547,133.83233642578125C90.26945972442627,122.60478973388672,140.56886672973633,123.50299072265625,175.1497039794922,124.85029602050781C209.73054122924805,126.19760131835938,237.12574005126953,136.52694702148438,271.2574768066406,141.91616821289062C305.3892135620117,147.30538940429688,339.3712615966797,150.89819844563803,379.94012451171875,157.1856231689453C420.5089874267578,163.4730478922526,479.79041544596356,164.97005716959634,514.670654296875,179.64071655273438C549.5508931477865,194.3113759358724,578.7425130208334,217.5149688720703,589.2215576171875,245.20957946777344C599.7006022135416,272.90419006347656,579.6407267252604,315.41915639241535,577.544921875,345.8083801269531C575.4491170247396,376.1976038614909,593.8622996012369,412.1257578531901,576.646728515625,427.544921875C559.4311574300131,442.9640858968099,512.8742523193359,438.4730682373047,474.2514953613281,438.3233642578125C435.6287384033203,438.1736602783203,389.67066446940106,426.6466979980469,344.9101867675781,426.6466979980469C300.1497090657552,426.6466979980469,246.2574920654297,442.3652801513672,205.68862915039062,438.3233642578125C165.11976623535156,434.2814483642578,130.38922564188638,417.5149637858073,101.49700927734375,402.39520263671875C72.6047929128011,387.2754414876302,45.059882481892906,368.11377970377606,32.335330963134766,347.60479736328125C19.610779444376625,327.09581502278644,27.844311078389484,305.23951212565106,25.149700164794922,279.34130859375C22.45508925120036,253.44310506184897,9.730539957682293,216.46707153320312,16.167665481567383,192.215576171875" fill="hsl(205, 69%, 60%)" stroke-width="12" stroke="hsl(205, 64%, 68%)" fill-opacity="0.5" stroke-opacity="0.34"></path></svg>