<svg id="Flat" xmlns="http://www.w3.org/2000/svg" viewBox="0 0 512 512"><path d="M320,456V360s80-32,80-96H368c0,24-48,64-64,64,0,0,16-48,16-80H288c0,32-27.248,76.916-32,80,0,0-32-48-32-80H192c0,32,16,80,16,80-16,0-64-40-64-64H112c0,64,80,96,80,96v96s-56,8-64,32H384C376,464,320,456,320,456Z" style="fill:#d49073"/><path d="M446.225,129.775a87.817,87.817,0,0,0-70.736-25.363A71.98,71.98,0,0,0,256,42.341a71.98,71.98,0,0,0-119.489,62.071,88,88,0,1,0,47.471,155.476A72.016,72.016,0,0,0,256,245.659a72.016,72.016,0,0,0,72.018,14.229A88,88,0,0,0,446.225,129.775Z" style="fill:#88c791"/></svg>